<svg width="26" height="26" viewBox="0 0 26 26" fill="none" xmlns="http://www.w3.org/2000/svg">
<path d="M0.375086 12.8249C0.275079 12.799 0.275079 12.657 0.375085 12.6312L7.26179 10.8534C9.02318 10.3987 10.3986 9.02329 10.8533 7.2619L12.6311 0.375192C12.6569 0.275185 12.7989 0.275184 12.8247 0.375192L14.6025 7.2619C15.0572 9.02329 16.4327 10.3988 18.1941 10.8534L25.0808 12.6312C25.1808 12.657 25.1808 12.799 25.0808 12.8249L18.1941 14.6026C16.4327 15.0573 15.0572 16.4328 14.6025 18.1942L12.8247 25.0809C12.7989 25.1809 12.6569 25.1809 12.6311 25.0809L10.8533 18.1942C10.3986 16.4328 9.02318 15.0573 7.26179 14.6026L0.375086 12.8249Z" fill="#1A71D1"/>
</svg>
