<svg width="148" height="127" viewBox="0 0 148 127" fill="none" xmlns="http://www.w3.org/2000/svg">
<path d="M36.7481 45L24.4004 57.7023H36.7481V83L49.2004 70.4045V45H36.7481Z" fill="#42444A"/>
<path d="M24.4523 83L36.8 70.2977H24.4523V45L12 57.5955V83H24.4523Z" fill="#42444A"/>
<path d="M62.8398 51.333V76.6663H69.2838V57.0809H79.1574V76.6663H85.6012V51.333H62.8398Z" fill="#42444A"/>
<path d="M124.298 71.3218H119.537V66.2978H124.298C125.818 66.2978 127.338 66.9392 127.338 68.8633C127.236 70.6805 125.818 71.3218 124.298 71.3218ZM124.906 60.8463H119.537V56.9983H131.593V51.333H113.154V76.6663H125.109C129.87 76.6663 133.518 74.101 133.518 68.7564C133.619 63.4118 129.972 60.8463 124.906 60.8463Z" fill="#42444A"/>
<path d="M101.019 71.1277C96.7126 71.1277 94.3545 67.9827 94.3545 63.9989C94.3545 60.8539 96.0975 56.8701 100.916 56.8701C103.889 56.8701 105.837 58.7572 106.555 59.5959L110.451 55.6121C108.093 52.7816 104.607 50.8945 100.608 50.8945C93.5344 50.8945 87.998 56.2411 87.998 63.9989C87.998 71.2326 93.5344 77.1034 100.608 77.1034C104.812 77.1034 108.605 75.0067 110.861 71.7568L106.965 67.773C105.735 69.6601 103.684 71.1277 101.019 71.1277Z" fill="#42444A"/>
</svg>
