<svg width="148" height="127" viewBox="0 0 148 127" fill="none" xmlns="http://www.w3.org/2000/svg">
<path fill-rule="evenodd" clip-rule="evenodd" d="M58.6195 63.6451C58.6195 70.6469 54.0375 75.356 47.2304 75.356C40.2952 75.356 35.651 70.6777 35.651 63.6144C35.651 56.5192 40.2635 51.8716 47.2944 51.8716C54.0705 51.8716 58.6195 56.612 58.6195 63.6451ZM42.713 63.5198C42.713 67.5061 44.3676 69.7983 47.2304 69.7983C50.0615 69.7983 51.588 67.5701 51.588 63.3299C51.588 59.5942 49.9658 57.3647 47.1981 57.3647C44.3993 57.3647 42.713 59.6889 42.713 63.5185V63.5198ZM23.7839 52.4683C28.7476 52.4683 33.6776 53.8811 33.6776 60.414C33.6776 65.5631 30.0199 67.9179 25.1519 67.9179H20.826V74.8251H13.9219V52.4677L23.7839 52.4683ZM20.8235 62.7037H24.163C25.8492 62.7037 27.0271 62.1703 27.0271 60.3489C27.0271 58.748 26.0718 57.9627 24.0362 57.9627H20.8228L20.8235 62.7037ZM81.7155 74.8226V52.4683H63.8082V62.0731C63.8082 65.716 63.7132 69.7663 61.3587 69.7663C60.8803 69.7689 60.4092 69.6498 59.9907 69.4203V74.7267C60.8706 75.0727 61.8114 75.2438 62.7585 75.23C70.6547 75.23 70.6509 66.2231 70.6477 59.8926V58.2147H74.812V74.8232L81.7155 74.8226ZM91.9293 59.4055H95.7779C101.949 59.4055 104.718 62.2624 104.718 66.9408C104.718 71.7758 101.571 74.79 95.3652 74.79H84.9941V52.4357H91.9293V59.4055ZM91.9293 69.4529H95.1135C96.6077 69.4529 97.9764 68.9502 97.9764 67.0028C97.9764 65.0849 96.7992 64.4913 95.1459 64.4913H91.9331L91.9293 69.4529ZM123.803 74.8238V72.6527C130.449 72.6527 134.075 68.7584 134.075 63.484C134.075 58.6804 130.388 54.6927 123.803 54.6927V52.4645H116.995V54.6927C109.551 54.6927 106.624 59.3755 106.624 63.5524C106.624 68.7948 110.601 72.6571 116.995 72.6571V74.8238H123.803ZM113.56 63.5499C113.56 61.8857 114.387 59.5309 117.155 59.5309V67.7882C114.418 67.7882 113.56 65.5267 113.56 63.5499ZM123.644 67.7562V59.5309C126.475 59.5309 127.143 62.0424 127.143 63.5499C127.143 65.0874 126.606 67.7562 123.644 67.7562Z" fill="#42444A"/>
</svg>
