<svg width="148" height="127" viewBox="0 0 148 127" fill="none" xmlns="http://www.w3.org/2000/svg">
<g clip-path="url(#clip0_1465_1883)">
<path d="M66.1891 59.0021L69.278 56.6528H58.9368V70.7256H69.278V68.3763H61.8914V64.7832H68.2036V62.4339H61.8914V59.0021H66.1891Z" fill="#42444A"/>
<path d="M51.1239 62.1345H47.5426V59.0021H53.2728L56.3617 56.6528H44.5879V70.7256H50.7434C54.1905 70.7256 56.1826 69.1133 56.1826 66.3034C56.1826 63.6086 54.3919 62.1345 51.1239 62.1345ZM50.6315 68.3763H47.5426V64.4838H50.6315C52.5118 64.4838 53.3847 65.1287 53.3847 66.4416C53.3847 67.7544 52.4446 68.3763 50.6315 68.3763Z" fill="#42444A"/>
<path d="M77.6497 56.6528H72.0315V70.7256H74.986V66.7409H77.6721C81.2535 66.7409 83.4919 64.8063 83.4919 61.6969C83.4919 58.5875 81.2535 56.6528 77.6497 56.6528ZM77.5826 64.3917H74.9637V59.0021H77.5826C79.4852 59.0021 80.5149 59.9695 80.5149 61.6969C80.5149 63.4243 79.4852 64.3917 77.5826 64.3917Z" fill="#42444A"/>
<path d="M39.53 67.6849C38.7467 68.1226 37.8737 68.3529 36.9783 68.3529C34.3146 68.3529 32.3896 66.3952 32.3896 63.7004C32.3896 61.0056 34.3146 59.0479 36.9783 59.0479C37.9407 59.0249 38.8809 59.3473 39.6644 59.9231L41.7908 58.3108L41.6564 58.1726C40.4254 57.0441 38.769 56.4683 36.8888 56.4683C34.8518 56.4683 32.994 57.1823 31.651 58.4721C30.3079 59.808 29.5468 61.6736 29.5917 63.6083C29.5693 65.566 30.3079 67.4547 31.651 68.8365C33.0611 70.1956 34.9413 70.9555 36.8664 70.9095C38.9928 70.9095 40.8507 70.1494 42.1042 68.7675L40.2016 67.3165L39.53 67.6849Z" fill="#42444A"/>
<path d="M119.014 56.6759V70.7485H121.969V64.9905H128.258V70.7485H131.213V56.6759H128.258V62.457H121.969V56.6759H119.014ZM113.933 70.7485H117.044L111.269 56.6759H108.27L102.383 70.7485H105.36L106.546 67.9156H112.814L113.933 70.7485ZM107.442 65.5663L109.725 59.9234L111.873 65.5663H107.442ZM137.839 65.0596H139.674L144.195 70.7256H148L141.957 63.4474L147.239 56.6528H143.86L139.473 62.6873H137.839V56.6528H134.884V70.7256H137.839V65.0596ZM92.6236 62.1575V59.0252H100.346V56.6759H89.6689V70.7485H95.8245C99.2716 70.7485 101.264 69.1364 101.264 66.3264C101.264 63.6316 99.473 62.1575 96.205 62.1575H92.6236ZM92.6236 68.3993V64.5068H95.7125C97.5927 64.5068 98.4657 65.1517 98.4657 66.4646C98.4657 67.7775 97.5479 68.4223 95.7125 68.4223H92.6236V68.3993Z" fill="#42444A"/>
<path d="M20.3456 56.5605C20.8828 57.2746 21.3305 58.0577 21.711 58.8868L11.3698 66.7408L7.02734 63.9309V60.5682L11.3474 63.3551L20.3456 56.5605Z" fill="#42444A"/>
<path d="M2.61889 63.7004C2.61889 63.5392 2.61889 63.401 2.64128 63.2398L0.0223837 63.1016C0.0223837 63.2858 0 63.4931 0 63.6774C0 66.9019 1.27587 69.827 3.33516 71.946L5.19301 70.0343C3.60377 68.422 2.61889 66.1879 2.61889 63.7004Z" fill="#42444A"/>
<path d="M11.3493 54.7177C11.506 54.7177 11.6403 54.7177 11.797 54.7408L11.9313 52.046C11.7522 52.046 11.5507 52.0229 11.3717 52.0229C8.23796 52.0229 5.39524 53.3358 3.33594 55.4548L5.19378 57.3664C6.76064 55.7311 8.95425 54.7177 11.3493 54.7177Z" fill="#42444A"/>
<path d="M11.3496 72.6829C11.1929 72.6829 11.0586 72.6829 10.9019 72.6598L10.7676 75.3547C10.9466 75.3547 11.1481 75.3776 11.3272 75.3776C14.4608 75.3776 17.3036 74.0649 19.3629 71.9459L17.505 70.0342C15.9382 71.6925 13.767 72.6829 11.3496 72.6829Z" fill="#42444A"/>
<path d="M16.273 56.284L18.489 54.6026C16.5416 52.9904 14.0571 52 11.3486 52V54.6948C13.1841 54.7178 14.8853 55.2936 16.273 56.284Z" fill="#42444A"/>
<path d="M22.7183 63.7004C22.7183 62.9864 22.6511 62.2955 22.5392 61.6045L20.0994 63.4701C20.0994 63.5392 20.0994 63.6313 20.0994 63.7004C20.0994 66.3491 18.9801 68.7215 17.2119 70.3568L18.9801 72.3606C21.2633 70.2416 22.7183 67.1323 22.7183 63.7004Z" fill="#42444A"/>
<path d="M11.3489 72.6831C8.77476 72.6831 6.46924 71.5315 4.88 69.7119L2.93262 71.5315C5.0143 73.9038 8.01371 75.3778 11.3489 75.3778V72.6831Z" fill="#42444A"/>
<path d="M5.50639 57.0439L3.73808 55.04C1.43256 57.182 0 60.2684 0 63.7002H2.61889C2.61889 61.0745 3.73808 58.6792 5.50639 57.0439Z" fill="#42444A"/>
</g>
<defs>
<clipPath id="clip0_1465_1883">
<rect width="148" height="127" fill="white"/>
</clipPath>
</defs>
</svg>
