<svg width="148" height="127" viewBox="0 0 148 127" fill="none" xmlns="http://www.w3.org/2000/svg">
<mask id="mask0_1465_2119" style="mask-type:luminance" maskUnits="userSpaceOnUse" x="0" y="48" width="148" height="31">
<path d="M148 48H0V78.029H148V48Z" fill="white"/>
</mask>
<g mask="url(#mask0_1465_2119)">
<path d="M7.99688 55.5566L7.99609 55.5574V76.0847H28.7627V55.5566" fill="#42444A"/>
<path d="M0 48V68.5517H21.0704L21.072 68.5508V48" fill="#42444A"/>
<path d="M7.99773 55.5469L7.99609 55.5477V68.5509H21.0728V55.5477L21.0712 55.5469" fill="#42444A"/>
<path d="M38.2788 58.511C38.2788 58.1109 38.1622 57.818 37.9298 57.6329C37.6974 57.4479 37.3904 57.3555 37.0078 57.3555H35.8608V59.7225H37.053C37.5029 59.7225 37.819 59.6057 38.0029 59.372C38.1868 59.1391 38.2788 58.8518 38.2788 58.511ZM35.8608 63.4343C35.8608 63.4935 35.8477 63.5438 35.8214 63.5844C35.7951 63.6258 35.7409 63.6461 35.6588 63.6461H34.8156C34.6654 63.6461 34.5898 63.5755 34.5898 63.4343V56.4766C34.5898 56.3362 34.6654 56.2656 34.8156 56.2656H37.1539C37.4914 56.2656 37.8083 56.3119 38.1039 56.4044C38.4003 56.4977 38.6572 56.6348 38.874 56.8158C39.0916 56.9976 39.2624 57.2272 39.3863 57.5048C39.5103 57.7831 39.5719 58.1068 39.5719 58.4777C39.5719 58.7366 39.5366 59.0019 39.4652 59.2721C39.3937 59.5432 39.2665 59.7891 39.0825 60.0114C38.8987 60.2338 38.6515 60.4172 38.3403 60.5616C38.0291 60.7061 37.6334 60.7783 37.1539 60.7783H35.8608V63.4343Z" fill="#2C2929"/>
<path d="M45.9043 59.9673C45.9043 59.5226 45.8764 59.1315 45.8197 58.7948C45.7639 58.458 45.6678 58.1764 45.5332 57.95C45.3985 57.7244 45.2187 57.554 44.9937 57.4387C44.7688 57.3243 44.4839 57.2667 44.1391 57.2667C43.8164 57.2667 43.5488 57.3276 43.3353 57.4501C43.121 57.5719 42.9486 57.7479 42.818 57.9776C42.6866 58.208 42.593 58.4896 42.5364 58.8223C42.4806 59.1558 42.4526 59.5373 42.4526 59.9673C42.4526 60.3828 42.4764 60.7561 42.5249 61.0896C42.5742 61.4231 42.662 61.7047 42.7893 61.9352C42.9165 62.164 43.0889 62.3401 43.3065 62.4626C43.5241 62.5852 43.8016 62.646 44.1391 62.646C44.4839 62.646 44.7688 62.5868 44.9937 62.4684C45.2187 62.3499 45.3985 62.177 45.5332 61.9514C45.6678 61.725 45.7639 61.4459 45.8197 61.1123C45.8764 60.7788 45.9043 60.3974 45.9043 59.9673ZM47.1974 59.8562C47.1974 60.2854 47.1671 60.731 47.1079 61.1902C47.048 61.6496 46.915 62.0683 46.7089 62.4456C46.502 62.8238 46.195 63.1346 45.786 63.3796C45.378 63.6247 44.8246 63.7464 44.1275 63.7464C43.6703 63.7464 43.2786 63.6913 42.9526 63.5793C42.6267 63.4681 42.3508 63.3163 42.1259 63.124C41.9009 62.9309 41.7236 62.7069 41.5922 62.4513C41.4608 62.1957 41.3615 61.9238 41.2941 61.6341C41.2268 61.3452 41.1817 61.049 41.1587 60.7455C41.1365 60.4412 41.125 60.1451 41.125 59.8562C41.125 59.6338 41.1365 59.3871 41.1587 59.1169C41.1817 58.8467 41.2301 58.5764 41.3048 58.3054C41.3795 58.0352 41.4855 57.7723 41.6201 57.5166C41.7547 57.2611 41.9345 57.033 42.1595 56.8334C42.3845 56.633 42.6587 56.4739 42.9806 56.3554C43.3033 56.237 43.6891 56.1777 44.1391 56.1777C44.8057 56.1777 45.3419 56.2848 45.7467 56.4999C46.1514 56.7149 46.461 56.9981 46.6744 57.3495C46.8879 57.7017 47.0291 58.0961 47.0965 58.5335C47.1638 58.9708 47.1974 59.4115 47.1974 59.8562Z" fill="#2C2929"/>
<path d="M48.8047 60.0218C48.8047 59.5479 48.8416 59.0813 48.9172 58.622C48.9919 58.1627 49.1397 57.7529 49.3614 57.3934C49.5823 57.0347 49.8893 56.7434 50.2834 56.521C50.6767 56.2987 51.1964 56.1875 51.8409 56.1875C51.9756 56.1875 52.1316 56.1932 52.3073 56.2046C52.4838 56.2159 52.6652 56.2338 52.8524 56.2597C53.0404 56.2857 53.2236 56.319 53.4042 56.3604C53.584 56.4009 53.7482 56.4504 53.8984 56.5097C53.9888 56.547 54.0503 56.5917 54.084 56.6436C54.1177 56.6955 54.1275 56.7661 54.1119 56.8546L54.0109 57.3114C53.9962 57.378 53.9699 57.4259 53.9321 57.4559C53.8952 57.4851 53.8238 57.4924 53.7186 57.4778C53.4411 57.4404 53.1431 57.408 52.8245 57.378C52.5059 57.348 52.2006 57.3333 51.9082 57.3333C51.5256 57.3333 51.2186 57.404 50.9862 57.5443C50.7539 57.6855 50.5757 57.8779 50.4517 58.1229C50.3277 58.3672 50.2473 58.6504 50.2104 58.9725C50.1726 59.2947 50.1537 59.6379 50.1537 60.0007C50.1537 60.3643 50.1767 60.7051 50.2218 61.0232C50.2662 61.3421 50.3524 61.618 50.4805 61.8517C50.6077 62.0846 50.7859 62.268 51.0141 62.4011C51.2432 62.535 51.5412 62.6015 51.9082 62.6015C52.2383 62.6015 52.5454 62.5869 52.8303 62.5569C53.1152 62.5277 53.4116 62.4944 53.7186 62.4571C53.8238 62.4424 53.8952 62.4498 53.9321 62.4798C53.9699 62.509 54.0003 62.5609 54.0224 62.6348L54.1119 63.0576C54.1571 63.2207 54.0938 63.3391 53.9206 63.413C53.786 63.4722 53.6267 63.5234 53.4427 63.5631C53.2597 63.6045 53.0725 63.6402 52.8812 63.6694C52.6899 63.6978 52.5027 63.7197 52.3188 63.7294C52.1349 63.7416 51.9756 63.7465 51.8409 63.7465C51.2112 63.7465 50.6989 63.641 50.3064 63.4292C49.9123 63.2182 49.6052 62.9391 49.3835 62.5901C49.1627 62.242 49.0108 61.846 48.9287 61.4013C48.8458 60.9558 48.8047 60.4965 48.8047 60.0218Z" fill="#2C2929"/>
<path d="M55.6367 60.0218C55.6367 59.5479 55.6737 59.0813 55.7484 58.622C55.8239 58.1627 55.9718 57.7529 56.1926 57.3934C56.4143 57.0347 56.7216 56.7434 57.1147 56.521C57.5085 56.2987 58.0276 56.1875 58.6721 56.1875C58.8077 56.1875 58.963 56.1932 59.1393 56.2046C59.315 56.2159 59.4974 56.2338 59.6844 56.2597C59.8719 56.2857 60.0555 56.319 60.2352 56.3604C60.4154 56.4009 60.5803 56.4504 60.7306 56.5097C60.8198 56.547 60.8825 56.5917 60.9159 56.6436C60.9497 56.6955 60.9588 56.7661 60.9441 56.8546L60.843 57.3114C60.8272 57.378 60.8017 57.4259 60.7639 57.4559C60.7266 57.4851 60.6549 57.4924 60.5509 57.4778C60.273 57.4404 59.9753 57.408 59.6567 57.378C59.3381 57.348 59.0325 57.3333 58.7394 57.3333C58.3575 57.3333 58.0508 57.404 57.818 57.5443C57.5859 57.6855 57.4079 57.8779 57.2836 58.1229C57.1599 58.3672 57.0792 58.6504 57.0413 58.9725C57.0046 59.2947 56.9859 59.6379 56.9859 60.0007C56.9859 60.3643 57.008 60.7051 57.0532 61.0232C57.0984 61.3421 57.1842 61.618 57.3119 61.8517C57.439 62.0846 57.6169 62.268 57.8463 62.4011C58.0745 62.535 58.3722 62.6015 58.7394 62.6015C59.0692 62.6015 59.3777 62.5869 59.6624 62.5569C59.9471 62.5277 60.2425 62.4944 60.5509 62.4571C60.6549 62.4424 60.7266 62.4498 60.7639 62.4798C60.8017 62.509 60.8317 62.5609 60.8543 62.6348L60.9441 63.0576C60.9893 63.2207 60.9249 63.3391 60.7526 63.413C60.6182 63.4722 60.4589 63.5234 60.2747 63.5631C60.0911 63.6045 59.9036 63.6402 59.7132 63.6694C59.5217 63.6978 59.3336 63.7197 59.15 63.7294C58.967 63.7416 58.8077 63.7465 58.6721 63.7465C58.0423 63.7465 57.5311 63.641 57.1373 63.4292C56.7436 63.2182 56.4364 62.9391 56.2156 62.5901C55.9939 62.242 55.8428 61.846 55.7599 61.4013C55.677 60.9558 55.6367 60.4965 55.6367 60.0218Z" fill="#2C2929"/>
<path d="M63.1074 56.4997C63.1074 56.3512 63.1792 56.2773 63.3209 56.2773H64.1423C64.2925 56.2773 64.3671 56.3512 64.3671 56.4997V61.4562H64.3891L64.8958 60.6675L67.5378 56.5102C67.5757 56.451 67.6225 56.3974 67.6785 56.3495C67.735 56.3016 67.8152 56.2773 67.9202 56.2773H68.6625C68.7376 56.2773 68.7902 56.2976 68.8195 56.3382C68.85 56.3796 68.8647 56.4258 68.8647 56.4769V63.4346C68.8647 63.5758 68.793 63.6464 68.6512 63.6464H67.8197C67.6768 63.6464 67.605 63.5758 67.605 63.4346V58.4002H67.583L64.3891 63.4127C64.344 63.4865 64.2926 63.5442 64.2315 63.5847C64.1722 63.6261 64.0898 63.6464 63.9841 63.6464H63.3209C63.1792 63.6464 63.1074 63.5791 63.1074 63.446" fill="#2C2929"/>
<path d="M74.2767 56.1208C73.9089 56.1208 73.5508 56.0266 73.2023 55.8375C72.8537 55.6485 72.5894 55.358 72.4097 54.9652C72.3804 54.906 72.3533 54.8427 72.3307 54.7761C72.3086 54.7096 72.3267 54.6503 72.3877 54.5984L72.6911 54.3533C72.7588 54.3095 72.8103 54.2965 72.8481 54.3144C72.8859 54.333 72.9311 54.3688 72.9825 54.4207C73.2085 54.6869 73.4124 54.8832 73.596 55.009C73.7802 55.1356 74.0106 55.1981 74.2874 55.1981C74.4156 55.1981 74.5298 55.1835 74.6309 55.1543C74.7314 55.1242 74.8291 55.0764 74.9229 55.009C75.0156 54.9424 75.1116 54.8613 75.2093 54.7648C75.3065 54.669 75.4155 54.5538 75.5364 54.4207C75.6256 54.3168 75.72 54.2982 75.8171 54.3647L76.1216 54.5538C76.1956 54.5984 76.221 54.6576 76.1939 54.7315C76.1685 54.8053 76.1397 54.8759 76.1092 54.9424C75.9075 55.3352 75.6454 55.6298 75.3217 55.8262C75.0003 56.0225 74.6512 56.1208 74.2767 56.1208ZM71.4088 56.4989C71.4088 56.3504 71.4805 56.2766 71.6223 56.2766H72.4436C72.5933 56.2766 72.6685 56.3504 72.6685 56.4989V61.4555H72.6911L73.1972 60.6667L75.8392 56.5095C75.8776 56.4502 75.9245 56.3966 75.9804 56.3488C76.0363 56.3009 76.1165 56.2766 76.2227 56.2766H76.9639C77.039 56.2766 77.0915 56.2969 77.1214 56.3374C77.1503 56.3788 77.1661 56.425 77.1661 56.4762V63.4339C77.1661 63.5751 77.0955 63.6456 76.9526 63.6456H76.121C75.9781 63.6456 75.9064 63.5751 75.9064 63.4339V58.3994H75.8838L72.6905 63.412C72.6453 63.4858 72.5928 63.5434 72.5329 63.584C72.473 63.6254 72.39 63.6456 72.2849 63.6456H71.6217C71.4794 63.6456 71.4082 63.5783 71.4082 63.4452L71.4088 56.4989Z" fill="#2C2929"/>
<path d="M79.2656 60.0218C79.2656 59.5479 79.3046 59.0813 79.378 58.622C79.4537 58.1627 79.6017 57.7529 79.8226 57.3934C80.0452 57.0347 80.3519 56.7434 80.7445 56.521C81.1388 56.2987 81.6585 56.1875 82.3019 56.1875C82.4369 56.1875 82.5928 56.1932 82.769 56.2046C82.9447 56.2159 83.1272 56.2338 83.3142 56.2597C83.5017 56.2857 83.6847 56.319 83.8655 56.3604C84.0451 56.4009 84.2101 56.4504 84.3603 56.5097C84.4501 56.547 84.5128 56.5917 84.5462 56.6436C84.5806 56.6955 84.5897 56.7661 84.5738 56.8546L84.4727 57.3114C84.4575 57.378 84.4309 57.4259 84.3942 57.4559C84.3564 57.4851 84.2846 57.4924 84.1807 57.4778C83.9033 57.4404 83.6051 57.408 83.2865 57.378C82.9679 57.348 82.6617 57.3333 82.3691 57.3333C81.9878 57.3333 81.6799 57.404 81.4472 57.5443C81.2156 57.6855 81.0377 57.8779 80.9145 58.1229C80.7902 58.3672 80.7095 58.6504 80.6722 58.9725C80.6355 59.2947 80.6163 59.6379 80.6163 60.0007C80.6163 60.3643 80.6389 60.7051 80.6835 61.0232C80.7287 61.3421 80.8151 61.618 80.9416 61.8517C81.0687 62.0846 81.2478 62.268 81.476 62.4011C81.7042 62.535 82.0031 62.6015 82.3691 62.6015C82.6996 62.6015 83.0074 62.5869 83.2916 62.5569C83.578 62.5277 83.8728 62.4944 84.1807 62.4571C84.2846 62.4424 84.3564 62.4498 84.3942 62.4798C84.4309 62.509 84.4614 62.5609 84.4846 62.6348L84.5733 63.0576C84.619 63.2207 84.5552 63.3391 84.3824 63.413C84.2479 63.4722 84.0892 63.5234 83.9045 63.5631C83.7197 63.6045 83.5333 63.6402 83.3413 63.6694C83.1509 63.6978 82.9628 63.7197 82.7792 63.7294C82.5962 63.7416 82.4358 63.7465 82.3013 63.7465C81.6715 63.7465 81.1597 63.641 80.7677 63.4292C80.3734 63.2182 80.0661 62.9391 79.8452 62.5901C79.6232 62.242 79.4718 61.846 79.3888 61.4013C79.3074 60.9558 79.2656 60.4965 79.2656 60.0218Z" fill="#2C2929"/>
<path d="M90.4735 61.4007C90.4063 61.1929 90.3277 61.0249 90.2379 60.8951C90.1487 60.7653 90.0526 60.663 89.951 60.5892C89.8498 60.5153 89.7391 60.4667 89.6199 60.4448C89.4991 60.422 89.3793 60.4115 89.2601 60.4115H88.271V63.4343C88.271 63.4935 88.258 63.5438 88.2309 63.5844C88.2055 63.6258 88.1501 63.6461 88.0671 63.6461H87.2248C87.0746 63.6461 87 63.5755 87 63.4343V56.488C87 56.3395 87.0757 56.2656 87.2248 56.2656H88.0671C88.1512 56.2656 88.2055 56.2859 88.2309 56.3273C88.258 56.3678 88.271 56.4214 88.271 56.488V59.3225H89.2381C89.3431 59.3225 89.4533 59.3127 89.5697 59.294C89.6855 59.2762 89.7956 59.2332 89.9013 59.1666C90.0058 59.1001 90.1052 59.0052 90.1989 58.8835C90.2921 58.7609 90.3729 58.5921 90.4402 58.3779L91.0254 56.5545C91.0627 56.4506 91.1045 56.3808 91.1485 56.3435C91.1937 56.307 91.2751 56.2883 91.3965 56.2883H92.1043C92.2241 56.2883 92.2947 56.3119 92.3178 56.3605C92.3399 56.4084 92.3365 56.4766 92.3065 56.5659L91.7207 58.4444C91.61 58.8072 91.4665 59.109 91.2937 59.35C91.1214 59.5911 90.9231 59.7518 90.6972 59.8337C90.983 59.9294 91.2039 60.1023 91.3615 60.3506C91.5191 60.5989 91.6501 60.9 91.7552 61.2562L92.4065 63.3677C92.437 63.457 92.4404 63.5251 92.4189 63.5738C92.3958 63.6225 92.3252 63.6461 92.2043 63.6461H91.4287C91.3089 63.6461 91.2265 63.6274 91.1813 63.5909C91.1361 63.5528 91.0954 63.4821 91.0576 63.3791" fill="#2C2929"/>
<path d="M94.7947 56.4997C94.7947 56.3512 94.8653 56.2773 95.0082 56.2773H95.829C95.9792 56.2773 96.0538 56.3512 96.0538 56.4997V61.4562H96.0758L96.582 60.6675L99.2245 56.5102C99.2618 56.451 99.3087 56.3974 99.3652 56.3495C99.4216 56.3016 99.5013 56.2773 99.6064 56.2773H100.349C100.424 56.2773 100.477 56.2976 100.506 56.3382C100.536 56.3796 100.551 56.4258 100.551 56.4769V63.4346C100.551 63.5758 100.48 63.6464 100.337 63.6464H99.5047C99.3629 63.6464 99.2912 63.5758 99.2912 63.4346V58.4002H99.2691L96.0753 63.4127C96.0295 63.4865 95.9775 63.5442 95.9177 63.5847C95.8583 63.6261 95.7747 63.6464 95.6702 63.6464H95.0065C94.8636 63.6464 94.793 63.5791 94.793 63.446" fill="#2C2929"/>
<path d="M106.28 56.1208C105.913 56.1208 105.554 56.0266 105.205 55.8375C104.857 55.6485 104.592 55.358 104.413 54.9652C104.382 54.906 104.357 54.8427 104.333 54.7761C104.312 54.7096 104.33 54.6503 104.39 54.5984L104.692 54.3533C104.76 54.3095 104.812 54.2965 104.849 54.3144C104.888 54.333 104.933 54.3688 104.986 54.4207C105.21 54.6869 105.413 54.8832 105.597 55.009C105.781 55.1356 106.012 55.1981 106.289 55.1981C106.416 55.1981 106.532 55.1835 106.633 55.1543C106.733 55.1242 106.831 55.0764 106.924 55.009C107.019 54.9424 107.113 54.8613 107.211 54.7648C107.308 54.669 107.419 54.5538 107.537 54.4207C107.626 54.3168 107.721 54.2982 107.818 54.3647L108.122 54.5538C108.197 54.5984 108.221 54.6576 108.195 54.7315C108.169 54.8053 108.142 54.8759 108.111 54.9424C107.908 55.3352 107.646 55.6298 107.323 55.8262C107.003 56.0225 106.654 56.1208 106.28 56.1208ZM103.412 56.4989C103.412 56.3504 103.483 56.2766 103.626 56.2766H104.447C104.598 56.2766 104.671 56.3504 104.671 56.4989V61.4555H104.694L105.2 60.6667L107.843 56.5095C107.88 56.4502 107.926 56.3966 107.983 56.3488C108.038 56.3009 108.12 56.2766 108.225 56.2766H108.967C109.042 56.2766 109.095 56.2969 109.123 56.3374C109.154 56.3788 109.169 56.425 109.169 56.4762V63.4339C109.169 63.5751 109.098 63.6456 108.956 63.6456H108.123C107.981 63.6456 107.909 63.5751 107.909 63.4339V58.3994H107.886L104.692 63.412C104.647 63.4858 104.596 63.5434 104.536 63.584C104.477 63.6254 104.393 63.6456 104.288 63.6456H103.624C103.481 63.6456 103.41 63.5783 103.41 63.4452V56.4989H103.412Z" fill="#2C2929"/>
<path d="M122.289 59.9222C122.289 59.6552 122.263 59.3963 122.21 59.144C122.158 58.8924 122.064 58.6668 121.93 58.4664C121.793 58.2667 121.612 58.1012 121.383 57.9722C121.155 57.8423 120.868 57.7628 120.523 57.7328V62.0791C121.159 62.0264 121.613 61.808 121.883 61.4226C122.154 61.0371 122.289 60.5372 122.289 59.9222ZM117.443 59.9116C117.443 60.2224 117.476 60.504 117.538 60.7556C117.601 61.0079 117.704 61.2262 117.847 61.412C117.99 61.597 118.177 61.7472 118.41 61.8616C118.643 61.9769 118.924 62.0531 119.254 62.0896V57.7214C118.924 57.7514 118.644 57.8269 118.415 57.9494C118.187 58.072 118 58.231 117.854 58.4274C117.707 58.6238 117.601 58.8477 117.538 59.1001C117.476 59.3517 117.443 59.6219 117.443 59.9116ZM119.241 56.488C119.241 56.3395 119.316 56.2656 119.466 56.2656H120.309C120.391 56.2656 120.447 56.2859 120.478 56.3273C120.507 56.3678 120.523 56.4214 120.523 56.488V56.677C121.159 56.7217 121.679 56.8531 122.08 57.0714C122.48 57.2905 122.79 57.5534 123.007 57.861C123.225 58.1677 123.372 58.498 123.453 58.8502C123.531 59.2023 123.57 59.5367 123.57 59.8556C123.57 60.2264 123.525 60.5949 123.435 60.9617C123.346 61.3285 123.184 61.6652 122.953 61.9728C122.72 62.2803 122.409 62.54 122.018 62.751C121.629 62.9628 121.13 63.0934 120.523 63.1454V63.4343C120.523 63.4935 120.507 63.5438 120.478 63.5844C120.447 63.6258 120.391 63.6461 120.309 63.6461H119.466C119.323 63.6461 119.253 63.5755 119.253 63.4343V63.1454C118.599 63.1162 118.07 62.9896 117.662 62.7672C117.253 62.5457 116.936 62.2755 116.711 61.9566C116.488 61.6376 116.335 61.2928 116.256 60.9227C116.177 60.5519 116.137 60.1964 116.137 59.8556C116.137 59.5813 116.179 59.2705 116.26 58.9224C116.343 58.5735 116.498 58.2424 116.726 57.9275C116.956 57.6127 117.27 57.3368 117.671 57.099C118.072 56.862 118.595 56.7217 119.24 56.677V56.488H119.241Z" fill="#2C2929"/>
<path d="M130.054 59.9673C130.054 59.5226 130.025 59.1315 129.968 58.7948C129.911 58.458 129.817 58.1764 129.681 57.95C129.546 57.7244 129.366 57.554 129.142 57.4387C128.917 57.3243 128.633 57.2667 128.287 57.2667C127.965 57.2667 127.696 57.3276 127.484 57.4501C127.269 57.5719 127.098 57.7479 126.967 57.9776C126.835 58.208 126.741 58.4896 126.684 58.8223C126.629 59.1558 126.6 59.5373 126.6 59.9673C126.6 60.3828 126.625 60.7561 126.673 61.0896C126.723 61.4231 126.811 61.7047 126.938 61.9352C127.065 62.164 127.237 62.3401 127.455 62.4626C127.673 62.5852 127.949 62.646 128.287 62.646C128.633 62.646 128.917 62.5868 129.142 62.4684C129.366 62.3499 129.546 62.177 129.681 61.9514C129.817 61.725 129.911 61.4459 129.968 61.1123C130.025 60.7788 130.054 60.3974 130.054 59.9673ZM131.347 59.8562C131.347 60.2854 131.316 60.731 131.256 61.1902C131.197 61.6496 131.064 62.0683 130.858 62.4456C130.652 62.8238 130.344 63.1346 129.935 63.3796C129.527 63.6247 128.975 63.7464 128.277 63.7464C127.82 63.7464 127.428 63.6913 127.101 63.5793C126.775 63.4681 126.5 63.3163 126.275 63.124C126.05 62.9309 125.872 62.7069 125.741 62.4513C125.609 62.1957 125.51 61.9238 125.443 61.6341C125.375 61.3452 125.33 61.049 125.309 60.7455C125.287 60.4412 125.275 60.1451 125.275 59.8562C125.275 59.6338 125.287 59.3871 125.309 59.1169C125.33 58.8467 125.379 58.5764 125.455 58.3054C125.529 58.0352 125.635 57.7723 125.77 57.5166C125.904 57.2611 126.085 57.033 126.31 56.8334C126.534 56.633 126.807 56.4739 127.13 56.3554C127.452 56.237 127.838 56.1777 128.288 56.1777C128.956 56.1777 129.491 56.2848 129.897 56.4999C130.301 56.7149 130.61 56.9981 130.824 57.3495C131.037 57.7017 131.178 58.0961 131.246 58.5335C131.313 58.9708 131.347 59.4115 131.347 59.8562Z" fill="#2C2929"/>
<path d="M144.94 68.8998C144.652 68.8998 144.375 68.8284 144.106 68.6864C143.836 68.5444 143.625 68.3171 143.47 68.0039C143.455 67.9747 143.44 67.9349 143.42 67.8838C143.402 67.8327 143.41 67.7889 143.447 67.7524L143.614 67.6225C143.672 67.5779 143.728 67.5893 143.779 67.6542C143.875 67.7856 143.967 67.8952 144.056 67.982C144.143 68.0697 144.234 68.1419 144.326 68.2011C144.417 68.2595 144.515 68.3017 144.619 68.3261C144.721 68.3521 144.835 68.3642 144.961 68.3642C145.182 68.3642 145.373 68.3082 145.536 68.1946C145.697 68.0819 145.881 67.8992 146.088 67.6444C146.139 67.5933 146.195 67.5828 146.253 67.6112L146.419 67.7313C146.456 67.7605 146.463 67.8002 146.441 67.8514C146.419 67.9017 146.401 67.9447 146.385 67.9812C146.216 68.3026 146.002 68.5346 145.744 68.6799C145.488 68.8276 145.22 68.8998 144.94 68.8998ZM142.399 69.3258C142.399 69.2317 142.44 69.1838 142.521 69.1838H142.884C142.966 69.1838 143.006 69.2317 143.006 69.3258V75.3633H143.037L143.911 74.0211L146.939 69.3039C146.968 69.2674 146.992 69.2374 147.01 69.2171C147.028 69.1952 147.067 69.1838 147.126 69.1838H147.502C147.584 69.1838 147.624 69.2236 147.624 69.3039C147.624 70.4757 147.625 71.6402 147.629 72.7982C147.633 73.9562 147.634 75.1206 147.634 76.2924C147.634 76.3793 147.587 76.4239 147.491 76.4239H147.138C147.055 76.4239 147.016 76.3793 147.016 76.2924V70.2225H146.983L146.088 71.6304C145.587 72.416 145.083 73.1942 144.58 73.9619C144.075 74.7295 143.572 75.5102 143.071 76.3038C143.042 76.3484 143.019 76.3785 142.999 76.3963C142.981 76.4142 142.943 76.4239 142.883 76.4239H142.519C142.438 76.4239 142.398 76.3841 142.398 76.3038V69.3258H142.399ZM134.882 69.3258C134.882 69.2317 134.923 69.1838 135.003 69.1838H135.368C135.449 69.1838 135.489 69.2317 135.489 69.3258V75.3633H135.522L136.394 74.0211L139.423 69.3039C139.451 69.2674 139.476 69.2374 139.494 69.2171C139.513 69.1952 139.551 69.1838 139.61 69.1838H139.986C140.067 69.1838 140.107 69.2236 140.107 69.3039C140.107 70.4757 140.109 71.6402 140.113 72.7982C140.116 73.9562 140.118 75.1206 140.118 76.2924C140.118 76.3793 140.07 76.4239 139.974 76.4239H139.62C139.54 76.4239 139.5 76.3793 139.5 76.2924V70.2225H139.466L138.571 71.6304C138.07 72.416 137.568 73.1942 137.064 73.9619C136.559 74.7295 136.055 75.5102 135.555 76.3038C135.526 76.3484 135.503 76.3785 135.483 76.3963C135.465 76.4142 135.427 76.4239 135.367 76.4239H135.002C134.922 76.4239 134.882 76.3841 134.882 76.3038V69.3258H134.882ZM132.403 76.4239H127.83C127.741 76.4239 127.696 76.3793 127.696 76.2924V69.3153C127.696 69.2276 127.741 69.1838 127.83 69.1838H128.217C128.291 69.1838 128.326 69.2276 128.326 69.3153V75.8453H131.929V69.3153C131.929 69.2276 131.973 69.1838 132.061 69.1838H132.436C132.518 69.1838 132.558 69.2276 132.558 69.3153V75.8234L132.956 75.868C133.021 75.8826 133.064 75.9078 133.083 75.9443C133.1 75.98 133.107 76.0239 133.099 76.0741L133.012 77.8334C133.003 77.9138 132.99 77.9665 132.967 77.9917C132.945 78.016 132.915 78.0298 132.878 78.0298H132.592C132.547 78.0298 132.514 78.016 132.492 77.9917C132.47 77.9665 132.458 77.913 132.458 77.8334L132.403 76.4239ZM120.147 69.3258C120.147 69.2317 120.187 69.1838 120.267 69.1838H120.632C120.714 69.1838 120.753 69.2317 120.753 69.3258V75.3633H120.785L121.659 74.0211L124.687 69.3039C124.715 69.2674 124.738 69.2374 124.758 69.2171C124.777 69.1952 124.815 69.1838 124.875 69.1838H125.25C125.331 69.1838 125.371 69.2236 125.371 69.3039C125.371 70.4757 125.373 71.6402 125.377 72.7982C125.38 73.9562 125.382 75.1206 125.382 76.2924C125.382 76.3793 125.334 76.4239 125.239 76.4239H124.885C124.804 76.4239 124.764 76.3793 124.764 76.2924V70.2225H124.731L123.836 71.6304C123.334 72.416 122.831 73.1942 122.328 73.9619C121.824 74.7295 121.32 75.5102 120.819 76.3038C120.791 76.3484 120.767 76.3785 120.747 76.3963C120.73 76.4142 120.691 76.4239 120.631 76.4239H120.267C120.186 76.4239 120.146 76.3841 120.146 76.3038V69.3258H120.147ZM113.868 69.7511C113.801 69.7511 113.757 69.7381 113.735 69.7129C113.714 69.6886 113.702 69.6464 113.702 69.588V69.3258C113.702 69.2747 113.714 69.2382 113.735 69.2171C113.757 69.1952 113.801 69.1838 113.868 69.1838H118.32C118.386 69.1838 118.432 69.1952 118.452 69.2171C118.474 69.2374 118.486 69.2739 118.486 69.3258V69.588C118.486 69.6464 118.474 69.6886 118.452 69.7129C118.432 69.7381 118.386 69.7511 118.32 69.7511H116.409L116.397 76.26C116.397 76.3257 116.388 76.3704 116.37 76.3914C116.352 76.4125 116.313 76.4239 116.253 76.4239H115.944C115.886 76.4239 115.843 76.4125 115.818 76.3914C115.792 76.3704 115.779 76.3257 115.779 76.26V69.7511H113.868ZM108.473 72.8858C108.473 73.2567 108.496 73.6259 108.544 73.9935C108.592 74.3611 108.69 74.689 108.837 74.9762C108.984 75.2635 109.193 75.4963 109.461 75.6749C109.729 75.8534 110.09 75.9427 110.539 75.9427C110.893 75.9427 111.219 75.924 111.516 75.8875C111.814 75.8518 112.104 75.8153 112.383 75.7788C112.442 75.7714 112.479 75.7804 112.494 75.8064C112.51 75.8315 112.519 75.855 112.527 75.8769L112.572 76.0628C112.579 76.0993 112.579 76.131 112.572 76.1602C112.565 76.1893 112.543 76.2113 112.505 76.2259C112.373 76.277 112.218 76.32 112.043 76.3566C111.866 76.393 111.685 76.4223 111.5 76.4442C111.316 76.4653 111.142 76.4823 110.976 76.4929C110.811 76.505 110.673 76.5099 110.561 76.5099C110.001 76.5099 109.546 76.4117 109.191 76.2153C108.838 76.019 108.558 75.7552 108.357 75.4242C108.155 75.0931 108.016 74.7076 107.943 74.2718C107.869 73.8345 107.832 73.3727 107.832 72.885C107.832 72.3892 107.866 71.9153 107.937 71.4592C108.007 71.004 108.142 70.6023 108.34 70.2526C108.538 69.9028 108.815 69.6253 109.168 69.4184C109.523 69.2098 109.986 69.1067 110.56 69.1067C110.672 69.1067 110.81 69.1124 110.975 69.123C111.141 69.1343 111.315 69.1506 111.5 69.1725C111.685 69.1944 111.865 69.2236 112.042 69.2593C112.218 69.295 112.373 69.3405 112.505 69.3908C112.541 69.4054 112.564 69.4273 112.571 69.4565C112.579 69.4857 112.579 69.5182 112.571 69.5547L112.527 69.7292C112.519 69.7584 112.509 69.7852 112.493 69.8111C112.478 69.8363 112.441 69.846 112.382 69.8387C112.103 69.8022 111.814 69.7656 111.515 69.7292C111.218 69.6926 110.891 69.6748 110.538 69.6748C110.067 69.6748 109.693 69.7656 109.417 69.9474C109.14 70.13 108.931 70.3702 108.792 70.6689C108.652 70.9666 108.565 71.3099 108.527 71.6954C108.491 72.0808 108.473 72.4793 108.473 72.8858ZM102.568 72.9402V75.8559H105.883C105.949 75.8559 105.994 75.8697 106.014 75.8948C106.036 75.92 106.048 75.9614 106.048 76.0198V76.2819C106.048 76.3395 106.036 76.3776 106.014 76.3963C105.994 76.4142 105.949 76.4239 105.883 76.4239H102.104C102.037 76.4239 101.993 76.4142 101.971 76.3963C101.949 76.3785 101.938 76.3403 101.938 76.2819V69.3372C101.938 69.2861 101.949 69.2479 101.971 69.2212C101.993 69.196 102.037 69.183 102.104 69.183H105.805C105.871 69.183 105.915 69.1944 105.937 69.2163C105.959 69.2366 105.971 69.2731 105.971 69.3251V69.5985C105.971 69.6561 105.959 69.6967 105.937 69.717C105.915 69.7405 105.871 69.7502 105.805 69.7502H102.568V72.3827H105.474C105.54 72.3827 105.585 72.3916 105.607 72.4095C105.628 72.4273 105.639 72.4655 105.639 72.5239V72.7754C105.639 72.8339 105.628 72.8761 105.607 72.9012C105.585 72.9264 105.54 72.9394 105.474 72.9394H102.568V72.9402ZM99.3057 74.4139C99.3057 74.2256 99.2768 74.0414 99.2175 73.862C99.1588 73.6835 99.0661 73.5253 98.9419 73.3873C98.8165 73.2493 98.6594 73.1382 98.4724 73.0538C98.2843 72.9702 98.0567 72.9288 97.7923 72.9288H95.8587V75.8778H97.7923C98.0872 75.8778 98.3312 75.8372 98.5272 75.7577C98.7227 75.6781 98.8769 75.571 98.991 75.4363C99.1051 75.3016 99.1859 75.145 99.2339 74.9664C99.2808 74.7879 99.3057 74.6038 99.3057 74.4139ZM99.0848 71.0616C99.0848 70.6754 98.9605 70.3613 98.7142 70.117C98.4662 69.8728 98.0866 69.7511 97.5698 69.7511H95.857V72.4054H97.5698C98.0866 72.4054 98.4662 72.2796 98.7142 72.0289C98.9605 71.7765 99.0848 71.4552 99.0848 71.0616ZM99.9671 74.4909C99.9671 74.7896 99.9174 75.0574 99.818 75.2935C99.7186 75.5297 99.5824 75.7325 99.4107 75.8988C99.2367 76.0668 99.0339 76.1959 98.8012 76.2876C98.5707 76.3776 98.325 76.4239 98.0674 76.4239H95.4599C95.3565 76.4239 95.2921 76.4109 95.2667 76.3858C95.2413 76.3598 95.2277 76.3184 95.2277 76.26V69.3591C95.2277 69.308 95.2396 69.2658 95.2605 69.2334C95.2825 69.2 95.3311 69.1838 95.4046 69.1838H97.6912C98.3911 69.1838 98.908 69.3518 99.2441 69.6861C99.5796 70.0204 99.7463 70.4546 99.7463 70.9862C99.7463 71.1168 99.7333 71.2588 99.7078 71.4113C99.6819 71.5639 99.6322 71.7173 99.5576 71.8698C99.4853 72.0224 99.3813 72.166 99.248 72.3008C99.117 72.4354 98.9436 72.5466 98.73 72.6335C98.9724 72.6992 99.1723 72.8014 99.3311 72.9394C99.4892 73.0781 99.6152 73.2339 99.7073 73.4092C99.7988 73.5837 99.8649 73.7647 99.9056 73.9554C99.9485 74.1444 99.9671 74.3238 99.9671 74.4909ZM88.7282 76.26C88.7282 76.3257 88.7191 76.3704 88.7005 76.3914C88.6824 76.4125 88.6434 76.4239 88.5847 76.4239H88.2751C88.2164 76.4239 88.174 76.4125 88.1486 76.3914C88.122 76.3704 88.1091 76.3257 88.1091 76.26V69.3591C88.1091 69.2861 88.122 69.2382 88.1486 69.2171C88.174 69.1952 88.2164 69.1838 88.2751 69.1838H88.5847C88.6796 69.1838 88.7282 69.2423 88.7282 69.3591V72.2853H92.3299V69.3591C92.3299 69.2861 92.3417 69.2382 92.3638 69.2171C92.3852 69.1952 92.4254 69.1838 92.4847 69.1838H92.7937C92.8891 69.1838 92.9377 69.2423 92.9377 69.3591V76.26C92.9377 76.3257 92.9287 76.3704 92.9106 76.3914C92.8914 76.4125 92.853 76.4239 92.7937 76.4239H92.4847C92.4254 76.4239 92.3852 76.4125 92.3638 76.3914C92.3417 76.3704 92.3299 76.3257 92.3299 76.26V72.8753H88.7282V76.26ZM80.582 69.3258C80.582 69.2317 80.6221 69.1838 80.7034 69.1838H81.0672C81.1491 69.1838 81.1886 69.2317 81.1886 69.3258V75.3633H81.2203L82.093 74.0211L85.1214 69.3039C85.1502 69.2674 85.1728 69.2374 85.192 69.2171C85.2106 69.1952 85.2496 69.1838 85.3084 69.1838H85.6846C85.7648 69.1838 85.806 69.2236 85.806 69.3039C85.806 70.4757 85.8077 71.6402 85.8117 72.7982C85.8151 73.9562 85.8168 75.1206 85.8168 76.2924C85.8168 76.3793 85.7693 76.4239 85.6733 76.4239H85.3202C85.2377 76.4239 85.1982 76.3793 85.1982 76.2924V70.2225H85.1649L84.2701 71.6304C83.769 72.416 83.2657 73.1942 82.7624 73.9619C82.2574 74.7295 81.7541 75.5102 81.2536 76.3038C81.2248 76.3484 81.2011 76.3785 81.1813 76.3963C81.1638 76.4142 81.1254 76.4239 81.0655 76.4239H80.7017C80.6198 76.4239 80.5803 76.3841 80.5803 76.3038V69.3258H80.582ZM73.5407 73.2348L71.7279 76.2924C71.6918 76.3436 71.6602 76.3776 71.6342 76.3963C71.6087 76.4142 71.5551 76.4239 71.4737 76.4239H71.0755C70.9879 76.4239 70.9699 76.3841 71.0207 76.3038L73.2091 72.7114L71.1761 69.3153C71.154 69.2788 71.1461 69.2479 71.154 69.222C71.1614 69.1968 71.1834 69.1838 71.2195 69.1838H71.6398C71.7138 69.1838 71.763 69.1952 71.7895 69.2171C71.8149 69.2374 71.8387 69.2682 71.8607 69.3039L73.5407 72.1758L75.2082 69.3153C75.2596 69.2276 75.3443 69.1838 75.4635 69.1838H75.8047C75.864 69.1838 75.8968 69.1984 75.9041 69.2276C75.9126 69.2569 75.9092 69.2861 75.8934 69.3153L73.861 72.7114L76.0595 76.3144C76.0736 76.3427 76.0759 76.3695 76.0646 76.3914C76.0527 76.4133 76.0256 76.4239 75.9804 76.4239H75.5839C75.4805 76.4239 75.4037 76.3841 75.3517 76.3038L73.5407 73.2348ZM69.2385 76.2924C69.2385 76.3793 69.1978 76.4239 69.1165 76.4239H68.7301C68.6414 76.4239 68.5979 76.3793 68.5979 76.2924V69.3153C68.5979 69.2276 68.6414 69.1838 68.7301 69.1838H69.1165C69.1978 69.1838 69.2385 69.2276 69.2385 69.3153V76.2924ZM67.084 74.3489C67.084 74.0641 67.0394 73.8231 66.9507 73.6218C66.8632 73.4222 66.7473 73.2599 66.6033 73.1366C66.4598 73.0124 66.2954 72.9231 66.1119 72.8688C65.9271 72.8144 65.743 72.7868 65.5594 72.7868H63.7585V75.8542H65.4379C65.9237 75.8542 66.3197 75.735 66.6248 75.494C66.9309 75.2553 67.084 74.8731 67.084 74.3489ZM67.7139 74.3708C67.7139 74.7141 67.6562 75.0111 67.5421 75.2667C67.428 75.5207 67.2733 75.735 67.0784 75.9062C66.8835 76.0758 66.653 76.2056 66.3875 76.2932C66.1226 76.3801 65.8351 76.4247 65.5261 76.4247H63.2609C63.1648 76.4247 63.1174 76.3849 63.1174 76.3046V69.3258C63.1174 69.2382 63.1648 69.1952 63.2609 69.1952H63.6258C63.7145 69.1952 63.7585 69.2382 63.7585 69.3258V72.231H65.6035C66.0158 72.231 66.3581 72.2943 66.6315 72.4217C66.9033 72.5482 67.119 72.7138 67.2766 72.9175C67.4354 73.1219 67.5478 73.3508 67.6144 73.6056C67.6805 73.8612 67.7139 74.116 67.7139 74.3708ZM60.8161 76.26C60.8161 76.3257 60.8064 76.3704 60.7884 76.3914C60.7692 76.4125 60.7308 76.4239 60.6726 76.4239H60.3737C60.315 76.4239 60.2726 76.4125 60.2461 76.3914C60.2207 76.3704 60.2077 76.3257 60.2077 76.26V70.4611L60.1749 70.4498L59.7552 71.4113L57.9317 75.1685C57.895 75.248 57.8397 75.287 57.7668 75.287H57.49C57.4098 75.287 57.3505 75.2521 57.3138 75.1783L55.435 71.3237L55.0597 70.4611H55.026V76.26C55.026 76.3257 55.017 76.3704 54.999 76.3914C54.9801 76.4125 54.9415 76.4239 54.8824 76.4239H54.6065C54.5474 76.4239 54.5055 76.4125 54.4792 76.3914C54.4538 76.3704 54.4406 76.3257 54.4406 76.26V69.3153C54.4406 69.2276 54.4776 69.1838 54.5515 69.1838H54.916C54.9825 69.1838 55.026 69.1919 55.0482 69.2057C55.0704 69.2195 55.0926 69.2569 55.1147 69.3153L57.0483 73.3776L57.6222 74.6443H57.6442L58.2306 73.3557L60.1642 69.338C60.1935 69.2796 60.2246 69.2382 60.2579 69.2179C60.2907 69.196 60.3438 69.1846 60.4178 69.1846H60.6935C60.7748 69.1846 60.8161 69.2285 60.8161 69.3161V76.26ZM48.36 71.2588C48.36 71.6013 48.4233 71.865 48.548 72.05C48.6737 72.2358 48.8231 72.3762 48.9955 72.472C49.1687 72.5661 49.3494 72.6229 49.5374 72.6408C49.7246 72.6586 49.8847 72.6683 50.0177 72.6683H51.498V69.764H50.0062C49.8075 69.764 49.6105 69.7892 49.4151 69.8403C49.2205 69.8914 49.0448 69.9766 48.8904 70.0967C48.7361 70.216 48.6088 70.371 48.5095 70.5601C48.4101 70.7492 48.36 70.9821 48.36 71.2588ZM47.6974 71.2912C47.6974 70.9358 47.7599 70.6234 47.8855 70.3589C48.0103 70.0935 48.1745 69.872 48.3773 69.6983C48.5793 69.5239 48.8133 69.394 49.0785 69.3096C49.3436 69.226 49.6203 69.1846 49.9069 69.1846H51.9956C52.0834 69.1846 52.1278 69.2244 52.1278 69.3048V76.2924C52.1278 76.3793 52.0834 76.4239 51.9956 76.4239H51.6195C51.5383 76.4239 51.498 76.376 51.498 76.2819V73.2348H49.984C49.8297 73.2348 49.6827 73.2502 49.5423 73.2794C49.4028 73.3078 49.2714 73.3606 49.1507 73.4376C49.0292 73.5139 48.9183 73.6194 48.819 73.7541C48.7196 73.8888 48.6367 74.0649 48.5702 74.2824L47.9955 76.2697C47.9742 76.3363 47.9478 76.3776 47.9183 76.3955C47.8888 76.4133 47.8485 76.4231 47.7968 76.4231H47.4988C47.4175 76.4231 47.3715 76.4061 47.36 76.3695C47.3494 76.333 47.351 76.2819 47.3657 76.2162L47.952 74.1964C48.0472 73.9059 48.158 73.6632 48.2829 73.4693C48.4085 73.277 48.5817 73.1284 48.8026 73.027C48.6031 72.9694 48.4339 72.8818 48.2935 72.7657C48.154 72.6497 48.0398 72.5117 47.952 72.3551C47.8633 72.2001 47.7984 72.0305 47.7582 71.8479C47.718 71.6654 47.6974 71.4811 47.6974 71.2912ZM45.4396 71.2588C45.4396 70.7346 45.2853 70.3508 44.9757 70.1065C44.6661 69.863 44.2688 69.7454 43.7827 69.7511H42.2909V72.8639H43.9371C44.0257 72.8639 44.1546 72.8469 44.3238 72.8144C44.4937 72.7812 44.6612 72.7081 44.8271 72.5961C44.9921 72.4825 45.1358 72.321 45.2573 72.11C45.3789 71.899 45.4396 71.615 45.4396 71.2588ZM46.0915 71.2361C46.0915 71.499 46.0512 71.7578 45.97 72.011C45.8887 72.2658 45.7622 72.4963 45.589 72.7C45.4158 72.9045 45.1949 73.07 44.9264 73.1966C44.6572 73.3249 44.3312 73.3873 43.9486 73.3873H42.2909V76.2591C42.2909 76.3249 42.2802 76.3695 42.258 76.3906C42.2359 76.4117 42.1948 76.4231 42.1365 76.4231H41.827C41.7679 76.4231 41.7277 76.4117 41.7055 76.3906C41.6833 76.3695 41.6726 76.3249 41.6726 76.2591V69.3258C41.6726 69.2747 41.6833 69.2382 41.7055 69.2171C41.7277 69.1952 41.772 69.1838 41.8377 69.1838H43.9149C44.2245 69.1838 44.5118 69.2276 44.777 69.3153C45.0422 69.4021 45.2721 69.532 45.4675 69.7024C45.6629 69.8736 45.8156 70.0878 45.9265 70.3418C46.0365 70.5958 46.0915 70.8936 46.0915 71.2361ZM39.3811 76.2924C39.3811 76.3793 39.3409 76.4239 39.2596 76.4239H38.8844C38.7965 76.4239 38.7514 76.3793 38.7514 76.2924V69.7633H35.1503V76.2924C35.1503 76.3793 35.1134 76.4239 35.0395 76.4239H34.6528C34.5723 76.4239 34.5312 76.3793 34.5312 76.2924V69.3153C34.5312 69.2276 34.5723 69.1838 34.6528 69.1838H39.2596C39.3409 69.1838 39.3811 69.2276 39.3811 69.3153V76.2924Z" fill="#2C2929"/>
<path d="M137.502 56.488C137.502 56.3395 137.577 56.2656 137.726 56.2656H138.569C138.653 56.2656 138.707 56.2859 138.733 56.3273C138.758 56.3678 138.772 56.4214 138.772 56.488V63.4343C138.772 63.4935 138.758 63.5438 138.733 63.5844C138.707 63.6258 138.652 63.6461 138.569 63.6461H137.726C137.577 63.6461 137.502 63.5755 137.502 63.4343V60.323H134.669V63.4343C134.669 63.4935 134.655 63.5438 134.629 63.5844C134.603 63.6258 134.548 63.6461 134.466 63.6461H133.623C133.473 63.6461 133.398 63.5755 133.398 63.4343V56.488C133.398 56.3395 133.474 56.2656 133.623 56.2656H134.466C134.549 56.2656 134.603 56.2859 134.629 56.3273C134.655 56.3678 134.669 56.4214 134.669 56.488V59.2219H137.502" fill="#2C2929"/>
<path d="M146.111 62.5461V57.3558H143.851L143.593 60.4224C143.571 60.6967 143.543 60.9393 143.513 61.1495C143.484 61.3613 143.446 61.552 143.4 61.7224C143.356 61.8928 143.299 62.0445 143.232 62.1784C143.165 62.3115 143.082 62.4341 142.984 62.5452L146.111 62.5461ZM146.73 63.6464H142.254C142.239 63.8826 142.224 64.1203 142.209 64.3573C142.193 64.5942 142.179 64.8312 142.163 65.0689C142.155 65.1874 142.132 65.2629 142.091 65.2962C142.048 65.3302 141.987 65.3473 141.905 65.3473H141.275C141.191 65.3473 141.138 65.3319 141.111 65.3018C141.086 65.2726 141.065 65.1947 141.051 65.0689L140.971 62.9128C140.964 62.8163 140.975 62.7456 141.004 62.701C141.034 62.6572 141.098 62.6231 141.196 62.6012L141.521 62.5347C141.641 62.4235 141.746 62.3083 141.835 62.1898C141.926 62.0713 142.001 61.9366 142.061 61.784C142.12 61.6323 142.174 61.4619 142.218 61.2736C142.263 61.0845 142.301 60.8679 142.331 60.6228C142.414 59.9631 142.481 59.2928 142.533 58.6112C142.585 57.9295 142.642 57.2511 142.702 56.5776C142.709 56.4737 142.735 56.3974 142.78 56.3495C142.827 56.3016 142.911 56.2773 143.039 56.2773H147.167C147.308 56.2773 147.38 56.3512 147.38 56.4997V62.5566L147.807 62.6012C147.934 62.6231 147.998 62.7197 147.998 62.8901L147.885 65.0454C147.877 65.1712 147.861 65.2532 147.834 65.2913C147.808 65.3278 147.757 65.3465 147.682 65.3465H147.007C146.925 65.3465 146.871 65.3294 146.845 65.2953C146.818 65.2621 146.802 65.1858 146.794 65.0681L146.73 63.6464Z" fill="#2C2929"/>
</g>
</svg>
