<svg width="148" height="127" viewBox="0 0 148 127" fill="none" xmlns="http://www.w3.org/2000/svg">
<path d="M52.2737 43H59.9941V82.5765H52.2578V43H52.2737Z" fill="#42444A"/>
<path d="M65.0508 43H72.787V82.5765H65.0508V43Z" fill="#42444A"/>
<path d="M94.7914 54.3105H102.528V70.8778C102.528 79.0722 97.3278 83.5994 90.8124 83.5994H89.3697C82.8541 83.5994 77.6543 79.0722 77.6543 70.8778V54.3105H85.3906V71.2186C85.3906 74.3827 87.4356 76.2488 89.8611 76.2488H90.3051C92.7305 76.2488 94.7756 74.3827 94.7756 71.2186V54.3105H94.7914Z" fill="#42444A"/>
<path d="M106.617 82.576V66.0087C106.617 57.7007 112.086 53.2871 118.602 53.2871H119.49C126.291 53.2871 131.744 58.3822 131.744 66.2846V66.9661L124.071 67.3068L124.024 66.171C123.865 62.2767 121.646 60.6864 119.268 60.6864H119.046C116.62 60.6864 114.353 62.3901 114.353 66.0574V82.5598H106.617V82.576Z" fill="#42444A"/>
<path d="M32.2189 76.1518C28.0337 76.1518 24.7838 72.8903 24.7838 68.4928C24.7838 64.0955 28.0337 60.8339 32.2189 60.8339C36.626 60.8339 39.9234 64.0468 39.9234 68.4928C39.9234 73.0687 36.626 76.1518 32.2189 76.1518ZM31.4421 83.259C39.3052 83.259 43.7123 78.5858 43.9818 72.1601C44.1403 69.288 47.2792 70.5211 47.2792 68.4928C47.2792 59.9902 40.51 53.5645 32.1396 53.5645C23.7217 53.5645 17 59.9902 17 68.4928C17.0317 77.0605 23.5314 83.259 31.4421 83.259ZM40.9063 82.5775H47.295V68.4441H40.3674L40.9063 82.5775Z" fill="#42444A"/>
</svg>
