<svg width="148" height="127" viewBox="0 0 148 127" fill="none" xmlns="http://www.w3.org/2000/svg">
<path d="M49.0647 48.1879H21.2535L23.257 42.7646H51.0682L49.0647 48.1879ZM48.063 50.8995H20.2392L18.2357 56.3228H46.0469L48.063 50.8995ZM45.0577 59.0098H17.234L15.2305 64.4331H43.0166L45.0577 59.0098Z" fill="#42444A"/>
<path d="M115.331 78.0036H120.339C121.051 78.0873 121.773 77.9972 122.441 77.7414C123.11 77.4857 123.704 77.072 124.171 76.5368C124.858 75.6518 125.204 74.5556 125.148 73.4431C125.195 72.7352 125.063 72.0269 124.763 71.3815C124.464 70.7362 124.007 70.1741 123.432 69.7454C122.502 69.1466 121.397 68.8691 120.289 68.9566H115.331V78.0036ZM108.757 83.4638V50.8996H130.282L128.391 56.3598H115.331V63.5703H120.652C124.947 63.5703 127.176 64.581 128.716 65.8752C129.818 66.835 130.684 68.0278 131.25 69.3641C131.816 70.7004 132.067 72.1455 131.985 73.591C132.069 75.1476 131.757 76.7004 131.077 78.1082C130.397 79.5159 129.37 80.7341 128.09 81.652C126.024 83.0571 123.858 83.4515 119.45 83.4515L108.757 83.4638ZM89.6982 83.4638V56.3475H80.1314V50.8996H106.69L104.8 56.3598H96.3348V83.4762L89.6982 83.4638ZM63.1892 63.9401H66.9458C67.7141 63.9917 68.486 63.9336 69.2373 63.7675C70.0187 63.5218 70.6922 63.0221 71.1472 62.3502C71.6022 61.6784 71.8118 60.8743 71.7417 60.0698C71.8459 59.2705 71.6485 58.4612 71.1869 57.7956C70.7253 57.1299 70.0316 56.6541 69.2373 56.4584C68.417 56.271 67.5741 56.1963 66.7329 56.2366H63.1892V63.9401ZM63.1892 69.5729V78.1145H67.7723C69.0353 78.2566 70.3052 77.9121 71.316 77.1531C71.7818 76.7283 72.1467 76.2076 72.3848 75.6282C72.6229 75.0487 72.7282 74.4247 72.6934 73.8006C72.7133 72.8034 72.4059 71.8265 71.8168 71.015C70.8401 69.7824 69.638 69.5482 67.5844 69.5482L63.1892 69.5729ZM73.7828 66.134V66.245C74.8992 66.668 75.9425 67.2584 76.8757 67.9952C77.819 68.7658 78.5645 69.7443 79.0518 70.8514C79.5392 71.9586 79.7546 73.1632 79.6806 74.3675C79.6806 78.8171 77.2764 82.0341 73.332 82.9955C71.7597 83.3738 70.1403 83.5274 68.5236 83.4515H56.6152V50.8996H67.2088C68.8913 50.839 70.5748 50.9923 72.2175 51.3556C76.0493 52.3663 78.5662 54.967 78.5662 59.0715C78.5975 60.05 78.426 61.0246 78.0621 61.9358C77.6983 62.847 77.1498 63.6757 76.45 64.3715C75.7068 65.1143 74.8216 65.7049 73.8454 66.1094L73.7828 66.134Z" fill="#42444A"/>
</svg>
