<svg width="148" height="127" viewBox="0 0 148 127" fill="none" xmlns="http://www.w3.org/2000/svg">
<path d="M62.1182 60.838H66.8195V48.1676H73.0279V43.8198H62.1182V60.838Z" fill="#42444A"/>
<path d="M52.4061 57.044C51.8924 57.0678 51.3793 56.9843 50.8997 56.7987C50.4201 56.6132 49.9845 56.3299 49.6207 55.9666C49.257 55.6034 48.9733 55.1685 48.7876 54.6894C48.6018 54.2105 48.5182 53.698 48.542 53.185H60.1344C60.1344 53.185 60.2116 52.3103 60.2116 51.4098C60.2116 46.2645 57.159 43.4346 52.3932 43.4346C47.357 43.4346 43.8535 47.1006 43.8535 52.336C43.8535 57.5713 47.3055 61.3403 52.3417 61.3403C57.0173 61.3403 60.1601 58.639 60.2504 54.6771H55.652C55.5136 55.4098 55.101 56.0622 54.498 56.5019C53.8951 56.9415 53.1471 57.1353 52.4061 57.044ZM52.4061 47.3451C52.7935 47.2911 53.1878 47.3152 53.5656 47.4161C53.9434 47.5171 54.2971 47.6926 54.6058 47.9326C54.9145 48.1725 55.1718 48.4718 55.3626 48.8127C55.5533 49.1537 55.6736 49.5295 55.7164 49.9177H48.7996C49.0324 49.1415 49.5196 48.4658 50.183 47.9992C50.8463 47.5327 51.6474 47.3023 52.4576 47.3451H52.4061Z" fill="#42444A"/>
<path d="M35.6621 43.8198L32.4291 54.2519L29.2863 43.8198H24.0955L21.3906 60.838H25.7056L27.3414 50.2515L30.5228 60.838H34.2196L37.5169 50.0585L39.0883 60.838H43.4677L40.7757 43.8198H35.6621Z" fill="#42444A"/>
<path d="M81.6456 43.4087C76.6351 43.4087 73.7885 45.8656 73.9173 50.0462H78.7861C78.7861 48.2711 79.7135 47.4735 81.6585 47.4735C83.0495 47.4735 83.9254 48.0524 83.9254 48.9271C83.9254 49.4931 83.7064 49.7118 82.8563 49.9561L78.9921 51.0238C75.2311 52.0399 73.5566 53.5964 73.5566 56.1691C73.5566 59.2176 75.7721 61.2501 79.0309 61.2501C80.0711 61.3542 81.1175 61.1263 82.0201 60.5995C82.9226 60.0725 83.6347 59.2736 84.0542 58.3173V60.8899H88.5494V49.5316C88.485 45.4282 85.8832 43.4087 81.6456 43.4087ZM79.9711 57.2882C78.7732 57.2882 78.1936 56.7094 78.1936 55.8603C78.1936 55.0114 78.6058 54.5741 79.8938 54.1753L83.9641 53.0304V53.3392C83.9766 53.8644 83.8816 54.3868 83.6849 54.8742C83.4882 55.3615 83.1939 55.8036 82.82 56.1733C82.4462 56.5431 82.0007 56.8327 81.5108 57.0244C81.0209 57.216 80.497 57.3059 79.9711 57.2882Z" fill="#42444A"/>
<path d="M111.593 65.3794V69.7272H116.462V82.3974H121.163V69.7272H126.032V65.3794H111.593Z" fill="#42444A"/>
<path d="M94.6667 65.3794H89.4887L85.8307 71.6952H83.963V65.3794H79.2617V82.3974H83.963V75.8759H85.8049L89.7335 82.3974H95.0401L89.8494 73.7148L94.6667 65.3794Z" fill="#42444A"/>
<path d="M52.7032 64.9678C47.6927 64.9678 44.8332 67.4247 44.9749 71.6053H49.8437C49.8437 69.8301 50.7711 69.0326 52.716 69.0326C54.1071 69.0326 54.983 69.6243 54.983 70.499C54.983 71.0521 54.764 71.2708 53.901 71.5153L50.037 72.5828C46.2887 73.612 44.6143 75.1556 44.6143 77.7282C44.6143 80.7639 46.8297 82.8092 50.0885 82.8092C51.1298 82.9217 52.1797 82.696 53.0822 82.1653C53.9849 81.6347 54.6921 80.8274 55.0989 79.8634V82.4362H59.607V71.0392C59.5426 66.9874 56.9408 64.9678 52.7032 64.9678ZM51.0029 78.8473C49.8308 78.8473 49.2383 78.2684 49.2383 77.4066C49.2383 76.5448 49.6634 76.1203 50.9514 75.7601L55.0088 74.6152V74.8982C55.0215 75.4246 54.926 75.9481 54.7286 76.4364C54.531 76.9246 54.2356 77.3674 53.8603 77.7372C53.4851 78.1072 53.0381 78.3965 52.5466 78.5874C52.0551 78.7783 51.5298 78.8667 51.0029 78.8473Z" fill="#42444A"/>
<path d="M71.0311 64.968C70.0489 64.9066 69.0727 65.1605 68.2452 65.6929C67.4179 66.2252 66.7828 67.0079 66.4328 67.9266V65.3539H61.7314V87.0414H66.4328V79.8895C66.7951 80.7949 67.4352 81.5626 68.2613 82.0826C69.0872 82.6025 70.0569 82.8478 71.0311 82.7837C74.8952 82.7837 77.4714 79.7737 77.4714 73.8823C77.4714 67.9908 74.9338 64.968 71.0311 64.968ZM69.7431 78.4359C67.592 78.4359 66.304 76.9695 66.304 73.8823C66.304 70.7951 67.592 69.3158 69.7174 69.3158C71.8426 69.3158 72.8988 70.7951 72.8988 73.8823C72.8988 76.9695 71.8168 78.4359 69.7174 78.4359H69.7431Z" fill="#42444A"/>
<path d="M35.6621 65.3794L32.4291 75.7986L29.2863 65.3794H24.0955L21.3906 82.3974H25.7056L27.3414 71.811L30.5228 82.3974H34.2196L37.5169 71.6181L39.0883 82.3974H43.4677L40.7757 65.3794H35.6621Z" fill="#42444A"/>
<path d="M102.679 78.6035C102.165 78.6253 101.653 78.5405 101.174 78.3542C100.696 78.1681 100.261 77.8846 99.8976 77.5218C99.5343 77.159 99.2505 76.7248 99.064 76.2467C98.8776 75.7686 98.7926 75.2571 98.8145 74.7445H110.407C110.407 74.7445 110.484 73.8698 110.484 72.9693C110.484 67.8241 107.444 64.9941 102.666 64.9941C97.6295 64.9941 94.126 68.6601 94.126 73.8827C94.126 79.1051 97.578 82.887 102.614 82.887C107.29 82.887 110.433 80.1857 110.536 76.2237H105.924C105.789 76.9588 105.377 77.6144 104.774 78.0566C104.171 78.4989 103.421 78.6945 102.679 78.6035ZM102.679 68.9046C103.066 68.8523 103.461 68.8777 103.839 68.9792C104.217 69.0807 104.57 69.2563 104.88 69.4958C105.189 69.7352 105.448 70.0337 105.64 70.3738C105.833 70.7141 105.956 71.0891 106.002 71.4772H99.0721C99.3028 70.6998 99.7895 70.0228 100.453 69.5559C101.117 69.0891 101.919 68.8595 102.73 68.9046H102.679Z" fill="#42444A"/>
</svg>
