<svg width="148" height="127" viewBox="0 0 148 127" fill="none" xmlns="http://www.w3.org/2000/svg">
<path fill-rule="evenodd" clip-rule="evenodd" d="M18.22 39.0977C17.7534 39.1012 17.168 39.1073 16.3725 39.1171C15.1027 39.1509 14.1394 39.2284 13.1954 39.3975C12.0451 39.6033 11.0037 39.9421 10.008 40.4481C8.99615 40.9611 8.06953 41.6324 7.26558 42.435C6.46253 43.235 5.78863 44.16 5.27176 45.1722C4.76373 46.1675 4.42354 47.2086 4.21529 48.3614C4.04523 49.305 3.96807 50.264 3.93434 51.5177L3.92277 52.0399C3.9197 52.2192 3.91733 52.4048 3.91566 52.6001L3.91016 53.7346L3.91023 72.2895L3.91364 73.0986C3.91629 73.6139 3.92263 74.0572 3.93434 74.4831C3.96814 75.7358 4.0453 76.6951 4.21522 77.6372C4.42361 78.7909 4.76387 79.8326 5.27169 80.8274C5.78877 81.8391 6.46239 82.7638 7.26613 83.5654C8.07086 84.3679 8.99755 85.0395 10.0092 85.5524C11.0037 86.0578 12.0451 86.3965 13.1958 86.6023C14.0536 86.7561 14.9277 86.8341 16.0185 86.8722L16.836 86.8923C17.2611 86.8983 17.8893 86.9016 19.1436 86.9055L36.9301 86.9027C37.4016 86.8995 37.9714 86.8935 38.8416 86.8828C40.1115 86.8489 41.0747 86.7715 42.0188 86.6023C43.1691 86.3965 44.2105 86.0578 45.2062 85.5518C46.217 85.0389 47.1441 84.3672 47.948 83.5654C48.7523 82.7633 49.426 81.8382 49.9418 80.8271C50.4502 79.8328 50.7908 78.7903 50.9983 77.6366C51.1529 76.7795 51.2313 75.9057 51.2695 74.8158L51.2798 74.4822C51.2869 74.2272 51.292 73.9656 51.2954 73.6861L51.3037 71.4869L51.3023 53.298L51.2954 52.3137C51.292 52.0342 51.2869 51.7723 51.2798 51.5167C51.2462 50.2691 51.1683 49.3063 50.9982 48.362C50.7908 47.2091 50.4504 46.1673 49.9412 45.1715C49.4261 44.1609 48.7521 43.2355 47.9474 42.4338C47.1454 41.6331 46.2184 40.9617 45.2054 40.4477C44.2105 39.9421 43.1691 39.6033 42.0184 39.3975C41.1605 39.2438 40.2865 39.1657 39.1956 39.1277L38.2568 39.106C38.1821 39.1051 38.1012 39.1043 38.0123 39.1035L18.22 39.0977Z" fill="#272628" fill-opacity="0.01"/>
<path fill-rule="evenodd" clip-rule="evenodd" d="M16.3885 40.5232L18.2965 40.5034L38.1484 40.5112C38.4494 40.5142 38.6366 40.518 38.8238 40.5232C39.808 40.5495 40.8007 40.6077 41.774 40.7821C42.7621 40.9589 43.681 41.2481 44.5781 41.704C45.4597 42.1513 46.2674 42.7359 46.9671 43.4345C47.6668 44.1315 48.2529 44.9363 48.7015 45.8162C49.1593 46.7117 49.4486 47.6282 49.6258 48.6136C49.8008 49.5843 49.859 50.5743 49.8854 51.5559C49.8979 52.0063 49.9034 52.4568 49.9057 52.908L49.9084 53.7102L49.9088 71.4869C49.9088 72.0219 49.9088 72.5569 49.9057 73.0926C49.9034 73.5431 49.8979 73.9935 49.8854 74.444C49.859 75.4248 49.8008 76.4156 49.6258 77.3855C49.4486 78.3709 49.1593 79.2881 48.7015 80.1836C48.2529 81.0628 47.6668 81.8676 46.9671 82.5654C46.2674 83.2632 45.4597 83.8485 44.5781 84.2959C43.681 84.7518 42.7621 85.041 41.774 85.2177C40.8007 85.3922 39.808 85.4503 38.8238 85.4767L35.8587 85.5L17.0633 85.4887C16.7623 85.4856 16.5755 85.4818 16.3885 85.4767C15.4043 85.4503 14.4116 85.3922 13.4383 85.2177C12.4502 85.041 11.5313 84.7518 10.6342 84.2959C9.75184 83.8485 8.94489 83.2632 8.2452 82.5654C7.54558 81.8676 6.95936 81.0628 6.51003 80.1836C6.05295 79.2881 5.76371 78.3709 5.5857 77.3855C5.41076 76.4156 5.35326 75.4248 5.32685 74.444C5.31437 73.9935 5.30894 73.5431 5.30664 73.0926L5.30322 72.2894L5.30273 54.513C5.30273 53.978 5.30273 53.4423 5.30664 52.908C5.30894 52.4568 5.31437 52.0063 5.32685 51.5559C5.35326 50.5743 5.41076 49.5843 5.5857 48.6136C5.76371 47.6282 6.05295 46.7117 6.51003 45.8162C6.95936 44.9363 7.54558 44.1315 8.2452 43.4345C8.94489 42.7359 9.75184 42.1513 10.6342 41.704C11.5313 41.2481 12.4502 40.9589 13.4383 40.7821C14.4116 40.6077 15.4043 40.5495 16.3885 40.5232Z" fill="#272628" fill-opacity="0.01"/>
<mask id="mask0_1465_1857" style="mask-type:alpha" maskUnits="userSpaceOnUse" x="5" y="40" width="45" height="46">
<path fill-rule="evenodd" clip-rule="evenodd" d="M16.3885 40.5232L18.2965 40.5034L38.1484 40.5112C38.4494 40.5142 38.6366 40.518 38.8238 40.5232C39.808 40.5495 40.8007 40.6077 41.774 40.7821C42.7621 40.9589 43.681 41.2481 44.5781 41.704C45.4597 42.1513 46.2674 42.7359 46.9671 43.4345C47.6668 44.1315 48.2529 44.9363 48.7015 45.8162C49.1593 46.7117 49.4486 47.6282 49.6258 48.6136C49.8008 49.5843 49.859 50.5743 49.8854 51.5559C49.8979 52.0063 49.9034 52.4568 49.9057 52.908L49.9084 53.7102L49.9088 71.4869C49.9088 72.0219 49.9088 72.5569 49.9057 73.0926C49.9034 73.5431 49.8979 73.9935 49.8854 74.444C49.859 75.4248 49.8008 76.4156 49.6258 77.3855C49.4486 78.3709 49.1593 79.2881 48.7015 80.1836C48.2529 81.0628 47.6668 81.8676 46.9671 82.5654C46.2674 83.2632 45.4597 83.8485 44.5781 84.2959C43.681 84.7518 42.7621 85.041 41.774 85.2177C40.8007 85.3922 39.808 85.4503 38.8238 85.4767L35.8587 85.5L17.0633 85.4887C16.7623 85.4856 16.5755 85.4818 16.3885 85.4767C15.4043 85.4503 14.4116 85.3922 13.4383 85.2177C12.4502 85.041 11.5313 84.7518 10.6342 84.2959C9.75184 83.8485 8.94489 83.2632 8.2452 82.5654C7.54558 81.8676 6.95936 81.0628 6.51003 80.1836C6.05295 79.2881 5.76371 78.3709 5.5857 77.3855C5.41076 76.4156 5.35326 75.4248 5.32685 74.444C5.31437 73.9935 5.30894 73.5431 5.30664 73.0926L5.30322 72.2894L5.30273 54.513C5.30273 53.978 5.30273 53.4423 5.30664 52.908C5.30894 52.4568 5.31437 52.0063 5.32685 51.5559C5.35326 50.5743 5.41076 49.5843 5.5857 48.6136C5.76371 47.6282 6.05295 46.7117 6.51003 45.8162C6.95936 44.9363 7.54558 44.1315 8.2452 43.4345C8.94489 42.7359 9.75184 42.1513 10.6342 41.704C11.5313 41.2481 12.4502 40.9589 13.4383 40.7821C14.4116 40.6077 15.4043 40.5495 16.3885 40.5232Z" fill="white"/>
</mask>
<g mask="url(#mask0_1465_1857)">
<path d="M49.9088 40.4995H5.30273V85.4995H49.9088V40.4995Z" fill="#42444A"/>
<path fill-rule="evenodd" clip-rule="evenodd" d="M5.30273 40.4995H49.9088V55.2651L5.30273 48.2339V40.4995Z" fill="#42444A"/>
<path fill-rule="evenodd" clip-rule="evenodd" d="M5.30273 80.5776L49.9088 73.5464V85.4995H5.30273V80.5776Z" fill="#42444A"/>
<path fill-rule="evenodd" clip-rule="evenodd" d="M5.30273 47.3447L20.8728 49.799C22.811 48.5613 25.1169 47.8827 27.6058 47.8827C31.053 47.8827 34.1491 49.1845 36.4035 51.4705C36.688 51.759 36.9564 52.0607 37.208 52.3739L49.9088 54.3759V56.155L38.4977 54.3564C39.3454 55.9976 39.8027 57.8262 39.8027 59.6924C39.8027 62.1033 39.2682 64.5071 38.1632 66.9204L38.1296 66.9936L37.6603 68.008H36.5506C34.2592 68.008 32.7392 68.6995 31.7454 69.925C30.9651 70.8872 30.5139 72.1844 30.3621 73.5997L30.3575 73.6439L30.3352 73.87L30.3258 73.9684L30.3078 74.1609C30.2497 74.7928 30.2108 75.3286 30.1911 75.7653L49.9088 72.6572V74.4363L5.30273 81.4675V79.6884L25.0427 76.5768L25.0339 76.1774L25.0314 76.0647L25.0297 76.007L25.0267 75.9178C25.0089 75.4335 24.9649 74.8127 24.8944 74.0602L24.8809 73.9176L24.8568 73.6705C24.7151 72.2477 24.2706 70.9341 23.4924 69.9576C22.509 68.7238 21.003 68.0222 18.73 68.0082L18.6609 68.008H17.5512L17.0819 66.9936C15.9542 64.5556 15.4088 62.1276 15.4088 59.6924C15.4088 56.6299 16.6403 53.6686 18.808 51.4705C18.8706 51.4071 18.9338 51.3444 18.9976 51.2825L5.30273 49.1238V47.3447Z" fill="white"/>
<path fill-rule="evenodd" clip-rule="evenodd" d="M27.6057 49.6401C33.8331 49.6401 38.0602 54.4757 38.0602 59.692C38.0602 61.7862 37.6073 63.9653 36.5505 66.2498C30.4228 66.2498 28.9102 70.677 28.6242 73.4625L28.6059 73.6481C28.509 74.6423 28.4529 75.44 28.4376 76.0414L26.7779 76.3029L26.7775 76.2488C26.7712 75.6184 26.7122 74.7342 26.6004 73.596L26.5954 73.5464C26.3313 70.7669 24.8505 66.2498 18.6608 66.2498C17.604 63.9653 17.1511 61.7862 17.1511 59.692C17.1511 54.4757 21.3782 49.6401 27.6057 49.6401Z" fill="white"/>
</g>
<path fill-rule="evenodd" clip-rule="evenodd" d="M70.5396 51.3984C65.1032 51.3984 61.0259 54.7383 61.0608 60.5391H66.1138C66.0441 58.2188 67.5077 55.9688 70.5396 55.9688C72.8396 55.9688 74.3032 57.5156 74.3032 59.4844C74.3032 61.5234 72.7002 62.6484 70.1214 63.9141C66.7411 65.5664 64.7199 66.3398 61.0608 67.5703V74.25H79.879V69.6797H67.8911C69.6377 68.9451 71.3383 68.1385 72.8744 67.3945C76.9517 65.4258 79.3562 63.2109 79.3562 59.2383C79.3562 54.457 75.8017 51.3984 70.5396 51.3984ZM87.5456 56.3203H97.3032V51.75H82.6668V74.25H87.5456V56.3203ZM104.97 51.75H100.091V74.25H104.935L114.03 59.8711V74.25H118.909V51.75H114.03L104.97 66.1289V51.75ZM143.408 65.8125H138.355C137.588 68.3086 135.253 70.0312 132.5 70.0312C128.493 70.0312 125.879 66.5508 125.879 63C125.879 59.4492 128.423 55.9688 132.64 55.9688C135.427 55.9688 137.588 57.6914 138.355 60.1875H143.408C142.676 55.1602 138.738 51.3984 132.5 51.3984C125.6 51.3984 121 56.2852 121 63C121 69.7148 125.6 74.6016 132.5 74.6016C138.738 74.6016 142.676 70.9102 143.408 65.8125Z" fill="#42444A"/>
</svg>
