<svg width="148" height="127" viewBox="0 0 148 127" fill="none" xmlns="http://www.w3.org/2000/svg">
<mask id="mask0_1465_2063" style="mask-type:luminance" maskUnits="userSpaceOnUse" x="1" y="50" width="147" height="28">
<path d="M148 50.8574H1V77.8083H148V50.8574Z" fill="white"/>
</mask>
<g mask="url(#mask0_1465_2063)">
<path d="M24.6312 59.3711H25.1388C26.8549 59.3711 28.2488 60.749 28.2488 62.4453V66.2204C28.2488 67.9168 26.8549 69.2946 25.1388 69.2946H21.0619C20.0951 69.2946 19.6359 69.7803 19.6359 70.7042V74.7341C19.6359 76.4305 18.242 77.8083 16.5259 77.8083H12.7068C10.9907 77.8083 9.59684 76.4305 9.59684 74.7341C9.59684 74.7341 9.59684 71.7157 9.59684 70.7042C9.59684 69.7007 9.09728 69.2946 8.16267 69.2946H4.11001C2.39386 69.2866 1 67.9088 1 66.2124V62.4373C1 60.741 2.39386 59.3632 4.11001 59.3632H8.17879C9.08117 59.3632 9.61295 58.8614 9.61295 57.9297V53.9316C9.61295 52.2352 11.0068 50.8574 12.723 50.8574H16.542C18.2581 50.8574 19.652 52.2352 19.652 53.9316V57.9376C19.652 58.9172 20.0145 59.3711 21.0539 59.3711H21.7709L19.6761 62.1985C18.0728 62.071 16.7917 60.741 16.7917 59.1243V55.1103C16.7917 54.1307 16.4131 53.6847 15.3495 53.6847H13.8993C12.9969 53.6847 12.4731 54.1626 12.4731 55.1103V59.1243C12.4731 60.8206 11.0793 62.1985 9.36314 62.1985H5.30244C4.25503 62.1985 3.86024 62.8754 3.86024 63.632V65.0497C3.86024 65.9018 4.38394 66.4673 5.28633 66.4673H9.36314C11.0793 66.4673 12.4731 67.8451 12.4731 69.5415V73.5634C12.4731 74.4713 12.9324 74.981 13.8832 74.981H15.3415C16.2438 74.981 16.7836 74.4394 16.7836 73.5474V69.5415C16.7836 67.8451 18.1775 66.4673 19.8937 66.4673H23.9705C24.9534 66.4673 25.3966 65.9735 25.3966 65.0337V63.6161C25.3966 62.6444 24.8809 62.1985 23.9383 62.1985H22.5363L24.6312 59.3711Z" fill="#42444A"/>
<path d="M60.3371 56.5312L66.8277 72.1344H63.8303L62.3206 68.4338H55.0862L53.5986 72.1344H50.739L57.1359 56.5312H60.3371ZM56.1 65.8724H61.2848L58.6952 59.4742L56.1 65.8724Z" fill="#42444A"/>
<path d="M80.2776 59.0981H71.8751V72.1344H69.0596V56.5312H83.0986V72.1344H80.2831V59.0981H80.2776Z" fill="#42444A"/>
<path d="M98.8192 59.0986H93.5023V72.1348H90.6869V59.0986H85.458V56.5371H98.8192V59.0986Z" fill="#42444A"/>
<path d="M111.26 65.3819H104.004V69.5729H112.34V72.1344H101.188V56.5312H112.092V59.0927H104.004V62.815H111.26V65.3819Z" fill="#42444A"/>
<path d="M48.36 65.3819H41.1036V69.5729H49.4399V72.1344H38.2881V56.5312H49.192V59.0927H41.1036V62.815H48.36V65.3819Z" fill="#42444A"/>
<path d="M118.51 72.1344H115.694V56.5312H118.51V63.0821H120.874L125.943 56.5312H129.37L123.353 63.954L130.34 72.1344H126.736L121.011 65.3819H118.51V72.1344Z" fill="#42444A"/>
<path d="M140.217 56.5312L146.708 72.1344H143.71L142.201 68.4338H134.967L133.479 72.1344H130.619L137.017 56.5312H140.217ZM135.98 65.8724H141.165L138.575 59.4742L135.98 65.8724Z" fill="#42444A"/>
</g>
</svg>
