<svg width="148" height="127" viewBox="0 0 148 127" fill="none" xmlns="http://www.w3.org/2000/svg">
<path fill-rule="evenodd" clip-rule="evenodd" d="M48.3102 68.3031C48.226 69.7119 47.826 70.4269 46.4592 70.4269L46.2487 71.0997H52.621L52.8104 70.4269C51.5068 70.4269 51.57 69.3961 51.6323 68.4285L52.6841 54.3796C51.8218 54.7367 50.434 55.3262 49.3401 55.4314L40.9072 68.0925C40.2344 69.1022 39.3299 70.2163 38.0474 70.4269L37.8369 71.0997H42.6958L42.8845 70.4269C40.908 70.4269 41.7485 68.9961 42.359 68.0285L43.4318 66.3881H48.4374L48.3102 68.3031ZM49.0041 58.607L48.4988 65.1898H44.2714L48.6251 58.6904L49.0041 58.607ZM66.9023 68.4285C66.4602 70.0058 65.8716 70.4892 64.189 70.4892L63.9785 71.0997H71.6131L71.8236 70.4892C70.12 70.5321 69.8893 69.9216 70.2884 68.4285L73.464 57.3657C73.9053 55.7885 74.4737 55.3051 76.1563 55.3051L76.2826 54.7165H63.8101L63.5995 55.3051C65.6181 55.3051 65.1137 56.7771 64.6303 58.0596L60.4661 68.8277C60.1503 69.6269 59.0985 70.3208 58.4888 70.2576C57.858 70.2155 57.2686 69.6892 57.2484 69.0584C57.2062 68.1751 58.1949 67.8172 58.594 67.8172C58.594 67.061 57.7528 66.3662 56.8694 66.4302C55.986 66.4925 55.0184 67.3557 55.0184 68.554C55.0184 70.0462 56.1544 71.4138 57.7949 71.4138C59.4134 71.4138 61.0538 70.762 61.6644 69.1629L65.8707 58.2264C66.6067 56.3131 67.6585 55.4508 68.8358 55.492C69.8876 55.5131 70.2867 56.5859 70.035 57.5106L66.9023 68.4285ZM91.6149 59.343H92.0772L93.3387 54.7165H79.5213L78.0493 59.343H78.5967C79.5424 57.3657 82.3811 55.4946 84.5689 55.4306L80.7205 68.4285C80.2371 70.1321 79.4801 70.4269 77.7142 70.4269L77.5878 71.0997H85.8953L86.0199 70.4269C84.318 70.4269 83.6645 70.1532 84.1698 68.4285L87.9559 55.4306C90.1429 55.4314 91.6149 57.2394 91.6149 59.343ZM102.005 57.3657C102.405 55.9569 102.972 55.3051 104.549 55.3051L104.738 54.7165H97.2511L97.0195 55.3051C98.7021 55.3051 98.9968 55.8306 98.5758 57.3657L95.4423 68.4285C94.8966 70.4269 92.6658 70.4892 92.6658 70.4892L92.5395 71.0997H100.027L100.218 70.4892C98.8511 70.4892 98.2819 69.9637 98.7652 68.5549L107.2 59.0693L104.551 68.4277C104.151 69.8374 103.519 70.4883 101.942 70.4883L101.817 71.0989H109.325L109.472 70.4883C107.852 70.4883 107.495 69.9839 107.916 68.4277L111.111 57.3649C111.532 55.8718 112.143 55.3043 113.826 55.3043L114.036 54.7156H106.528L106.338 55.3043C107.516 55.3043 107.957 55.5148 107.852 56.6289V56.9649L99.4406 66.2399L102.005 57.3657ZM122.088 57.3657C122.488 55.9982 122.761 55.3683 124.34 55.3051L124.465 54.7165H117.315L117.105 55.3051C118.787 55.3051 119.082 55.7464 118.618 57.3657L115.443 68.4285C115.042 69.9006 114.328 70.4892 112.729 70.4892L112.583 71.0997H120.11L120.3 70.4892C118.66 70.4892 118.514 69.7953 118.892 68.4285L120.153 64.138L121.499 62.9809L124.443 68.5549C124.864 69.354 124.318 70.4269 123.33 70.4269L123.119 71.0155H130.039L130.228 70.4269C128.967 70.3006 128.608 69.4382 128.104 68.4285L124.214 60.7098L128.398 57.0921C129.387 56.2508 130.272 55.3683 131.658 55.3043L131.848 54.7156H126.486L126.296 55.3043C128.336 55.3043 127.053 56.9447 126.338 57.5333L120.701 62.1186L122.088 57.3657ZM142.237 68.3031C142.152 69.69 141.731 70.4269 140.387 70.4269L140.197 71.0997H146.57L146.76 70.4269C145.391 70.4269 145.518 69.4172 145.582 68.4285L146.633 54.3796C145.686 54.8007 144.383 55.3262 143.31 55.4314L134.835 68.0925C134.162 69.1022 133.278 70.2163 131.996 70.4269L131.806 71.0997H136.622L136.833 70.4269C134.793 70.4269 135.698 68.9961 136.307 68.0285L137.379 66.3881H142.385L142.237 68.3031ZM142.973 58.607L142.447 65.1898H138.242L142.574 58.6904L142.973 58.607ZM29.7821 62.3931C31.4436 62.3931 32.9577 63.2546 32.9577 65.0012C32.9577 67.7776 30.6436 70.1751 27.9732 70.1751C27.532 70.1751 27.2162 69.7338 27.3425 69.2917L29.2558 62.3931H29.7821ZM25.9959 54.7165L25.8705 55.0735C24.3976 55.62 22.8414 56.0613 21.3071 55.9779C17.9841 55.8516 14.8296 53.9594 11.4847 54.0007C8.43458 54.0638 4.88087 56.1245 3.85097 59.3009C5.57561 57.9973 8.22489 56.7982 10.518 56.7139C13.862 56.6087 16.9955 58.4807 20.3403 58.5649C22.4852 58.607 25.3248 57.2824 26.5021 55.3683C27.8056 55.5358 27.6591 56.3569 27.3854 57.3657L24.2098 68.4285C23.7677 70.0058 23.137 70.4892 21.4123 70.4892L21.265 71.0997H29.3829C32.4954 71.0997 36.4289 69.1646 36.4289 65.7372C36.4289 62.6028 33.0427 61.4677 30.4558 61.4677H29.5934L31.2339 55.6209H32.0962C35.2297 55.6209 36.828 56.2104 37.7324 59.2596H38.1948L37.6903 54.7165H25.9959ZM9.54869 60.3948C12.8927 60.3527 16.0481 62.2449 19.3913 62.3712C21.2633 62.4555 23.1345 61.8037 24.9012 61.0887C24.0389 63.3607 20.7993 65.0433 18.4237 64.9801C15.0797 64.895 11.9251 63.0247 8.60216 63.1081C6.28888 63.1704 3.78697 64.3485 1.93517 65.7153C2.90275 62.6028 6.4152 60.458 9.54869 60.3948ZM7.63541 66.8092C10.9584 66.7671 14.1129 68.6601 17.4569 68.7864C19.329 68.8706 21.201 68.218 22.9879 67.5039C22.1046 69.7751 18.8869 71.4576 16.4894 71.3945C13.1664 71.3102 9.98996 69.4172 6.66699 69.5224C4.33266 69.6067 1.85096 70.7637 0 72.1305C0.98948 69.0172 4.48087 66.8723 7.63541 66.8092Z" fill="#42444A"/>
<path fill-rule="evenodd" clip-rule="evenodd" d="M39.2027 72.1937L38.6562 71.6472H43.5151L44.0617 72.1937H39.2027ZM147.453 54.9473L147.999 55.4736L147.053 68.4918C147.032 68.997 147.011 69.669 147.326 70.1112C146.589 69.3549 146.36 69.2278 146.443 68.2181L147.453 54.9473ZM141.563 72.1937L141.017 71.6472H147.389L147.936 72.1937H141.563ZM140.658 64.6854L139.944 64.4749L141.857 61.5511L141.71 63.1292L140.658 64.6854ZM136.999 70.0278C136.074 69.312 137.841 67.504 138.198 66.9574H141.458V67.4829H138.745C138.345 68.0935 136.747 69.7549 137.568 70.5954L136.999 70.0278ZM133.172 72.1937L132.626 71.6472H137.464L138.009 72.1937H133.172ZM124.486 72.1305L123.94 71.584H130.86L131.405 72.1305H124.486ZM125.495 56.4403C124.423 56.5456 124.023 56.8824 123.602 57.9334L123.202 59.301L122.298 60.037L122.908 57.8921C122.908 57.9132 123.308 56.0201 125.159 55.8736L125.495 56.2096L125.725 56.4201C125.642 56.4193 125.559 56.4403 125.495 56.4403ZM125.495 61.4879C125.411 61.3406 125.347 61.1932 125.264 61.0467L125.495 60.8361L129.197 57.5132C130.06 56.7351 131.279 55.957 132.477 55.8727L133.025 56.4193C131.867 56.5035 130.711 57.2395 129.87 57.9544L126.084 61.3827L130.227 69.8375C129.744 69.8375 129.406 69.3541 129.239 68.9751C127.979 66.4855 126.731 63.9897 125.495 61.4879ZM121.688 64.9591L121.458 65.1688L120.3 69.312C120.238 69.5436 120.238 69.6901 120.238 69.9638C119.692 69.9217 119.501 69.5225 119.587 69.1436L120.933 64.6214L121.311 64.3065L121.688 64.9591ZM113.949 72.1937L113.402 71.6472H120.931L121.458 72.1937H113.949ZM109.869 69.9006L109.196 69.8383C108.524 69.8383 109.027 68.2812 109.175 67.7979L112.14 57.6816C112.54 56.2306 113.34 55.8736 114.79 55.8736L115.337 56.4201C114.033 56.4201 113.171 56.5885 112.75 57.9553L109.785 68.0716C109.701 68.4286 109.217 69.6488 109.869 69.9006ZM103.371 58.4808L102.234 62.1195L101.224 63.1915L102.907 57.6816C103.012 57.2605 103.181 56.9035 103.371 56.6517C103.833 56.0412 104.527 55.8736 105.558 55.8736L106.104 56.4201C104.822 56.4201 103.959 56.5885 103.538 57.9553L103.371 58.4808ZM103.371 66.0522L100.13 69.6699C99.8784 69.6699 99.3327 69.5444 99.5845 69.1234L103.371 64.8118L105.516 62.3511L104.948 64.3073L103.371 66.0522ZM103.371 72.1937H103.201L102.634 71.6472H110.142L110.689 72.1937H103.371ZM93.907 72.1937L93.3596 71.6472H100.847L101.394 72.1937H93.907ZM93.1702 60.437H92.9807L92.4333 59.9107H92.8973L93.1702 58.901L94.1588 55.2833L94.7045 55.8096L93.443 60.437H93.1702ZM88.7735 55.978L89.3209 56.5245L85.8506 68.6812C85.7453 69.0594 85.6611 69.2699 85.7882 69.6699C85.3461 69.5857 84.8409 69.4804 84.9461 69.0813L88.7735 55.978ZM78.9528 72.1937L78.4055 71.6472H86.7129L87.2602 72.1937H78.9528ZM79.9415 60.437L79.4151 59.9107C80.173 58.5229 81.8968 57.0711 83.4531 56.3772L83.0531 57.3658C81.7227 58.0424 80.6354 59.1156 79.9415 60.437ZM72.0964 69.9006L71.4235 69.8383C70.7296 69.8383 71.2551 68.261 71.4025 67.7979L74.3473 57.6816C74.7675 56.1885 75.5044 55.8736 76.9764 55.8736L77.5221 56.4201C76.2606 56.4201 75.3562 56.5885 74.9562 57.9553L72.0122 68.0716C71.8648 68.6181 71.6122 69.4173 72.0964 69.9006ZM66.8593 72.1937H65.3452L64.7986 71.6472H72.4324L72.9789 72.1937H66.8593ZM59.2247 69.0172C58.9931 69.0804 58.8037 69.2067 58.8247 69.4383C58.6142 69.4804 58.2563 69.3751 58.2142 69.1225C58.151 68.6172 58.6142 68.4707 59.2239 68.3865C59.2862 68.3865 59.3493 68.3663 59.4133 68.3663L59.9599 68.9339C59.8352 68.9339 59.4984 68.9339 59.2247 69.0172ZM59.2247 72.2771C58.8247 72.235 58.551 72.1718 58.5089 72.1516C58.7194 72.1305 58.9721 72.0884 59.2247 72.0665C60.402 71.8771 61.8108 71.4156 62.3371 70.0269L66.8593 58.3123L67.09 57.7237C67.2584 57.2395 68.205 55.9359 68.941 56.0412C68.3944 57.0298 68.0155 57.2395 67.3637 58.986L66.8584 60.3107L63.2205 69.9006C62.3582 72.1718 60.3397 72.3613 59.2247 72.2771ZM53.5043 54.9473L54.0508 55.4736L53.2516 68.3452C53.2516 68.7663 53.1893 69.712 53.399 70.112C52.5998 69.712 52.5367 69.2286 52.5998 68.2189C52.8314 63.781 53.1674 59.3641 53.5043 54.9473ZM47.6154 72.1937L47.0688 71.6472H53.4419L53.9885 72.1937H47.6154ZM46.732 64.6854L45.996 64.4749L47.9303 61.5511L47.7619 63.1292L46.732 64.6854ZM43.0722 70.0278C42.273 69.5015 43.9345 67.3987 44.2082 66.9574H47.5101V67.4829H44.7968C44.4625 68.0067 42.9391 69.8855 43.6095 70.5448L43.0722 70.0278ZM39.5606 60.3528L39.0141 59.8273L38.4877 55.2841L39.0343 55.8104L39.5606 60.3528ZM35.249 57.3035C34.8077 57.0509 34.3235 56.757 33.798 56.7359H32.5778L31.4629 60.8159L30.7479 60.7738L32.0515 56.2104C33.777 56.2096 34.113 56.1675 35.249 57.3035ZM30.1593 65.1477L28.9399 69.5646C28.582 69.5646 28.2881 69.4594 28.3513 69.0594L30.0751 62.981H30.1593C30.8321 62.981 31.6734 63.317 31.9681 63.9696C31.7786 63.8442 30.8532 63.5073 30.6216 63.5073L30.1593 65.1477ZM30.1593 72.1937C29.8856 72.2147 29.5917 72.2147 29.2969 72.2147L22.6721 72.1937L22.0834 71.6674H22.6721L29.1917 71.6472C29.5075 71.6472 29.8435 71.6269 30.1593 71.6051C33.8401 71.3524 37.3096 69.5865 37.3096 65.2741C37.457 65.6522 37.6675 66.3048 37.7938 66.8513C37.4359 69.0391 35.8166 71.92 30.1593 72.1937ZM6.81428 70.6375C9.63283 70.6375 13.1453 72.4042 15.984 72.4244C17.5613 72.4455 19.7693 71.6884 21.3466 71.2472C20.4632 72.1516 17.8762 73.2034 15.8569 73.1823C13.0392 73.1823 8.87493 71.2472 6.07744 71.2691C4.10016 71.2691 3.40626 71.6893 1.87109 72.3832C3.11236 71.0787 5.04753 70.6375 6.81428 70.6375ZM22.6721 59.7844C21.7255 60.1204 20.6535 60.3519 19.707 60.3519C16.8674 60.3519 12.7453 58.3957 9.90651 58.4168C7.95029 58.4168 7.25639 58.858 5.70017 59.5528C6.9827 58.2062 8.91787 57.8071 10.6644 57.8071C13.5032 57.8071 16.9954 59.573 19.8342 59.5949C20.6754 59.5949 21.6851 59.3843 22.6737 59.1115C23.5782 58.8799 24.4405 58.6062 25.1975 58.3747C24.7117 58.8589 23.7651 59.3852 22.6721 59.7844ZM22.6721 65.2951C21.515 66.0513 19.4544 66.7873 17.7929 66.7671C14.9541 66.7671 10.7899 64.832 7.99239 64.853C6.01596 64.853 5.32206 65.2741 3.78605 65.968C5.02732 64.6635 6.9827 64.2223 8.7284 64.2223C11.5672 64.2223 15.0585 65.989 17.9192 66.0101C19.2859 66.0311 21.179 65.4425 22.6721 65.0004C22.8826 64.9381 23.0931 64.8749 23.2818 64.8328C23.1133 64.9793 22.9247 65.1478 22.6721 65.2951Z" fill="#42444A"/>
</svg>
