<svg width="148" height="127" viewBox="0 0 148 127" fill="none" xmlns="http://www.w3.org/2000/svg">
<g clip-path="url(#clip0_1465_1907)">
<path fill-rule="evenodd" clip-rule="evenodd" d="M50.514 50.3159C53.6142 50.3159 56.1288 52.6272 56.1288 55.4774C56.1288 58.3272 53.6142 60.6386 50.514 60.6386C47.4133 60.6386 44.8987 58.3272 44.8987 55.4774C44.8987 52.6272 47.4133 50.3159 50.514 50.3159ZM50.5137 54.121C51.279 54.121 51.8997 54.7283 51.8997 55.4771C51.8997 56.226 51.279 56.8333 50.5137 56.8333C49.7485 56.8333 49.1278 56.226 49.1278 55.4771C49.1278 54.7283 49.7485 54.121 50.5137 54.121Z" fill="#42444A"/>
<path fill-rule="evenodd" clip-rule="evenodd" d="M41.3526 60.6386C38.2519 60.6386 35.7373 58.3274 35.7373 55.4774C35.7373 52.6274 38.2519 50.3159 41.3526 50.3159C42.6698 50.3159 43.8985 50.603 44.9389 51.0988L43.3576 54.5734C42.9011 54.3533 42.2823 54.2178 41.6004 54.2178C40.8793 54.2178 40.2945 54.7901 40.2945 55.4957C40.2945 56.2013 40.8793 56.7737 41.6004 56.7737C42.2894 56.7737 42.9141 56.6358 43.3717 56.4117L44.9389 59.8565C43.8985 60.3521 42.6698 60.6386 41.3526 60.6386Z" fill="#42444A"/>
<path fill-rule="evenodd" clip-rule="evenodd" d="M16.4268 50.3159C19.5271 50.3159 22.0416 52.6272 22.0416 55.4774C22.0416 58.3272 19.5271 60.6386 16.4268 60.6386C13.3261 60.6386 10.8115 58.3272 10.8115 55.4774C10.8115 52.6272 13.3261 50.3159 16.4268 50.3159ZM16.4265 54.121C17.1918 54.121 17.8125 54.7283 17.8125 55.4771C17.8125 56.226 17.1918 56.8333 16.4265 56.8333C15.6613 56.8333 15.0407 56.226 15.0407 55.4771C15.0407 54.7283 15.6613 54.121 16.4265 54.121Z" fill="#42444A"/>
<path fill-rule="evenodd" clip-rule="evenodd" d="M109.648 60.6386C106.547 60.6386 104.032 58.3274 104.032 55.4774C104.032 52.6274 106.547 50.3159 109.648 50.3159C110.965 50.3159 112.193 50.603 113.234 51.0988L111.653 54.5734C111.196 54.3533 110.577 54.2178 109.895 54.2178C109.174 54.2178 108.589 54.7901 108.589 55.4957C108.589 56.2013 109.174 56.7737 109.895 56.7737C110.584 56.7737 111.209 56.6358 111.667 56.4117L113.234 59.8565C112.193 60.3521 110.965 60.6386 109.648 60.6386Z" fill="#42444A"/>
<path fill-rule="evenodd" clip-rule="evenodd" d="M68.8313 50.5645H65.4159L63.2176 53.1838L61.019 50.5645H57.1289V60.3899H61.127V55.5052L62.8063 57.438L64.5109 55.4755V60.3899H68.8313V50.5645Z" fill="#42444A"/>
<path fill-rule="evenodd" clip-rule="evenodd" d="M91.9982 50.5645H82.5064L82.507 55.4714C82.507 56.5633 82.3163 57.6527 81.2822 57.7837V60.3142C81.6857 60.4824 82.1202 60.5746 82.5737 60.5746C85.8122 60.5746 86.3862 58.1398 86.3862 55.7031V53.2944H87.5298V60.3894H91.9982V50.5645Z" fill="#42444A"/>
<path fill-rule="evenodd" clip-rule="evenodd" d="M97.7711 50.5645H93.3027V60.3894H98.8297C101.902 60.3894 103.379 58.4979 103.379 56.2666C103.379 54.5812 101.981 53.2134 100.258 53.2134C99.3101 53.2134 98.4478 53.4731 97.7711 53.8977V50.5645ZM98.3745 55.8078C98.8733 55.8078 99.2778 56.2068 99.2778 56.6989C99.2778 57.191 99.0764 57.9587 98.3745 57.9587C98.1105 57.9587 97.9151 57.9297 97.7711 57.8802V56.0356C97.9311 55.8937 98.1424 55.8078 98.3745 55.8078Z" fill="#42444A"/>
<path fill-rule="evenodd" clip-rule="evenodd" d="M147.8 50.5645H140.61C139.007 50.5645 137.706 51.8372 137.706 53.4064C137.706 54.5312 138.375 55.5032 139.344 55.9638C138.17 57.0061 137.07 58.7467 137.07 60.3894H141.246C141.413 58.0773 142.341 57.2859 143.331 57.2167V60.3894H147.8V50.5645ZM143.331 52.7958H142.944C142.323 52.7958 141.819 53.2885 141.819 53.896C141.819 54.5035 142.323 54.9963 142.944 54.9963H143.331V52.7958Z" fill="#42444A"/>
<path fill-rule="evenodd" clip-rule="evenodd" d="M75.3826 50.3159C78.4829 50.3159 80.9975 52.6272 80.9975 55.4774C80.9975 58.3272 78.4829 60.6386 75.3826 60.6386C72.2819 60.6386 69.7673 58.3272 69.7673 55.4774C69.7673 52.6272 72.2819 50.3159 75.3826 50.3159ZM75.3823 54.121C76.1477 54.121 76.7683 54.7283 76.7683 55.4771C76.7683 56.226 76.1477 56.8333 75.3823 56.8333C74.6171 56.8333 73.9965 56.226 73.9965 55.4771C73.9965 54.7283 74.6171 54.121 75.3823 54.121Z" fill="#42444A"/>
<path fill-rule="evenodd" clip-rule="evenodd" d="M4.13441 56.5129V60.3904H-0.333984V50.5654H4.13441V53.6805C5.52578 53.7141 6.20347 52.424 6.21878 50.5654H10.3382C10.3199 52.6418 9.43527 54.3794 8.1911 55.0552C9.5061 55.5307 10.7164 58.0907 10.7164 60.3904H6.54063C6.54063 58.032 5.65567 56.4521 4.13441 56.5129Z" fill="#42444A"/>
<path fill-rule="evenodd" clip-rule="evenodd" d="M118.426 56.5129V60.3904H113.958V50.5654H118.426V53.6805C119.818 53.7141 120.495 52.424 120.511 50.5654H124.63C124.612 52.6418 123.727 54.3794 122.483 55.0552C123.798 55.5307 125.008 58.0907 125.008 60.3904H120.833C120.833 58.032 119.948 56.4521 118.426 56.5129Z" fill="#42444A"/>
<path fill-rule="evenodd" clip-rule="evenodd" d="M34.7631 50.5645H31.3485L29.1503 53.1838L26.9517 50.5645H23.0615V60.3899H27.0597V55.5052L28.7389 57.438L30.4436 55.4755V60.3899H34.7631V50.5645Z" fill="#42444A"/>
<path fill-rule="evenodd" clip-rule="evenodd" d="M133.74 50.5645L137.395 60.3894H132.93L132.21 58.4523H128.895L128.174 60.3894H124.683L128.338 50.5645H133.74ZM131.415 56.3158L130.552 53.9966L129.69 56.3158H131.415Z" fill="#42444A"/>
<path fill-rule="evenodd" clip-rule="evenodd" d="M39.0246 63.5527H29.2156C27.5933 66.5759 26.3598 69.9582 26.2002 74.3337H29.9876C30.0661 73.8858 30.153 73.4428 30.2483 73.0067H33.6071V74.3337H39.0246V63.5527ZM33.6071 67.4145V70.2888H30.9926C31.3419 69.254 31.7555 68.2871 32.2416 67.4145H33.6071Z" fill="#42444A"/>
<path fill-rule="evenodd" clip-rule="evenodd" d="M40.0508 63.5527V74.3337H49.8738C51.7218 74.3337 53.0026 73.4931 52.9835 71.627C52.9695 70.2795 52.023 69.1782 50.8179 68.4335C51.8796 67.7727 52.4053 66.9455 52.4008 65.6882C52.3948 64.1757 51.1532 63.6646 49.2594 63.5527H40.0508ZM45.1399 71.569H46.7664C47.3375 71.569 47.8243 71.0785 47.8229 70.6167C47.8222 70.3327 47.6173 69.9859 47.3971 69.7868C46.715 69.9884 45.9628 70.1948 45.1399 70.418V71.569ZM45.1399 66.4028H45.8561C46.6666 66.3946 47.1837 66.6086 47.182 67.0002C47.1796 67.5299 46.4469 68.0184 45.1399 68.3419V66.4028Z" fill="#42444A"/>
<path fill-rule="evenodd" clip-rule="evenodd" d="M13.7842 63.5527V74.3337H19.2017V72.5121C24.3781 71.4442 26.8333 69.462 26.8333 67.1141C26.8333 64.7467 25.0848 63.5527 22.2294 63.5527H13.7842ZM19.2017 69.5738C20.4153 69.2753 21.1112 68.782 21.1208 68.1421C21.1308 67.4797 20.4143 67.2222 19.5782 67.2222H19.2017V69.5738Z" fill="#42444A"/>
<path fill-rule="evenodd" clip-rule="evenodd" d="M5.08349 67.4146H7.2998V74.3332H12.7173V63.5527H-0.333984V74.3332H5.08349V67.4146Z" fill="#42444A"/>
<path fill-rule="evenodd" clip-rule="evenodd" d="M66.2348 63.5527H57.0003C55.7159 65.7299 54.8455 68.2412 54.5244 71.1959H53.3887V76.2646H57.0503C57.4648 74.5005 59.0053 74.1817 60.5904 74.212C62.0595 74.2399 63.448 74.6863 63.6225 76.2646H67.3018V71.1959H66.2348V63.5527ZM60.8173 67.4145V71.1959H58.2222C58.5252 69.5137 59.0317 68.1735 59.7522 67.4145H60.8173Z" fill="#42444A"/>
<path fill-rule="evenodd" clip-rule="evenodd" d="M80.5177 63.5527H70.7088C69.0864 66.5759 67.853 69.9582 67.6934 74.3337H71.4808C71.5592 73.8858 71.6462 73.4428 71.7415 73.0067H75.1003V74.3337H80.5177V63.5527ZM75.1003 67.4145V70.2888H72.4857C72.835 69.254 73.2486 68.2871 73.7348 67.4145H75.1003Z" fill="#42444A"/>
</g>
<defs>
<clipPath id="clip0_1465_1907">
<rect width="148" height="127" fill="white"/>
</clipPath>
</defs>
</svg>
