<svg width="148" height="127" viewBox="0 0 148 127" fill="none" xmlns="http://www.w3.org/2000/svg">
<mask id="mask0_1465_2076" style="mask-type:luminance" maskUnits="userSpaceOnUse" x="18" y="33" width="113" height="61">
<path d="M130.001 33.1992H18.8906V93.5529H130.001V33.1992Z" fill="white"/>
</mask>
<g mask="url(#mask0_1465_2076)">
<path d="M47.2564 53.3171V46.2621C46.7315 46.3868 45.6819 46.6361 43.9076 46.8355C43.3077 46.9103 42.1081 47.035 40.2837 47.035C39.3591 47.035 37.5347 47.035 36.0852 46.2123C35.6104 45.9381 34.6607 45.3896 34.6607 43.9437C34.6607 43.4701 34.6607 42.5228 35.9853 41.7749C36.4351 41.5256 37.3098 41.0519 39.684 41.0519C40.4087 41.0519 41.8582 41.0519 43.8825 41.3511C44.5573 41.4508 45.8819 41.6502 47.2564 42.099V34.8196C46.6816 34.5454 45.532 33.972 43.5326 33.5732C42.8578 33.4485 41.5333 33.1992 38.9842 33.1992C38.1345 33.1992 36.4601 33.1992 34.4358 33.972C33.7611 34.2213 32.4115 34.7448 30.987 36.1658C30.5122 36.6395 29.5625 37.5868 28.8128 39.631C28.5629 40.3041 28.0381 41.6752 28.0381 44.2429C28.0381 45.0157 28.0381 46.5862 28.7878 48.5058C29.0377 49.1539 29.5376 50.4253 31.037 51.8214C31.4869 52.2452 32.3865 53.0678 34.2609 53.7908L47.1314 53.3919C47.1814 53.3421 47.2314 53.3171 47.2564 53.3171Z" fill="#42444A"/>
<path d="M67.4988 52.0707C67.9986 51.622 69.0233 50.7494 69.848 48.805C70.1229 48.1568 70.6727 46.8605 70.6727 44.3177C70.6727 43.4452 70.6727 41.7001 69.848 39.6559C69.5731 38.9828 69.0233 37.6117 67.5238 36.1658C67.024 35.6922 66.0243 34.7199 63.9001 33.9471C63.2003 33.6978 61.7758 33.1743 59.1518 33.1743C58.2771 33.1743 56.5527 33.1743 54.4284 33.9471C53.7287 34.1964 52.3042 34.7199 50.7797 36.1409C50.2799 36.6146 49.2553 37.5619 48.4556 39.631C48.1807 40.3041 47.6309 41.6752 47.6309 44.2678C47.6309 45.0905 47.6309 46.7109 48.4556 48.6554C48.7305 49.3035 49.2803 50.5999 50.7797 51.946C51.1046 52.2452 51.6294 52.7189 52.5041 53.1925L66.6241 52.7438C66.899 52.5443 67.1989 52.3449 67.4988 52.0707ZM62.6255 46.1625C62.4006 46.2871 61.9508 46.5613 61.0511 46.7358C60.7512 46.7857 60.1514 46.9103 59.1268 46.9103C58.7769 46.9103 58.1021 46.9103 57.2025 46.7109C56.9026 46.6361 56.3028 46.5115 55.603 46.1375C55.3781 46.0129 54.9033 45.7636 54.5034 45.2151C54.3785 45.0406 54.1036 44.6667 54.1036 43.9188C54.1036 43.6695 54.1036 43.1709 54.5034 42.6225C54.6284 42.448 54.9033 42.0741 55.603 41.7001C55.8279 41.5755 56.3028 41.3262 57.2275 41.1517C57.5273 41.1018 58.1521 40.9772 59.1268 40.9772C59.4517 40.9772 60.1264 40.9772 61.0261 41.1517C61.326 41.2015 61.9508 41.3262 62.6255 41.7001C62.8505 41.8248 63.3003 42.0491 63.7251 42.6225C63.8501 42.797 64.125 43.1709 64.125 43.9188C64.125 44.1681 64.125 44.6667 63.7251 45.2151C63.6002 45.3897 63.3253 45.7636 62.6255 46.1625Z" fill="#42444A"/>
<path d="M99.962 48.4809C100.212 47.8078 100.687 46.4367 100.687 43.8689C100.687 42.1737 100.687 38.7834 97.8377 35.9913C96.913 35.044 95.0137 33.1992 89.9405 33.1992C89.2658 33.1992 87.8913 33.1992 86.2918 33.6978C85.742 33.8723 84.6674 34.1964 83.4428 35.0689C83.018 35.3681 82.1933 35.9414 81.3436 37.2128C81.0687 37.6366 80.4939 38.4593 80.019 39.955H78.7195V33.5482H71.4971V52.5942L78.7195 52.3698V47.8327H79.9441C80.194 48.8049 80.6938 50.5998 82.4182 52.2452L98.0377 51.7466C98.5125 51.2231 99.3122 50.2758 99.962 48.4809ZM93.3143 46.4616C92.8645 46.7358 91.9898 47.2593 89.9405 47.2593C89.2658 47.2593 87.9412 47.2593 86.5917 46.4367C86.1419 46.1624 85.2422 45.614 85.2422 44.0434C85.2422 43.495 85.2422 42.423 86.5417 41.6752C86.9666 41.4259 87.8413 40.9522 89.9405 40.9522C90.6403 40.9522 92.0398 40.9522 93.3393 41.725C93.7642 41.9743 94.6389 42.4978 94.6389 44.0434C94.6389 44.567 94.6389 45.6638 93.3143 46.4616Z" fill="#42444A"/>
<path d="M119.554 45.614C119.379 45.4146 119.054 44.9908 118.404 44.6168C118.179 44.4922 117.73 44.2678 117.105 44.0185C117.53 43.7693 118.404 43.2707 119.204 42.1738C119.479 41.7998 120.029 41.0769 120.029 39.2321C120.029 38.6338 120.029 37.4372 119.204 36.2655C118.929 35.8916 118.379 35.1188 116.98 34.4208C116.505 34.1964 115.58 33.7228 113.756 33.4485C113.131 33.3488 111.907 33.1743 109.832 33.1743C108.908 33.1743 107.033 33.1743 105.009 33.6729C104.334 33.8474 102.985 34.1715 101.36 34.7449V40.5284C101.61 40.4537 102.135 40.2792 103.16 40.1047C103.485 40.0548 104.159 39.9301 105.209 39.7806C105.559 39.7307 106.259 39.6559 107.233 39.5811C107.558 39.5562 108.233 39.5063 108.958 39.5063C109.407 39.5063 110.307 39.5064 111.232 39.5811C111.532 39.6061 112.132 39.6559 112.656 39.8304C112.831 39.8803 113.181 40.0049 113.406 40.2792C113.481 40.3789 113.631 40.5534 113.631 41.0021C113.631 41.1268 113.631 41.401 113.406 41.6752C113.331 41.75 113.181 41.9245 112.806 42.0491C112.681 42.099 112.431 42.1738 111.932 42.2236C111.757 42.2486 111.432 42.2735 110.882 42.2735H104.759V46.337H110.807C111.157 46.337 111.832 46.337 112.481 46.4616C112.706 46.5115 113.131 46.5863 113.481 46.8106C113.606 46.8854 113.831 47.0101 113.956 47.2593C114.006 47.3341 114.081 47.5086 114.081 47.7081C114.081 47.8327 114.081 48.0571 113.906 48.3313C113.831 48.431 113.706 48.6055 113.231 48.805C113.056 48.8797 112.731 49.0044 111.882 49.1041C111.582 49.129 111.007 49.2038 109.607 49.2038C108.933 49.2038 107.558 49.2038 105.509 49.0543C104.834 49.0044 103.46 48.9047 101.36 48.431V51.6469L119.904 51.0486C120.104 50.6248 120.254 50.1013 120.329 49.5279C120.404 49.0543 120.529 48.1319 120.304 47.1846C120.204 46.8854 120.029 46.2372 119.554 45.614Z" fill="#42444A"/>
<path d="M50.7034 54.5635L39.8574 54.8876L38.2579 61.0949H37.4083L35.8338 55.0122L24.8627 55.3612L23.2383 71.4156L30.4107 71.5153L31.1105 63.9119H31.9602L33.4597 71.5652L42.1566 71.7148L43.706 63.9119H44.5556L45.2554 71.7646L52.4778 71.8643L50.7034 54.5635Z" fill="#42444A"/>
<path d="M54.628 66.1807C54.3781 66.1309 53.8782 66.0561 53.3034 65.7819V71.8895L62.95 72.0391C63.5748 71.5156 64.4495 70.6182 65.2492 68.8731L72.0968 53.8906L64.3495 54.1399L62.0753 60.4221H61.2256L58.9265 54.2895L51.4541 54.5139L57.1021 66.1807C56.9771 66.2057 56.7022 66.2805 55.9025 66.2805C55.7526 66.3054 55.3777 66.3054 54.628 66.1807Z" fill="#42444A"/>
<path d="M84.8927 53.4922L73.0469 53.8661L68.2236 72.1142L75.696 72.2389L78.57 62.1176H79.4447L82.3686 72.3386L89.8909 72.4633L84.8927 53.4922Z" fill="#42444A"/>
<path d="M107.31 70.9924C108.159 70.2695 109.834 68.7987 109.834 64.9596C109.834 64.2117 109.834 62.691 109.059 61.1454C108.809 60.6468 108.284 59.6247 106.91 58.7023C106.46 58.4032 105.56 57.78 103.736 57.406C103.136 57.2814 101.912 57.0072 99.8124 57.0072C99.6625 57.0072 99.3626 57.0072 98.9127 57.0072C98.7628 57.0072 98.4629 57.0072 97.9131 57.082V53.0684L90.7656 53.2927V72.4633L104.236 72.6627C105.26 72.3636 106.335 71.84 107.31 70.9924ZM102.636 66.4553C102.337 66.6298 101.712 66.9539 99.5625 66.9539C99.4375 66.9539 99.2126 66.9539 98.8378 66.929C98.7128 66.929 98.4379 66.904 97.9131 66.8293V63.2394C98.063 63.2394 98.3629 63.2145 98.7378 63.1896C98.8627 63.1896 99.1377 63.1647 99.6625 63.1647C100.287 63.1647 101.537 63.1647 102.561 63.5885C102.911 63.738 103.586 64.0123 103.586 65.0094C103.561 65.3086 103.561 65.9567 102.636 66.4553Z" fill="#42444A"/>
<path d="M108.834 52.7194V59.4751H114.857V72.8621L122.054 72.9619V59.4751H128.377V52.1211L108.834 52.7194Z" fill="#42444A"/>
<path d="M21.7896 89.6636C22.2394 90.0625 23.1141 90.8603 24.9135 91.5333C25.5133 91.7577 26.7128 92.2064 28.7371 92.4059V93.5526H35.8846V92.4059C36.5344 92.3311 37.8339 92.2064 39.5833 91.5333C40.1831 91.309 41.3577 90.8602 42.7322 89.6886C43.182 89.2897 44.1067 88.492 44.9314 86.7469C45.2063 86.1735 45.7561 85.0019 45.7561 82.6087C45.7561 81.8109 45.7561 80.2404 44.9314 78.4455C44.6565 77.8472 44.1067 76.6506 42.7322 75.429C42.2823 75.0052 41.3577 74.1826 39.5833 73.4846C39.3084 73.3599 38.8835 73.2103 38.3087 73.0358L26.8878 72.8613C26.313 72.986 25.6632 73.1854 24.9135 73.4846C24.3137 73.7339 23.1141 74.2075 21.7896 75.429C21.3398 75.8279 20.4401 76.6506 19.6653 78.4455C19.4154 79.0438 18.8906 80.2404 18.8906 82.6087C18.8906 83.4064 18.8906 84.9769 19.6653 86.7469C19.9403 87.2954 20.4651 88.467 21.7896 89.6636ZM35.9096 79.7418C36.2595 79.7418 36.9342 79.7418 37.584 79.9662C37.8089 80.041 38.2588 80.1905 38.6336 80.5894C38.7586 80.714 39.0335 80.9883 39.1834 81.4619C39.2334 81.6364 39.3584 81.9605 39.3584 82.4591C39.3584 82.9327 39.3584 83.8801 38.4837 84.7526C38.1838 85.0517 37.609 85.6251 35.8846 85.6251V79.7418H35.9096ZM25.4383 81.5616C25.4883 81.3871 25.6132 81.0381 26.0131 80.6393C26.1381 80.5146 26.413 80.2404 27.0877 79.9911C27.3126 79.9163 27.7625 79.7418 28.7371 79.7418V85.5752C28.4122 85.5752 27.7375 85.5752 27.0877 85.326C26.8628 85.2512 26.413 85.0767 26.0131 84.6778C25.8881 84.5532 25.6132 84.2789 25.4383 83.7554C25.3883 83.5809 25.2634 83.2319 25.2634 82.6585C25.2634 82.4591 25.2634 82.0852 25.4383 81.5616Z" fill="#42444A"/>
<path d="M46.3313 73.1611V92.7805H53.3788L57.7522 84.3793H58.477V92.7805H64.9247V73.4354L57.0775 73.3107L53.5038 80.1663H52.829V73.2609L46.3313 73.1611Z" fill="#42444A"/>
<path d="M65.7988 92.7801H72.5464L75.3204 81.886H76.1202L78.9192 92.7801H85.6418L81.1184 73.6843L70.3722 73.5098L65.7988 92.7801Z" fill="#42444A"/>
<path d="M86.4424 73.7588V92.356C87.7669 92.5554 90.391 92.9792 94.7144 92.9792C96.1639 92.9792 99.0879 92.9792 101.362 90.7855C102.112 90.0625 103.636 88.5917 103.636 84.7526C103.636 84.0047 103.636 82.484 102.937 80.9384C102.712 80.4398 102.237 79.4177 101.012 78.4953C100.612 78.1962 99.7877 77.573 98.1382 77.199C97.5884 77.0744 96.4888 76.8002 94.5895 76.8002C94.4645 76.8002 94.1896 76.8002 93.7898 76.8002C93.6398 76.8002 93.3649 76.8002 92.8901 76.8749V73.8585L86.4424 73.7588ZM93.6148 82.9328C93.7398 82.9328 93.9647 82.9078 94.4645 82.9078C95.0143 82.9078 96.1389 82.9078 97.0636 83.3316C97.3635 83.4812 97.9883 83.7554 97.9883 84.7526C97.9883 85.0767 97.9883 85.7498 97.1386 86.2234C96.8637 86.3979 96.2889 86.722 94.3646 86.722C94.2646 86.722 94.0647 86.722 93.7148 86.6971C93.5898 86.6971 93.3649 86.6721 92.8651 86.5974V83.0075C92.9901 82.9577 93.265 82.9328 93.6148 82.9328Z" fill="#42444A"/>
<path d="M103.436 92.78H109.933L110.658 83.6808H111.433L113.057 92.78H120.38L122.004 83.6808H122.754L123.503 92.78H130.001L128.302 74.3822L118.63 74.2326L117.106 80.8638H116.331L114.782 74.1828L105.16 74.0332L103.436 92.78Z" fill="#42444A"/>
</g>
</svg>
