<svg width="148" height="127" viewBox="0 0 148 127" fill="none" xmlns="http://www.w3.org/2000/svg">
<path d="M39.0326 62.3327C39.0326 62.3327 39.5742 56.1976 39.6293 55.5969C39.6453 55.2477 39.5908 54.8988 39.469 54.571C39.3472 54.2433 39.1606 53.9434 38.9203 53.6892C38.68 53.4351 38.3909 53.2318 38.0703 53.0916C37.7497 52.9514 37.4042 52.8772 37.0542 52.8732H21.5534C20.8388 52.8237 20.1334 53.0572 19.5897 53.5231C19.046 53.989 18.7077 54.6499 18.6479 55.363C18.579 56.0829 17.2938 70.9163 17.2158 71.7692C17.17 72.1324 17.2012 72.5012 17.3075 72.8515C17.4137 73.2019 17.5925 73.526 17.8324 73.8028C18.0722 74.0796 18.3677 74.3028 18.6996 74.4581C19.0314 74.6133 19.3923 74.697 19.7587 74.7038H35.1677C37.2149 74.7038 38.009 73.6217 38.1834 71.9526C38.289 70.953 38.7939 64.9142 38.7939 64.9142H29.476L29.0766 69.582H26.7173L27.7317 57.995H30.091L29.7146 62.3327H39.0326Z" fill="#42444A"/>
<path d="M52.965 54.7419C52.6412 55.6955 49.9833 64.1727 49.9833 64.1727L51.1661 52.8667H42.0412L40.1299 74.7038H47.0062C48.7331 74.7038 49.3222 73.7043 49.6101 72.902C49.9563 71.9484 52.4883 64.8145 52.4883 64.8145L51.5574 74.7038H60.6868L62.5666 52.8759H55.4025C54.8518 52.8718 54.3151 53.0522 53.8747 53.3893C53.4343 53.7264 53.1147 54.2016 52.965 54.7419Z" fill="#42444A"/>
<path d="M99.8125 52.8667L98.9574 62.8243H96.6394L97.4946 52.8667H88.3624C88.3624 52.8667 87.4847 63.416 87.3902 64.4297C87.2822 65.6451 87.9573 67.3651 89.9782 67.3651H98.5703L98.3813 69.5805H86.9491L86.499 74.7038H104.678C105.911 74.7038 107.099 73.8828 107.261 72.1307C107.365 71.007 108.936 52.8667 108.936 52.8667H99.8125Z" fill="#42444A"/>
<path d="M123.857 52.8667H111.326L109.434 74.7038H118.66L119.246 67.9462H128.213C129.8 67.9462 130.85 67.1296 131.023 65.2579C131.086 64.5284 131.819 56.2524 131.864 55.5229C131.978 53.9081 130.705 52.8667 129.136 52.8667H123.857ZM119.642 63.4182L120.097 58.0003H122.411L121.956 63.4182H119.642Z" fill="#42444A"/>
<path d="M73.663 60.2023L73.8606 57.9911H85.5419L86.0015 52.8667H64.9778L63.0662 74.7038H81.6773C82.8629 74.7038 84.1449 74.0065 84.3104 72.1806C84.4345 70.8043 85.0089 64.3174 85.1146 63.1384C85.2524 61.5648 84.2506 60.2023 82.2884 60.2023H73.663ZM75.1703 70.1621H72.7899L73.2494 64.7487H75.6252L75.1703 70.1621Z" fill="#42444A"/>
</svg>
