<svg width="148" height="127" viewBox="0 0 148 127" fill="none" xmlns="http://www.w3.org/2000/svg">
<path d="M26.3663 52.9173C27.8631 52.6429 29.4585 53.805 29.5408 55.306C29.623 56.468 28.7677 57.5332 27.6822 57.8883C26.136 58.4209 24.1623 57.3073 24.1623 55.6288C24.0636 54.3214 25.0669 53.1271 26.3663 52.9173ZM113.87 52.9011C115.4 52.7075 116.88 54.1278 116.782 55.6288C116.847 56.5971 116.124 57.501 115.219 57.8076C113.804 58.3564 111.864 57.6624 111.518 56.1129C111.107 54.6119 112.291 52.9818 113.87 52.9011ZM31.2678 53.0787C32.4521 53.0303 33.6364 53.0464 34.8206 53.0625C34.8371 60.0833 34.8535 67.1041 34.8042 74.1249C33.6199 74.1411 32.4521 74.1572 31.2678 74.1249C31.2349 67.1203 31.2349 60.0995 31.2678 53.0787ZM38.3899 53.0948C39.936 53.0464 41.4986 53.0625 43.0611 53.0948C45.1829 55.5803 47.2718 58.1143 49.3936 60.5998C50.2983 61.7134 51.3345 62.7464 51.976 64.0376C52.6997 65.5386 52.8971 67.2817 52.453 68.8795C51.8444 71.252 49.9693 73.2372 47.6666 74.1572C45.8902 74.8674 43.8506 74.9158 42.0249 74.2863C40.3143 73.673 38.7517 72.5432 37.8142 70.9938C36.6957 69.3153 36.3832 67.1687 36.9095 65.2319C37.4194 63.4081 38.653 61.8103 40.2649 60.8096C41.3176 60.0833 42.5841 59.7444 43.8342 59.5507C42.7157 58.1466 41.515 56.7908 40.3636 55.4189C39.7057 54.6281 39.1136 53.7888 38.3899 53.0948ZM43.8177 62.8109C42.469 63.053 41.2354 63.9569 40.6762 65.1835C39.9853 66.4747 40.1169 68.1371 40.9558 69.3314C41.844 70.6387 43.4888 71.3812 45.0678 71.2359C47.2225 71.1229 49.2127 69.2507 49.1469 67.0718C49.2621 65.5547 48.3245 64.1021 47.0251 63.3597C46.0547 62.8109 44.9033 62.6173 43.8177 62.8109ZM54.3774 53.0625C55.5617 53.0141 56.7459 53.0464 57.9138 53.0464C57.9467 55.5481 57.9302 58.0497 57.9138 60.5514C58.5388 60.3093 59.098 59.9219 59.7395 59.7283C61.4501 59.1795 63.3416 59.1472 65.0358 59.7121C67.1082 60.3416 68.8517 61.891 69.7728 63.8116C70.6939 65.8452 70.7104 68.2823 69.6906 70.2837C68.5063 72.6885 65.9898 74.367 63.2923 74.6414C60.7593 74.9319 58.1111 73.9635 56.4005 72.1075C55.0518 70.671 54.3116 68.7181 54.361 66.7652C54.3774 62.1976 54.361 57.6301 54.3774 53.0625ZM61.4172 62.8271C59.8711 63.1015 58.5223 64.2797 58.1111 65.7807C57.7657 66.9911 57.9631 68.3469 58.6868 69.3798C59.5092 70.5903 61.0224 71.3166 62.5028 71.2359C64.7233 71.3005 66.7793 69.4121 66.878 67.2332C67.026 65.8129 66.3023 64.3765 65.1016 63.5534C64.0653 62.7948 62.6837 62.585 61.4172 62.8271ZM75.2501 60.858C76.8291 59.7283 78.8193 59.1956 80.7602 59.3409C83.0465 59.4216 85.2341 60.7128 86.4019 62.6496C87.3723 64.199 87.5697 66.055 87.4874 67.8304C83.6057 67.8627 79.7075 67.8143 75.8257 67.8466C75.8915 69.17 76.9113 70.2675 78.0791 70.8001C79.4114 71.4457 81.0727 71.3005 82.3392 70.558C82.9807 70.203 83.4577 69.6219 83.9018 69.057C84.8393 69.751 85.8097 70.4451 86.665 71.252C85.9742 72.0268 85.2834 72.8337 84.3788 73.3986C82.6188 74.5768 80.3819 74.9642 78.293 74.5446C76.2534 74.1572 74.4112 72.8822 73.3256 71.1391C72.2894 69.5574 71.9111 67.5883 72.1743 65.7322C72.4703 63.7793 73.6217 61.9717 75.2501 60.858ZM76.2698 64.9575C78.6877 64.9737 81.122 65.0221 83.5399 64.9414C83.2932 64.3926 82.9642 63.8439 82.4379 63.4888C81.5332 62.7625 80.2667 62.6496 79.1483 62.7948C77.8982 62.9562 76.6646 63.7471 76.2698 64.9575ZM122.653 59.8897C124.331 59.2118 126.239 59.1472 127.999 59.6153C129.66 60.0833 131.157 61.1486 132.012 62.6334C132.999 64.1828 133.18 66.055 133.065 67.8304C129.2 67.8627 125.318 67.8466 121.436 67.8466C121.568 69.4605 122.95 70.7356 124.496 71.1068C126.437 71.5103 128.641 70.8324 129.841 69.2346C130.532 69.7672 131.19 70.3321 131.881 70.8486C132.012 70.9777 132.276 71.1391 132.144 71.3489C131.19 72.6885 129.808 73.7053 128.229 74.2702C126.519 74.8512 124.611 74.8512 122.884 74.2863C121.074 73.6891 119.512 72.398 118.624 70.7356C117.768 69.2346 117.555 67.4592 117.785 65.7645C118.212 63.1499 120.137 60.8258 122.653 59.8897ZM124.463 62.8594C123.295 63.0692 122.325 63.8923 121.864 64.9575C124.265 65.0221 126.683 64.9898 129.085 64.9737C128.871 64.4733 128.641 63.973 128.213 63.6179C127.226 62.698 125.729 62.6173 124.463 62.8594ZM135.812 61.2131C137.325 59.7444 139.546 59.2763 141.618 59.3248C143.987 59.357 146.24 60.4061 147.984 61.9394C147.342 62.8271 146.602 63.6341 145.895 64.4733C144.694 63.3597 143.148 62.5043 141.454 62.4559C140.45 62.4075 139.332 62.5689 138.575 63.2951C138.164 63.6664 138.115 64.4088 138.608 64.7316C139.315 65.1512 140.171 65.1835 140.977 65.2803C142.819 65.4579 144.793 65.5547 146.405 66.5715C147.572 67.2817 148.049 68.7181 147.967 70.0093C148 71.4619 147.03 72.753 145.829 73.4955C144.151 74.5446 142.062 74.8189 140.121 74.6414C137.802 74.4477 135.582 73.3664 134.052 71.6233C134.809 70.8324 135.532 70.0416 136.338 69.3153C136.963 69.8963 137.605 70.5096 138.394 70.8808C139.825 71.5426 141.519 71.7685 143.033 71.2682C143.493 71.1391 143.921 70.8808 144.217 70.5096C144.447 70.1868 144.349 69.7833 144.332 69.4121C143.954 69.1055 143.51 68.8634 143.016 68.7988C141.075 68.4921 139.036 68.6213 137.194 67.895C136.355 67.5399 135.516 67.0073 135.138 66.1519C134.397 64.5702 134.529 62.4882 135.812 61.2131ZM0 59.8412C1.2994 59.8251 2.5988 59.8412 3.91465 59.8412C4.96733 62.5689 6.10225 65.2803 7.18782 67.9918C8.30629 65.2642 9.35897 62.5204 10.5268 59.8251C11.3656 59.8412 12.2045 59.809 13.0269 59.8574C14.0302 62.6011 15.1816 65.2803 16.2507 67.9918C17.3034 65.2642 18.4548 62.585 19.5074 59.8574C20.7904 59.7767 22.0734 59.809 23.3728 59.8574C21.547 64.6347 19.5732 69.3637 17.7146 74.1249C16.8429 74.1733 15.9711 74.2218 15.1158 74.1088C14.0631 71.2682 12.8295 68.4921 11.711 65.6677C11.2834 66.5231 10.9873 67.4431 10.6255 68.3146C9.81952 70.2352 9.04646 72.172 8.28984 74.1249C7.43454 74.1572 6.5299 74.2863 5.72394 74.0926C3.79951 69.3476 1.90798 64.6025 0 59.8412ZM25.0505 59.8412C26.2512 59.8412 27.4519 59.809 28.6361 59.8574C28.6361 64.6186 28.6361 69.3637 28.6361 74.1249C27.4354 74.1733 26.2347 74.1411 25.0505 74.1411C25.1162 71.1391 25.0669 68.1371 25.0834 65.1351C25.0669 63.3758 25.1162 61.6166 25.0505 59.8412ZM89.3625 59.8574C90.5468 59.8412 91.7311 59.8412 92.9153 59.8574C92.9647 60.9226 92.8989 62.004 92.9647 63.0692C93.491 62.2622 94.0996 61.5036 94.922 60.971C96.2214 60.0672 97.8826 59.7605 99.4452 59.8574C99.4946 61.0194 99.4781 62.1815 99.4617 63.3436C97.9813 63.4404 96.4352 63.6341 95.1852 64.4733C94.1654 65.1189 93.4252 66.1357 93.1127 67.2817C92.8824 68.0564 92.9482 68.8795 92.9318 69.6865C92.9318 71.1875 92.9482 72.6723 92.9153 74.1733C91.7311 74.1895 90.5632 74.2056 89.379 74.1733C89.3296 69.3798 89.3461 64.6186 89.3625 59.8574ZM100.728 59.8574C101.896 59.8251 103.08 59.8412 104.248 59.8574C104.265 60.9065 104.248 61.9555 104.281 63.0046C104.807 62.4075 105.235 61.7134 105.893 61.2293C107.258 60.1317 109.084 59.7605 110.794 59.8735C110.778 61.0356 110.778 62.1976 110.794 63.3597C109.347 63.4404 107.85 63.6018 106.617 64.3926C105.202 65.1996 104.314 66.7813 104.265 68.3792C104.248 70.2998 104.265 72.2204 104.265 74.1572C103.08 74.2056 101.912 74.1895 100.728 74.1572C100.679 69.3798 100.679 64.6186 100.728 59.8574ZM112.357 59.8574C113.541 59.8412 114.726 59.8412 115.91 59.8574C115.926 64.6186 115.926 69.3798 115.91 74.1572C114.726 74.1895 113.541 74.1733 112.357 74.1572C112.324 69.3798 112.341 64.6186 112.357 59.8574Z" fill="#42444A"/>
</svg>
