<svg width="148" height="127" viewBox="0 0 148 127" fill="none" xmlns="http://www.w3.org/2000/svg">
<path d="M123.446 77.4513H127.569L137.651 50.3403H133.527L123.446 77.4513ZM118.037 63.6252C118.037 65.9745 116.662 67.963 114.004 67.963C111.347 67.963 109.881 65.7941 109.881 63.6252C109.881 61.4563 111.347 59.2874 114.004 59.2874C116.571 59.2874 118.037 61.1849 118.037 63.6252ZM114.463 56.2148C111.897 56.2148 110.431 57.5703 109.973 58.1123V56.5756H106.124V77.4513H110.064V69.3185C110.522 69.7703 112.08 71.0356 114.463 71.0356C118.128 71.0356 121.519 68.3238 121.519 63.6252C121.611 58.6543 117.854 56.2148 114.463 56.2148ZM93.3849 62.0885C93.4764 61.0947 94.4843 59.1964 96.8677 59.1964C99.5254 59.1964 99.9837 61.2751 100.075 62.0885H93.3849ZM96.9591 56.2148C92.4685 56.2148 89.444 59.4678 89.444 63.6252C89.444 67.7818 92.4685 71.0356 97.0506 71.0356C101.633 71.0356 103.558 67.872 103.558 67.872L100.625 65.9745C100.625 65.9745 99.6169 67.963 97.0506 67.963C94.3928 67.963 93.2926 65.7039 93.2926 64.8896H103.833C103.833 64.8896 103.925 64.2574 103.925 64.077V63.6252C103.925 59.3776 101.358 56.2148 96.9591 56.2148ZM84.9533 70.6739H89.1687L83.9446 56.5756H79.8207L74.5051 70.6739H78.8128L81.8365 61.7269H81.9288L84.9533 70.6739ZM70.3812 63.986C70.3812 65.6129 69.464 67.963 66.8062 67.963C64.1484 67.963 63.049 65.8843 63.049 63.8958C63.049 61.9081 64.1484 60.1 66.8062 60.1C69.464 60.1 70.3812 62.3591 70.3812 63.986ZM67.1729 56.5756C65.2486 56.5756 63.874 57.4793 63.5072 57.7507C63.5995 57.2989 64.0569 53.5031 69.1887 53.5031H72.397L73.5887 50.3403H69.2802C63.5987 50.3403 59.1987 52.9611 59.1987 62.0885C59.1987 67.0585 61.3983 71.1249 66.7139 71.1249C71.755 71.1249 74.3205 67.5104 74.3205 63.8958C74.3205 58.6543 70.3804 56.5756 67.1721 56.5756M48.3846 62.5403L43.4349 56.6667L43.3434 56.5756H39.953V70.6739H43.894V62.4501L47.7426 67.2398L47.8349 67.4202H48.842L52.7838 62.4501V70.6739H56.7247V56.5756H53.3334L48.3846 62.5403ZM32.9875 64.7994C32.9875 66.6977 31.8882 68.0532 29.7801 68.0532C27.7634 68.0532 27.5805 66.8781 27.5805 66.4263C27.5805 65.3423 28.4969 64.7092 30.788 64.4378C31.4291 64.3476 32.0711 64.3476 32.7123 64.3476H32.9875V64.7994ZM36.6532 67.5104V62.4501C36.4703 58.0221 34.5451 56.2148 30.5127 56.2148C27.7634 56.2148 25.9306 57.2989 25.2886 57.7507L26.388 60.6428C26.388 60.6428 28.0387 59.1964 30.146 59.1964C33.1705 59.1964 32.8038 61.6367 32.8038 61.6367C31.7967 61.6367 23.6395 61.1849 23.6395 66.4263C23.6395 69.3185 26.1135 70.9445 28.7713 70.9445C31.1547 70.9445 32.5293 69.7695 32.8961 69.3185C32.8961 69.4087 32.9875 70.6739 32.9875 70.6739H36.6532C36.837 70.6739 36.6532 69.4989 36.6532 67.5104ZM19.1489 56.9373C19.1489 59.2874 16.8579 60.1 15.3003 60.1H13.2836V53.6843H15.3003C16.8579 53.7745 19.1489 54.5879 19.1489 56.9373ZM15.6662 50.3403H9.25122V70.7633H13.3751V63.5342H15.5747C19.7909 63.5342 23.2736 61.3661 23.2736 56.9373C23.2736 52.5994 19.7909 50.3403 15.667 50.3403" fill="#42444A"/>
</svg>
