<svg width="148" height="127" viewBox="0 0 148 127" fill="none" xmlns="http://www.w3.org/2000/svg">
<g clip-path="url(#clip0_1465_1985)">
<path d="M106.423 52.7236C103.171 52.7236 98.2539 54.3101 98.2539 60.5041C98.2539 66.6981 103.609 68.2371 106.423 68.2371C109.237 68.2371 114.592 66.6981 114.592 60.5041C114.592 54.3101 109.675 52.7236 106.423 52.7236ZM110.483 60.4851C110.483 64.5036 108.137 65.5011 106.433 65.5011C104.729 65.5011 102.373 64.5036 102.373 60.4851C102.373 56.4666 104.865 55.4691 106.423 55.4691C107.981 55.4691 110.483 56.4666 110.483 60.4851Z" fill="#42444A"/>
<path d="M91.8181 59.8675L98.147 52.885H93.5512L87.7481 59.345V48.382C87.7481 47.394 87.1249 45.969 84.6615 45.9975C84.3888 45.9975 84.0967 46.0165 83.7852 46.064V68.0375H87.7481V60.352L94.0088 68.0375H98.5267L91.8278 59.858L91.8181 59.8675Z" fill="#42444A"/>
<path d="M125.391 52.7419C123.005 52.7419 121.564 53.5684 120.931 54.0434C120.844 54.0909 120.766 54.1479 120.678 54.2049C120.298 53.4639 119.471 52.7324 117.747 52.7324C117.465 52.7324 117.163 52.7514 116.842 52.7989V68.0654H120.922V56.6274C122.002 55.6109 125.011 55.0694 126.384 56.4469C127.153 57.2259 127.309 58.3184 127.309 59.3444V68.0749H131.389V58.5939C131.389 54.7084 128.312 52.7514 125.371 52.7514L125.391 52.7419Z" fill="#42444A"/>
<path d="M58.8295 52.7139C54.9153 52.7139 52.1305 54.5189 52.1305 54.5189L53.3574 56.6754C55.1976 55.6874 57.9337 55.1839 59.6084 55.5544C60.8353 55.8299 61.3611 56.6469 61.624 57.4069C61.7603 57.8059 61.7311 59.0694 61.7311 59.0694V58.6609C59.5598 58.1859 51.3613 57.1409 51.3613 63.4679C51.3613 65.8239 52.8998 67.7334 56.22 68.1514C58.2161 68.3984 60.0661 67.9994 61.7311 66.9259C61.8187 66.8689 61.8966 66.8214 61.9842 66.7644C62.364 67.5054 63.1916 68.2369 64.915 68.2369C65.1974 68.2369 65.4992 68.2179 65.8205 68.1704V57.9104C65.8205 53.7209 61.439 52.7234 58.8392 52.7234L58.8295 52.7139ZM61.7311 60.9504V64.3324C60.1245 65.3109 58.7516 65.4819 57.9532 65.4819C57.0184 65.4819 55.4021 65.1304 55.3047 63.2209C55.1295 59.8674 59.5305 60.3709 61.7311 60.8364V60.9504Z" fill="#42444A"/>
<path d="M73.5814 58.3196C72.0137 57.7971 71.9066 57.1891 72.0527 56.5621C72.4811 54.7571 76.8724 55.3651 79.3066 56.5621L80.514 54.3961C79.2093 53.5601 76.8822 52.7051 74.3214 52.7051C72.1014 52.7051 70.0761 53.2466 68.9466 54.8996C67.8658 56.4766 68.0314 58.8706 69.8619 60.1626C71.264 61.1411 73.8637 61.8726 75.704 62.2621C76.8335 62.4996 77.7877 62.9746 77.4956 64.2001C77.1743 65.5681 73.9611 66.6036 69.6185 63.3356L68.0703 65.2926C68.0703 65.2926 70.4753 68.0001 74.4479 68.2186C78.5277 68.4466 81.5461 66.2711 81.3416 63.2881C81.0982 59.6591 77.3495 59.5641 73.5814 58.3101V58.3196Z" fill="#42444A"/>
<path d="M141.019 52.7139C137.105 52.7139 134.32 54.5189 134.32 54.5189L135.547 56.6754C137.387 55.6874 140.123 55.1839 141.798 55.5544C143.025 55.8299 143.551 56.6469 143.813 57.4069C143.95 57.8059 143.921 59.0694 143.921 59.0694V58.6609C141.749 58.1859 133.551 57.1409 133.551 63.4679C133.551 65.8239 135.089 67.7334 138.409 68.1514C140.406 68.3984 142.256 67.9994 143.921 66.9259C144.008 66.8689 144.086 66.8214 144.174 66.7644C144.553 67.5054 145.381 68.2369 147.104 68.2369C147.387 68.2369 147.689 68.2179 148.01 68.1704V57.9104C148.01 53.7209 143.628 52.7234 141.029 52.7234L141.019 52.7139ZM143.921 60.9504V64.3324C142.314 65.3109 140.941 65.4819 140.143 65.4819C139.208 65.4819 137.592 65.1304 137.494 63.2209C137.319 59.8674 141.72 60.3709 143.921 60.8364V60.9504Z" fill="#42444A"/>
<path d="M6.48564 75.7322V80.0642H5.71643V76.4637H3.9638V78.2307C3.9638 78.9432 3.81775 79.4372 3.52564 79.7127C3.23354 79.9882 2.82459 80.1117 2.28906 80.0642V79.3517C2.5909 79.3897 2.81485 79.3232 2.97064 79.1522C3.11669 78.9812 3.19459 78.6677 3.19459 78.2022V75.7227H6.48564V75.7322Z" fill="#42444A"/>
<path d="M8.19881 78.2402C8.27671 78.6297 8.46171 78.9242 8.74407 79.1427C9.02644 79.3612 9.38671 79.4657 9.80538 79.4657C10.3896 79.4657 10.818 79.2567 11.0809 78.8292L11.7333 79.1902C11.3049 79.8457 10.6525 80.1687 9.77617 80.1687C9.07513 80.1687 8.50065 79.9502 8.0625 79.5227C7.62434 79.0952 7.40039 78.5442 7.40039 77.8887C7.40039 77.2332 7.6146 76.6917 8.05276 76.2642C8.48118 75.8272 9.04592 75.6182 9.7275 75.6182C10.3799 75.6182 10.9056 75.8462 11.3243 76.2927C11.7333 76.7392 11.9377 77.2807 11.9377 77.9077C11.9377 78.0217 11.9377 78.1262 11.9085 78.2497H8.18908L8.19881 78.2402ZM9.7275 76.3307C9.30881 76.3307 8.96802 76.4447 8.69539 76.6727C8.42276 76.9007 8.25723 77.2047 8.18908 77.5847H11.1588C11.0906 77.1762 10.9251 76.8627 10.6622 76.6537C10.3993 76.4447 10.0877 76.3307 9.7275 76.3307Z" fill="#42444A"/>
<path d="M15.9595 75.7324V76.4639H14.4503V80.0644H13.6811V76.4639H12.1621V75.7324H15.9595Z" fill="#42444A"/>
<path d="M76.3955 80.1782C75.7236 80.1782 75.1686 79.9597 74.7305 79.5227C74.2826 79.0857 74.0684 78.5442 74.0684 77.8982C74.0684 77.2522 74.2923 76.7107 74.7305 76.2737C75.1784 75.8367 75.7334 75.6182 76.3955 75.6182C76.8336 75.6182 77.2231 75.7227 77.5736 75.9222C77.9241 76.1312 78.187 76.4067 78.3526 76.7487L77.7002 77.1097C77.5834 76.8817 77.4178 76.6917 77.1841 76.5587C76.9505 76.4162 76.6876 76.3497 76.3857 76.3497C75.9378 76.3497 75.5678 76.5017 75.2757 76.7962C74.9739 77.0907 74.8278 77.4612 74.8278 77.8982C74.8278 78.3352 74.9739 78.6962 75.2757 78.9907C75.5776 79.2852 75.9476 79.4372 76.3857 79.4372C76.6778 79.4372 76.9505 79.3707 77.1841 79.2377C77.4178 79.1047 77.6028 78.9147 77.7294 78.6867L78.3818 79.0572C78.1968 79.3992 77.9242 79.6747 77.5639 79.8742C77.2134 80.0832 76.8141 80.1782 76.3857 80.1782H76.3955Z" fill="#42444A"/>
<path d="M83.016 75.7324V80.0644H82.2468V76.4544H79.9489V80.0644H79.1797V75.7324H83.0257H83.016Z" fill="#42444A"/>
<path d="M87.4084 75.7324H88.0316V80.0644H87.2721V77.0244L84.8087 80.0644H84.1855V75.7324H84.945V78.7724L87.4084 75.7324Z" fill="#42444A"/>
<path d="M92.5103 75.7324V76.4639H91.001V80.0644H90.2318V76.4639H88.7129V75.7324H92.5103Z" fill="#42444A"/>
<path d="M93.5426 78.2402C93.6205 78.6297 93.8055 78.9242 94.0878 79.1427C94.3702 79.3517 94.7305 79.4657 95.1491 79.4657C95.7334 79.4657 96.1618 79.2567 96.4247 78.8292L97.077 79.1902C96.6486 79.8457 95.9962 80.1687 95.1199 80.1687C94.4189 80.1687 93.8444 79.9502 93.4062 79.5227C92.9681 79.0952 92.7441 78.5442 92.7441 77.8887C92.7441 77.2332 92.9583 76.6917 93.3965 76.2642C93.8249 75.8272 94.3897 75.6182 95.0712 75.6182C95.7236 75.6182 96.2494 75.8462 96.6681 76.2927C97.077 76.7392 97.2815 77.2807 97.2815 77.9077C97.2815 78.0217 97.2815 78.1262 97.2523 78.2497H93.5328L93.5426 78.2402ZM95.081 76.3307C94.6623 76.3307 94.3215 76.4447 94.0489 76.6727C93.7762 76.9007 93.6107 77.2047 93.5426 77.5847H96.5123C96.4441 77.1762 96.2786 76.8627 96.0157 76.6442C95.7528 76.4352 95.4412 76.3212 95.081 76.3212V76.3307Z" fill="#42444A"/>
<path d="M98.9846 79.1719L98.4102 81.2809H97.748L98.0986 79.1719H98.9846Z" fill="#42444A"/>
<path d="M105.089 75.7324H105.858V80.0644H105.089V78.5064C104.738 78.6584 104.329 78.7344 103.891 78.7344C103.326 78.7344 102.879 78.6014 102.577 78.3354C102.265 78.0694 102.109 77.6799 102.109 77.1669V75.7324H102.879V77.1289C102.879 77.4519 102.966 77.6799 103.151 77.8224C103.336 77.9649 103.599 78.0314 103.95 78.0314C104.368 78.0314 104.748 77.9554 105.099 77.8034V75.7324H105.089Z" fill="#42444A"/>
<path d="M110.338 75.7324V76.4639H108.829V80.0644H108.06V76.4639H106.541V75.7324H110.338Z" fill="#42444A"/>
<path d="M114.584 79.5139C114.126 79.9509 113.571 80.1694 112.919 80.1694C112.267 80.1694 111.712 79.9509 111.264 79.5139C110.806 79.0769 110.582 78.5354 110.582 77.8894C110.582 77.2434 110.806 76.7114 111.264 76.2649C111.721 75.8279 112.267 75.6094 112.919 75.6094C113.571 75.6094 114.126 75.8279 114.584 76.2649C115.042 76.7019 115.265 77.2434 115.265 77.8894C115.265 78.5354 115.042 79.0674 114.584 79.5139ZM112.919 79.4379C113.367 79.4379 113.737 79.2859 114.039 78.9914C114.34 78.6969 114.496 78.3264 114.496 77.8894C114.496 77.4524 114.34 77.0819 114.039 76.7874C113.737 76.4929 113.367 76.3409 112.919 76.3409C112.471 76.3409 112.111 76.4929 111.809 76.7874C111.507 77.0819 111.351 77.4524 111.351 77.8894C111.351 78.3264 111.507 78.6969 111.809 78.9914C112.111 79.2859 112.481 79.4379 112.919 79.4379Z" fill="#42444A"/>
<path d="M118.196 80.1788C117.544 80.1788 116.999 79.9698 116.57 79.5423C116.142 79.1243 115.928 78.5733 115.928 77.9178C115.928 77.1768 116.035 76.6068 116.259 76.2078C116.483 75.8088 116.931 75.4478 117.622 75.1248C117.749 75.0678 117.914 74.9918 118.128 74.8968C118.342 74.8018 118.498 74.7353 118.605 74.6878C118.703 74.6403 118.82 74.5738 118.946 74.4883C119.073 74.4028 119.16 74.3078 119.229 74.2128C119.287 74.1083 119.336 73.9943 119.365 73.8613L119.988 74.2033C119.969 74.2983 119.949 74.3838 119.92 74.4598C119.891 74.5358 119.852 74.6118 119.793 74.6878C119.735 74.7638 119.686 74.8208 119.647 74.8778C119.608 74.9253 119.54 74.9823 119.443 75.0488C119.345 75.1153 119.277 75.1533 119.229 75.1818C119.18 75.2103 119.102 75.2578 118.975 75.3148C118.849 75.3718 118.761 75.4098 118.722 75.4288C118.674 75.4478 118.576 75.4858 118.42 75.5523C118.265 75.6093 118.167 75.6473 118.138 75.6663C117.739 75.8373 117.437 76.0083 117.252 76.1793C117.067 76.3503 116.931 76.5688 116.853 76.8348C117.038 76.6068 117.281 76.4358 117.564 76.3218C117.846 76.2078 118.128 76.1603 118.42 76.1603C118.975 76.1603 119.452 76.3408 119.832 76.7113C120.222 77.0818 120.416 77.5568 120.416 78.1363C120.416 78.7158 120.212 79.2098 119.793 79.5993C119.375 79.9793 118.849 80.1788 118.216 80.1788H118.196ZM117.155 79.0673C117.437 79.3238 117.778 79.4473 118.196 79.4473C118.615 79.4473 118.956 79.3238 119.219 79.0768C119.491 78.8298 119.618 78.5163 119.618 78.1458C119.618 77.7753 119.491 77.4428 119.229 77.1958C118.975 76.9488 118.635 76.8253 118.216 76.8253C117.836 76.8253 117.495 76.9393 117.194 77.1768C116.892 77.4143 116.736 77.7183 116.736 78.0983C116.736 78.4783 116.872 78.8108 117.155 79.0673Z" fill="#42444A"/>
<path d="M123.094 77.2904C123.542 77.2904 123.902 77.4234 124.204 77.6799C124.496 77.9364 124.642 78.2689 124.642 78.6774C124.642 79.0859 124.496 79.4184 124.204 79.6749C123.912 79.9314 123.542 80.0644 123.094 80.0644H121.225V75.7324H121.994V77.2904H123.094ZM123.094 79.3614C123.308 79.3614 123.503 79.2949 123.649 79.1714C123.795 79.0479 123.873 78.8769 123.873 78.6774C123.873 78.4779 123.795 78.2974 123.649 78.1739C123.493 78.0504 123.308 77.9839 123.094 77.9839H121.994V79.3614H123.094ZM125.217 75.7324H125.986V80.0644H125.217V75.7324Z" fill="#42444A"/>
<path d="M134.846 80.0644H133.94L132.275 78.0124V80.0644H131.516V78.0124L129.851 80.0644H128.955L130.815 77.8319L129.052 75.7324H129.948L131.516 77.6514V75.7324H132.275V77.6514L133.843 75.7324H134.748L132.976 77.8319L134.846 80.0644Z" fill="#42444A"/>
<path d="M138.809 75.7324H139.432V80.0644H138.673V77.0244L136.209 80.0644H135.586V75.7324H136.345V78.7724L138.809 75.7324Z" fill="#42444A"/>
<path d="M143.911 75.7324V76.4639H142.401V80.0644H141.632V76.4639H140.113V75.7324H143.911Z" fill="#42444A"/>
<path d="M146.452 77.2904C146.899 77.2904 147.26 77.4234 147.562 77.6799C147.854 77.9364 148 78.2689 148 78.6774C148 79.0859 147.854 79.4184 147.562 79.6749C147.269 79.9314 146.899 80.0644 146.452 80.0644H144.582V75.7324H145.351V77.2904H146.452ZM146.452 79.3614C146.666 79.3614 146.86 79.2949 147.006 79.1714C147.153 79.0479 147.23 78.8769 147.23 78.6774C147.23 78.4779 147.153 78.2974 147.006 78.1739C146.851 78.0504 146.666 77.9839 146.452 77.9839H145.351V79.3614H146.452Z" fill="#42444A"/>
<path d="M23.7673 75.2197C22.2386 75.2197 20.9923 76.4357 21.002 77.9367C21.002 79.4282 22.2483 80.6347 23.777 80.6347C25.3057 80.6347 26.552 79.4187 26.552 77.9272C26.552 76.4357 25.3057 75.2292 23.777 75.2292" fill="#42444A"/>
<path d="M34.2351 69.9658C32.1806 69.9658 30.5059 71.6093 30.5059 73.6138C30.5059 75.6183 32.1806 77.2523 34.2351 77.2523C36.2993 77.2523 37.974 75.6088 37.974 73.6043C37.974 71.5998 36.2895 69.9658 34.2351 69.9658Z" fill="#42444A"/>
<path d="M38.4797 58.6992H38.4699C35.7631 58.6992 33.5626 60.8557 33.5723 63.5062C33.5723 66.1377 35.7826 68.2847 38.4797 68.2847C41.1962 68.2847 43.3968 66.1282 43.3968 63.4777C43.3968 60.8367 41.1865 58.6992 38.4797 58.6992Z" fill="#42444A"/>
<path d="M14.9947 61.8906C14.1184 60.8266 12.9695 60.0761 11.5382 59.6391L15.1213 55.3356V50.8516H1.77211V56.1716H8.15947L4.64447 60.3611L6.85474 63.5531H8.07184C8.88 63.5531 9.50316 63.7336 9.94132 64.1041C10.3795 64.4651 10.5937 64.9591 10.5937 65.5861C10.5937 66.2131 10.3697 66.7071 9.94132 67.0871C9.50316 67.4576 8.88 67.6476 8.07184 67.6476C6.49447 67.6476 5.46237 66.8876 4.995 65.3676L0 68.1511C0.642632 69.7756 1.68447 71.0011 3.12553 71.8371C4.56658 72.6731 6.21211 73.0911 8.07184 73.0911C10.3989 73.0911 12.3561 72.4546 13.9334 71.1816C15.5108 69.9086 16.2995 68.0941 16.2995 65.7476C16.2995 64.2466 15.8613 62.9641 14.985 61.9001L14.9947 61.8906Z" fill="#42444A"/>
<path d="M28.9962 55.4975C27.5357 54.2435 25.7052 53.626 23.5047 53.626H21.9078V51.2985H29.1715V51.2795H29.191V46.2445H29.1715V45.9785H15.832V51.2985H15.8515V58.7845H23.0276C23.7773 58.7845 24.3712 58.965 24.8094 59.3165C25.2476 59.668 25.4618 60.1715 25.4618 60.8175C25.4618 61.4635 25.2378 61.9385 24.8094 62.2995C24.3712 62.6605 23.7481 62.8505 22.9399 62.8505C21.2068 62.8505 20.1065 62.0905 19.6391 60.5705L16.3968 62.3755C16.9323 63.278 17.2049 64.3135 17.2049 65.4915C17.2049 65.881 17.1855 66.261 17.1368 66.622C17.351 66.774 17.5749 66.926 17.8086 67.059C19.1523 67.819 20.7199 68.2275 22.5115 68.2845C23.3391 68.2845 24.5368 68.3035 26.2699 67.667C27.6623 67.1635 31.1968 65.2065 31.1968 60.8175C31.1968 58.528 30.4665 56.7515 29.006 55.507L28.9962 55.4975Z" fill="#42444A"/>
</g>
<defs>
<clipPath id="clip0_1465_1985">
<rect width="148" height="127" fill="white"/>
</clipPath>
</defs>
</svg>
