<svg width="148" height="127" viewBox="0 0 148 127" fill="none" xmlns="http://www.w3.org/2000/svg">
<path d="M25.0676 64.3394C24.9235 57.5514 19.595 52.1074 13.0405 52.1074C6.39384 52.1074 1 57.7164 1 64.6274H5.81353C5.81353 70.1534 10.1265 74.6374 15.4406 74.6374C20.6634 74.6374 24.9235 70.3044 25.0676 64.9014V64.3394ZM15.4406 69.6324C14.8085 69.6337 14.1824 69.5052 13.5981 69.2542C13.0139 69.0032 12.483 68.6347 12.0358 68.1697C11.5886 67.7048 11.234 67.1525 10.9923 66.5447C10.7505 65.9368 10.6264 65.2853 10.6271 64.6274C10.6264 63.9696 10.7505 63.318 10.9923 62.7102C11.234 62.1023 11.5886 61.5501 12.0358 61.0851C12.483 60.6202 13.0139 60.2516 13.5981 60.0006C14.1824 59.7496 14.8085 59.6211 15.4406 59.6224C16.0727 59.6211 16.6988 59.7496 17.283 60.0006C17.8673 60.2516 18.3982 60.6202 18.8454 61.0851C19.2926 61.5501 19.6472 62.1023 19.8889 62.7102C20.1306 63.318 20.2548 63.9696 20.2541 64.6274C20.2548 65.2853 20.1306 65.9368 19.8889 66.5447C19.6472 67.1525 19.2926 67.7048 18.8454 68.1697C18.3982 68.6347 17.8673 69.0032 17.283 69.2542C16.6988 69.5052 16.0727 69.6337 15.4406 69.6324ZM93.5918 56.7694C89.3979 56.7694 85.9823 60.2944 85.9823 64.6134C85.9823 69.0154 89.3191 72.4574 93.5918 72.4574C97.8519 72.4574 101.201 69.0154 101.201 64.6134C101.188 60.2934 97.7856 56.7694 93.5918 56.7694ZM93.5918 69.1794C91.3502 69.1794 89.715 67.0964 89.715 64.6274C89.715 62.1594 91.3368 60.0744 93.5918 60.0744C95.7814 60.0744 97.4291 62.2004 97.4291 64.6274C97.4291 67.0964 95.8073 69.1794 93.5918 69.1794ZM60.1603 57.1124L60.1478 58.8544C60.1478 58.8544 59.9758 58.6344 59.8307 58.4704C59.1198 57.5794 57.7343 56.7834 55.7167 56.7834C51.984 56.7834 48.9374 60.3074 48.9374 64.6274C48.9374 68.9604 51.984 72.4714 55.7167 72.4714C57.7478 72.4714 59.1188 71.6764 59.8307 70.7844C59.9758 70.6064 60.1478 70.4004 60.1478 70.4004L60.1613 72.1424H63.8535V57.1124H60.1603ZM60.3851 64.6274C60.3851 67.1914 58.868 69.1804 56.5737 69.1804C54.2793 69.1804 52.67 67.1914 52.67 64.6274C52.67 62.0634 54.2793 60.0744 56.5737 60.0744C58.868 60.0614 60.3851 62.0494 60.3851 64.6274C60.3851 64.6134 60.3851 64.6134 60.3851 64.6274ZM129.213 57.1124L129.199 58.8544C129.199 58.8544 129.027 58.6344 128.882 58.4704C128.17 57.5794 126.786 56.7834 124.768 56.7834C121.036 56.7834 117.99 60.3074 117.99 64.6274C117.99 68.9604 121.036 72.4714 124.768 72.4714C126.799 72.4714 128.17 71.6764 128.882 70.7844C129.027 70.6064 129.199 70.4004 129.199 70.4004L129.213 72.1424H132.905V57.1124H129.213ZM129.437 64.6274C129.437 67.1914 127.92 69.1804 125.625 69.1804C123.331 69.1804 121.722 67.1914 121.722 64.6274C121.722 62.0634 123.331 60.0744 125.625 60.0744C127.92 60.0614 129.437 62.0494 129.437 64.6274C129.437 64.6134 129.437 64.6134 129.437 64.6274ZM43.386 62.6254H47.1186C46.2078 58.9504 43.5176 56.7704 39.8916 56.7704C35.5527 56.7704 32.2822 60.1434 32.2822 64.6134C32.2822 69.0834 35.5527 72.4574 39.8916 72.4574C43.5176 72.4574 46.2078 70.2774 47.1186 66.6024H43.3725C42.7 68.1794 41.4999 69.1664 39.8916 69.1664C37.6097 69.1664 36.0139 67.1914 36.0139 64.6134C36.0139 62.0224 37.6097 60.0614 39.8916 60.0614C41.4999 60.0614 42.7134 61.0484 43.386 62.6254ZM70.3292 57.1124H67.15V72.1294H70.8558V62.8994L75.2869 68.7964L79.6911 62.8994V72.1294H83.3969V57.1114H80.2186L75.2609 63.7074L70.3283 57.1114L70.3292 57.1124ZM117.08 57.1124H112.714L107.452 63.7084V57.1124H103.746V72.1294H107.452V65.6434L113.321 72.1294H118.055L111.066 64.5054L117.08 57.1124ZM139.777 72.1294H143.482V60.3494H147.847V57.1124H135.424V60.3494H139.777V72.1294Z" fill="#42444A"/>
</svg>
