<svg width="148" height="127" viewBox="0 0 148 127" fill="none" xmlns="http://www.w3.org/2000/svg">
<path d="M68.9945 41.4863C67.7774 40.3122 66.2907 39.4548 64.6648 38.9894C63.0389 38.524 61.3235 38.4647 59.6694 38.8169C58.0152 39.169 56.4728 39.9218 55.1776 41.0092C53.8825 42.0965 52.8741 43.4851 52.2411 45.053C51.6081 46.621 51.3698 48.3203 51.5472 50.0018C51.7246 51.6833 52.3122 53.2956 53.2584 54.697C54.2046 56.0985 55.4805 57.2462 56.974 58.0395C58.4676 58.8328 60.1331 59.2474 61.8243 59.2469H86.7517L68.9945 41.4863ZM78.3439 24C76.3159 23.9986 74.3323 24.5943 72.6407 25.7128C70.9491 26.8312 69.6244 28.4229 68.8319 30.2892C68.0393 32.1556 67.814 34.2139 68.1841 36.2074C68.5542 38.201 69.5033 40.0414 70.9129 41.4991L88.6774 59.2525V34.3309C88.6774 32.9743 88.4101 31.6308 87.8909 30.3774C87.3716 29.124 86.6104 27.9851 85.6508 27.0258C84.6913 26.0665 83.5521 25.3055 82.2984 24.7863C81.0447 24.2672 79.7009 24 78.3439 24ZM116.967 38.5848C114.29 38.583 111.718 39.6237 109.797 41.4861L92.039 59.2471H116.967C119.707 59.2471 122.336 58.1586 124.274 56.2212C126.212 54.2837 127.3 51.6559 127.3 48.9159C127.3 46.176 126.212 43.5482 124.274 41.6107C122.336 39.6732 119.707 38.5848 116.967 38.5848ZM107.878 41.4993C109.053 40.2826 109.91 38.7962 110.375 37.1708C110.841 35.5453 110.9 33.8305 110.548 32.1768C110.196 30.5232 109.443 28.9812 108.355 27.6865C107.268 26.3917 105.879 25.3836 104.31 24.7508C102.742 24.118 101.042 23.8798 99.3607 24.0571C97.6788 24.2344 96.0662 24.8218 94.6645 25.7676C93.2627 26.7135 92.1147 27.989 91.3212 29.4821C90.5277 30.9752 90.1129 32.6402 90.1134 34.3309V59.2523L107.878 41.4993Z" fill="#42444A"/>
<path d="M91.8789 76.9876C90.96 77.2373 90.0125 77.367 89.0603 77.3736C88.3911 77.4013 87.724 77.2832 87.105 77.0274C86.6171 76.7968 86.3733 76.4511 86.3736 75.9901C86.3736 75.5824 86.6131 75.2857 87.092 75.1C87.8455 74.8437 88.6195 74.6523 89.4056 74.5281C90.3813 74.3778 91.3453 74.16 92.2908 73.8761C93.0338 73.6436 93.7063 73.2276 94.246 72.6667C94.7951 72.0999 95.0698 71.3199 95.0703 70.3269C95.0929 69.6377 94.9326 68.9548 94.6056 68.3477C94.2787 67.7405 93.7967 67.2308 93.2087 66.8704C91.9677 66.0555 90.3808 65.6479 88.448 65.6476C87.4619 65.6487 86.4794 65.7693 85.5223 66.0067C84.59 66.2297 83.6882 66.5644 82.8363 67.0037L84.0329 69.7952C84.6872 69.4878 85.3744 69.2559 86.0811 69.104C86.8563 68.916 87.6505 68.8179 88.448 68.8117C89.1043 68.7811 89.759 68.8992 90.3632 69.1571C90.5691 69.2407 90.745 69.3843 90.8683 69.5692C90.9915 69.7541 91.0562 69.9718 91.054 70.194C91.054 70.6376 90.8104 70.9523 90.3233 71.1381C89.5561 71.3943 88.7688 71.5856 87.9696 71.7099C87.0078 71.8765 86.0573 72.1028 85.1236 72.3876C84.3911 72.6193 83.7282 73.0306 83.1953 73.5839C82.6549 74.1426 82.3847 74.9092 82.3847 75.8839C82.3847 77.3559 83.0229 78.4904 84.2991 79.2876C85.5762 80.0851 87.1986 80.4839 89.1665 80.4837C90.2836 80.4837 91.3961 80.3409 92.477 80.0587C93.5153 79.7964 94.513 79.3938 95.4425 78.8621L94.2458 76.0966C93.4964 76.4896 92.7015 76.7888 91.8789 76.9876ZM143 66.2126H139.471V67.1721C138.402 66.5451 137.188 66.2093 135.949 66.1982C134.71 66.1871 133.489 66.5011 132.409 67.1088C131.329 67.7166 130.428 68.5969 129.794 69.6618C129.161 70.7267 128.818 71.9391 128.8 73.1779C128.782 74.4167 129.089 75.6386 129.691 76.7217C130.292 77.8048 131.168 78.7112 132.229 79.3504C133.291 79.9897 134.501 80.3394 135.74 80.3647C136.979 80.3901 138.203 80.0901 139.29 79.4948C139.197 79.8654 139.064 80.2249 138.893 80.5671C137.882 82.5848 135.668 83.8884 133.254 83.8884C130.836 83.8884 128.621 82.5821 127.612 80.5592C127.243 79.8243 127.051 79.0133 127.053 78.1911L127.035 66.2126H123.505V67.1804C122.425 66.5403 121.194 66.1987 119.938 66.1905C118.682 66.1822 117.446 66.5078 116.357 67.1337C115.268 67.7596 114.365 68.6635 113.741 69.7529C113.116 70.8422 112.792 72.0779 112.802 73.3336C112.812 74.5893 113.155 75.8198 113.797 76.8992C114.438 77.9787 115.355 78.8684 116.454 79.4772C117.552 80.0861 118.793 80.3923 120.048 80.3645C121.304 80.3367 122.53 79.9758 123.6 79.3189C123.724 80.2987 124.013 81.2506 124.454 82.1342C126.055 85.3434 129.509 87.4171 133.255 87.4171C136.992 87.4171 140.444 85.3483 142.048 82.1477C142.666 80.9223 142.988 79.5687 142.986 78.1963H143V66.2126ZM119.911 76.8375C119.207 76.8375 118.519 76.6289 117.933 76.2379C117.348 75.8469 116.891 75.2911 116.622 74.6408C116.352 73.9905 116.282 73.2749 116.419 72.5844C116.556 71.894 116.895 71.2598 117.393 70.762C117.891 70.2642 118.525 69.9251 119.216 69.7877C119.906 69.6503 120.622 69.7207 121.273 69.99C121.923 70.2593 122.479 70.7154 122.87 71.3007C123.262 71.8859 123.471 72.574 123.471 73.2779C123.47 74.2215 123.095 75.1263 122.427 75.7937C121.76 76.461 120.855 76.8364 119.911 76.8375ZM135.889 76.8375C135.185 76.8374 134.497 76.6286 133.912 76.2375C133.326 75.8463 132.87 75.2905 132.601 74.6402C132.331 73.9898 132.261 73.2743 132.398 72.5839C132.536 71.8935 132.875 71.2594 133.373 70.7617C133.87 70.264 134.505 69.925 135.195 69.7877C135.886 69.6503 136.601 69.7208 137.252 69.9901C137.902 70.2594 138.458 70.7155 138.85 71.3007C139.241 71.886 139.45 72.574 139.45 73.2779C139.449 74.2217 139.074 75.1266 138.406 75.794C137.738 76.4613 136.833 76.8366 135.889 76.8375ZM48.277 68.2534C47.5059 67.4323 46.5637 66.7908 45.5171 66.3741C44.0616 65.8065 42.6371 65.1626 41.2494 64.4451C40.466 64.0053 40.074 63.5915 40.0734 63.2037C40.0734 62.7108 40.4874 62.4644 41.3153 62.4644H48.4772V59.1885H39.8356C38.6203 59.1885 37.6736 59.4616 36.9957 60.0078C36.6614 60.2757 36.395 60.6187 36.2182 61.0089C36.0414 61.3991 35.9591 61.8254 35.9781 62.2533C35.9781 63.9965 37.4138 65.5376 40.2852 66.8766C40.2621 66.889 40.2426 66.8995 40.2197 66.9114C40.0097 67.0129 39.8057 67.1243 39.6079 67.2456C39.5255 67.2933 39.4482 67.3413 39.372 67.389C39.359 67.3978 39.3448 67.4047 39.3316 67.4137C39.0186 67.6118 38.7295 67.8454 38.47 68.1098C37.4353 69.0732 36.7125 70.3241 36.3948 71.7015C36.077 73.0789 36.1787 74.5199 36.6869 75.8391C37.1951 77.1583 38.0864 78.2953 39.2462 79.1038C40.4061 79.9123 41.7813 80.3554 43.1951 80.3761C44.6089 80.3968 45.9966 79.9941 47.1796 79.2198C48.3625 78.4455 49.2868 77.3351 49.8333 76.0313C50.3798 74.7276 50.5237 73.2902 50.2463 71.904C49.969 70.5179 49.2831 69.2466 48.277 68.2534ZM43.2945 76.8469C42.5904 76.8469 41.9021 76.6382 41.3167 76.2472C40.7312 75.8562 40.2749 75.3003 40.0054 74.65C39.7359 73.9997 39.6654 73.2841 39.8027 72.5937C39.94 71.9033 40.279 71.2691 40.7768 70.7713C41.2746 70.2736 41.9089 69.9345 42.5994 69.7971C43.29 69.6597 44.0058 69.7301 44.6563 69.9994C45.3068 70.2687 45.8628 70.7249 46.2541 71.3101C46.6453 71.8953 46.8542 72.5834 46.8543 73.2873C46.8534 74.231 46.4781 75.1357 45.8107 75.8031C45.1433 76.4704 44.2384 76.8458 43.2945 76.8469ZM27.832 66.235C26.4299 66.2349 25.0592 66.6506 23.8934 67.4293C22.7275 68.2081 21.8188 69.315 21.2822 70.6101C20.7456 71.9051 20.6052 73.3302 20.8787 74.7051C21.1522 76.0799 21.8274 77.3428 22.8188 78.334C23.8103 79.3253 25.0735 80.0003 26.4486 80.2738C27.8238 80.5473 29.2492 80.4069 30.5446 79.8705C31.84 79.3341 32.9472 78.4257 33.7262 77.2601C34.5052 76.0946 34.921 74.7243 34.921 73.3225C34.9187 71.4435 34.1711 69.6422 32.8421 68.3135C31.5132 66.9848 29.7114 66.2374 27.832 66.235ZM27.832 76.8814C27.1279 76.8814 26.4397 76.6727 25.8542 76.2817C25.2688 75.8907 24.8125 75.3349 24.543 74.6846C24.2736 74.0343 24.2031 73.3187 24.3404 72.6283C24.4777 71.938 24.8167 71.3038 25.3146 70.8061C25.8124 70.3083 26.4467 69.9694 27.1372 69.832C27.8277 69.6947 28.5435 69.7651 29.194 70.0345C29.8444 70.3039 30.4004 70.76 30.7916 71.3453C31.1827 71.9305 31.3915 72.6186 31.3915 73.3225C31.3905 74.266 31.0152 75.1706 30.3478 75.8378C29.6805 76.505 28.7757 76.8803 27.832 76.8814ZM74.3962 66.2C72.994 66.2 71.6233 66.6157 70.4574 67.3945C69.2915 68.1733 68.3828 69.2802 67.8462 70.5754C67.3096 71.8705 67.1692 73.2956 67.4427 74.6705C67.7163 76.0455 68.3915 77.3084 69.383 78.2996C70.3745 79.2909 71.6378 79.9659 73.0131 80.2393C74.3883 80.5128 75.8138 80.3724 77.1092 79.8359C78.4047 79.2994 79.5119 78.3908 80.2908 77.2252C81.0698 76.0596 81.4855 74.6892 81.4854 73.2873C81.483 71.4084 80.7354 69.6071 79.4064 68.2785C78.0774 66.9499 76.2756 66.2023 74.3962 66.2ZM74.3962 76.8466C73.6921 76.8467 73.0038 76.638 72.4183 76.247C71.8329 75.8559 71.3765 75.3001 71.1071 74.6498C70.8376 73.9994 70.767 73.2838 70.9043 72.5934C71.0417 71.903 71.3807 71.2688 71.8785 70.771C72.3764 70.2733 73.0107 69.9342 73.7012 69.7969C74.3918 69.6595 75.1076 69.7299 75.7581 69.9993C76.4086 70.2686 76.9646 70.7248 77.3558 71.31C77.747 71.8953 77.9559 72.5834 77.9559 73.2873C77.955 74.231 77.5797 75.1357 76.9124 75.8031C76.245 76.4704 75.3401 76.8458 74.3962 76.8469V76.8466ZM58.894 66.1908C57.6447 66.1913 56.4181 66.5242 55.3401 67.1553V66.2126H51.8115V73.1524C51.8106 73.1946 51.8047 73.2358 51.8047 73.2779C51.8047 73.3205 51.8106 73.3617 51.8115 73.404V83.8546H55.3401V79.4016C56.2808 79.9476 57.3346 80.2697 58.4199 80.343C59.5051 80.4163 60.5927 80.2389 61.5983 79.8244C62.604 79.4099 63.5007 78.7695 64.2189 77.9529C64.9372 77.1362 65.4578 76.1652 65.7403 75.115C66.0228 74.0649 66.0597 72.9638 65.8481 71.8971C65.6366 70.8304 65.1822 69.8267 64.5202 68.9638C63.8582 68.1009 63.0065 67.4019 62.0308 66.921C61.0552 66.4402 59.9819 66.1903 58.8942 66.1908M58.8942 76.8377C57.961 76.8361 57.0656 76.4683 56.4009 75.8134C55.7362 75.1585 55.3553 74.2688 55.3401 73.3359V73.2203C55.3521 72.5196 55.571 71.838 55.9692 71.2613C56.3675 70.6845 56.9273 70.2382 57.5784 69.9785C58.2295 69.7188 58.9429 69.6572 59.6289 69.8015C60.3149 69.9458 60.9429 70.2895 61.4342 70.7895C61.9254 71.2894 62.2579 71.9234 62.39 72.6117C62.522 73.3 62.4477 74.012 62.1763 74.6582C61.9049 75.3044 61.4486 75.856 60.8647 76.2438C60.2807 76.6315 59.5952 76.8382 58.8942 76.8377ZM104.403 66.1908C103.149 66.1913 101.918 66.5269 100.837 67.163V66.2126H97.3081V83.8546H100.837V79.394C101.777 79.9422 102.831 80.2665 103.917 80.3417C105.002 80.417 106.091 80.2412 107.098 79.828C108.105 79.4148 109.003 78.7753 109.722 77.9591C110.442 77.1429 110.964 76.1719 111.248 75.1215C111.531 74.071 111.569 72.9694 111.358 71.9019C111.147 70.8345 110.693 69.83 110.031 68.9663C109.369 68.1026 108.517 67.403 107.541 66.9217C106.565 66.4403 105.491 66.1903 104.403 66.1908ZM104.403 76.8377C103.699 76.8377 103.011 76.629 102.425 76.238C101.84 75.847 101.384 75.2912 101.114 74.6408C100.845 73.9905 100.774 73.2749 100.911 72.5845C101.049 71.8941 101.388 71.2599 101.885 70.7622C102.383 70.2644 103.017 69.9253 103.708 69.7879C104.399 69.6505 105.114 69.7209 105.765 69.9902C106.415 70.2596 106.971 70.7157 107.363 71.3009C107.754 71.8861 107.963 72.5742 107.963 73.2781C107.962 74.2218 107.587 75.1266 106.919 75.7939C106.252 76.4612 105.347 76.8366 104.403 76.8377ZM19.2003 66.2128H15.6715V67.1728C14.5948 66.5383 13.3694 66.1997 12.1196 66.1912C10.8698 66.1828 9.63995 66.5048 8.55475 67.1247C7.46955 67.7446 6.56756 68.6403 5.9402 69.721C5.31285 70.8017 4.98242 72.029 4.98242 73.2786C4.98242 74.5281 5.31285 75.7554 5.9402 76.8362C6.56756 77.9169 7.46955 78.8126 8.55475 79.4325C9.63995 80.0523 10.8698 80.3744 12.1196 80.3659C13.3694 80.3575 14.5948 80.0188 15.6715 79.3843L15.6713 80.3775C15.6717 80.8265 15.5667 81.2693 15.3647 81.6702C15.0576 82.2398 14.5994 82.7138 14.0406 83.0402C13.4818 83.3666 12.8438 83.5328 12.1967 83.5206C11.5488 83.5332 10.91 83.3668 10.3506 83.0397C9.7913 82.7126 9.33314 82.2374 9.02663 81.6666C8.82574 81.2666 8.72129 80.8251 8.72163 80.3775H5.19214C5.19076 81.3716 5.42231 82.3522 5.86823 83.2407C7.02232 85.5542 9.50641 87.0492 12.1967 87.0492C14.8809 87.0492 17.363 85.5584 18.5202 83.2502C18.9692 82.3592 19.2024 81.3752 19.2008 80.3775L19.2003 66.2128ZM12.0896 76.8375C11.3855 76.8373 10.6974 76.6285 10.112 76.2374C9.52674 75.8462 9.07058 75.2903 8.80126 74.64C8.53193 73.9897 8.46153 73.2742 8.59896 72.5839C8.73639 71.8936 9.07548 71.2595 9.57334 70.7618C10.0712 70.2642 10.7055 69.9253 11.396 69.788C12.0865 69.6508 12.8022 69.7213 13.4526 69.9907C14.1031 70.2601 14.659 70.7162 15.0501 71.3014C15.4412 71.8867 15.65 72.5747 15.65 73.2786C15.6489 74.2222 15.2734 75.1269 14.6059 75.7941C13.9384 76.4613 13.0334 76.8366 12.0896 76.8375ZM21.7095 99.5708C21.4896 99.4426 21.3085 99.2573 21.1853 99.0346C21.0621 98.8119 21.0014 98.56 21.0096 98.3056C21.0009 98.1495 21.0233 97.9932 21.0754 97.8457C21.1274 97.6982 21.2082 97.5625 21.3131 97.4465C21.5107 97.2402 21.7565 97.0862 22.0284 96.9984C22.3867 96.8885 22.7511 96.7994 23.1197 96.7313C23.4614 96.6738 23.7972 96.5859 24.1232 96.4687C24.2159 96.4398 24.2965 96.3814 24.3531 96.3026C24.4097 96.2238 24.4391 96.1287 24.4369 96.0316C24.4384 95.9297 24.4106 95.8294 24.3568 95.7428C24.3029 95.6562 24.2254 95.5869 24.1333 95.543C23.8726 95.4166 23.5841 95.3581 23.2947 95.3727C22.9837 95.3746 22.6742 95.416 22.3737 95.496C22.0966 95.5627 21.8287 95.6631 21.5759 95.7948L21.1739 94.8689C21.4971 94.6986 21.8394 94.5673 22.1935 94.4777C22.5529 94.3829 22.923 94.3344 23.2947 94.3334C23.9117 94.3059 24.5229 94.4637 25.0494 94.7864C25.2643 94.9233 25.4396 95.114 25.5579 95.3396C25.6762 95.5652 25.7334 95.8179 25.7237 96.0724C25.7326 96.2314 25.7099 96.3907 25.6569 96.5409C25.6039 96.6911 25.5217 96.8293 25.4149 96.9475C25.2131 97.1573 24.9617 97.3129 24.6839 97.3999C24.3252 97.5086 23.9609 97.5979 23.5926 97.6674C23.2571 97.7142 22.9277 97.797 22.6099 97.9142C22.5183 97.9434 22.4385 98.0011 22.382 98.0788C22.3256 98.1566 22.2955 98.2504 22.2962 98.3464C22.2963 98.4476 22.3269 98.5463 22.3839 98.6299C22.4409 98.7135 22.5216 98.778 22.6157 98.8151C22.8879 98.9334 23.1836 98.9879 23.4801 98.9746C23.8524 98.9731 24.2229 98.9212 24.5813 98.82C24.9001 98.7374 25.2077 98.6165 25.4974 98.4598L25.8985 99.3658C25.1693 99.7876 24.3424 100.011 23.5 100.014C22.8732 100.039 22.2521 99.8858 21.7095 99.571M27.9156 99.6434C27.4802 99.4131 27.1182 99.0654 26.8706 98.6397C26.6166 98.1969 26.487 97.6938 26.4955 97.1834C26.4866 96.6749 26.6163 96.1735 26.8706 95.733C27.1192 95.3094 27.4811 94.9636 27.9156 94.7344C28.3831 94.498 28.8998 94.3748 29.4237 94.3748C29.9477 94.3748 30.4643 94.498 30.9319 94.7344C31.3661 94.9637 31.7278 95.3095 31.9762 95.733C32.2303 96.1736 32.36 96.6749 32.3515 97.1834C32.3595 97.6937 32.2299 98.1968 31.9762 98.6397C31.7288 99.0653 31.367 99.413 30.9319 99.6434C30.4643 99.8798 29.9477 100.003 29.4237 100.003C28.8998 100.003 28.3831 99.8798 27.9156 99.6434ZM30.5913 98.4289C30.8903 98.083 31.0549 97.6411 31.0549 97.1839C31.0549 96.7267 30.8903 96.2848 30.5913 95.9389C30.4393 95.7829 30.2565 95.6602 30.0545 95.5786C29.8526 95.4971 29.6358 95.4584 29.4181 95.465C29.2011 95.4581 28.9851 95.4967 28.7839 95.5783C28.5828 95.6599 28.4009 95.7827 28.2501 95.9389C27.9545 96.2864 27.7921 96.7277 27.7921 97.1839C27.7921 97.6401 27.9545 98.0814 28.2501 98.4289C28.401 98.5849 28.5828 98.7076 28.784 98.789C28.9852 98.8704 29.2012 98.9088 29.4181 98.9016C29.6358 98.9085 29.8525 98.87 30.0544 98.7886C30.2564 98.7073 30.4392 98.5847 30.5913 98.4289ZM37.6476 94.7244C38.0687 94.9504 38.4153 95.2936 38.6455 95.7124C38.8898 96.1674 39.0122 96.6779 39.0009 97.1942C39.0112 97.7052 38.8945 98.2109 38.6611 98.6657C38.4455 99.0796 38.115 99.4225 37.7092 99.6533C37.2766 99.8925 36.7885 100.013 36.2942 100.003C35.9603 100.021 35.6265 99.9644 35.3168 99.8381C35.0071 99.7118 34.7291 99.5186 34.5028 99.2724V101.927H33.206V97.2045C33.1961 96.6882 33.324 96.1785 33.5767 95.7281C33.8192 95.3033 34.1782 94.9568 34.6113 94.7293C35.0866 94.4849 35.6154 94.3631 36.1497 94.3749C36.6705 94.3632 37.1858 94.4834 37.6476 94.7244ZM37.272 98.434C37.5807 98.0967 37.7434 97.651 37.7244 97.1942C37.7426 96.7358 37.5801 96.2887 37.2717 95.949C36.9595 95.6409 36.539 95.4673 36.1003 95.4654C35.6616 95.4635 35.2397 95.6335 34.9248 95.9389C34.6375 96.2915 34.4811 96.7326 34.482 97.1874C34.483 97.6422 34.6412 98.0826 34.93 98.434C35.0792 98.5926 35.2607 98.7174 35.4622 98.8C35.6637 98.8826 35.8805 98.921 36.0982 98.9128C36.3166 98.9207 36.5342 98.8821 36.7365 98.7995C36.9389 98.717 37.1214 98.5924 37.272 98.434ZM41.0493 99.6434C40.614 99.4131 40.2519 99.0654 40.0044 98.6397C39.7504 98.1969 39.6208 97.6938 39.6292 97.1834C39.6203 96.6749 39.75 96.1735 40.0044 95.733C40.2529 95.3094 40.6148 94.9636 41.0493 94.7344C41.5168 94.4981 42.0334 94.3749 42.5574 94.3749C43.0813 94.3749 43.5979 94.4981 44.0654 94.7344C44.4998 94.9637 44.8616 95.3095 45.1101 95.733C45.3641 96.1737 45.4937 96.6749 45.4853 97.1834C45.4933 97.6937 45.3637 98.1968 45.1101 98.6397C44.8625 99.0653 44.5006 99.413 44.0654 99.6434C43.5979 99.8798 43.0812 100.003 42.5572 100.003C42.0333 100.003 41.5166 99.8798 41.0491 99.6434M43.7248 98.4289C44.0239 98.083 44.1884 97.6411 44.1884 97.1839C44.1884 96.7267 44.0239 96.2848 43.7248 95.9389C43.5728 95.7829 43.3901 95.6603 43.1882 95.5787C42.9862 95.4971 42.7696 95.4584 42.5519 95.465C42.3349 95.4581 42.1188 95.4967 41.9177 95.5783C41.7165 95.6599 41.5347 95.7827 41.3839 95.9389C41.0882 96.2864 40.9258 96.7277 40.9258 97.1839C40.9258 97.6401 41.0882 98.0814 41.3839 98.4289C41.5347 98.5849 41.7166 98.7076 41.9178 98.789C42.1189 98.8704 42.335 98.9088 42.5519 98.9016C42.7695 98.9085 42.9862 98.87 43.1882 98.7886C43.3902 98.7073 43.5728 98.5847 43.7248 98.4289ZM51.98 94.4365V99.0981C51.98 101.032 50.9919 102 49.0159 102C48.508 102.003 48.0022 101.935 47.5129 101.799C47.0859 101.688 46.6864 101.49 46.3397 101.218L46.9163 100.25C47.1868 100.466 47.4957 100.628 47.8266 100.729C48.187 100.848 48.5641 100.909 48.9437 100.909C49.5479 100.909 49.9904 100.772 50.2713 100.497C50.5529 100.223 50.6936 99.8046 50.6935 99.2417V98.9538C50.4718 99.1953 50.1971 99.382 49.891 99.4993C49.559 99.6256 49.2063 99.6884 48.8512 99.6844C48.359 99.6917 47.8728 99.5768 47.436 99.3499C47.0221 99.135 46.6763 98.8089 46.4377 98.4083C46.1899 97.988 46.0634 97.5072 46.0722 97.0194C46.0628 96.5331 46.1893 96.0539 46.4374 95.6355C46.6768 95.2379 47.0227 94.9151 47.436 94.7038C47.874 94.4808 48.3597 94.368 48.8512 94.3751C49.2222 94.3702 49.5908 94.4365 49.9369 94.5702C50.256 94.696 50.5377 94.9013 50.7551 95.1666V94.4367L51.98 94.4365ZM50.2455 98.1562C50.4004 98.0112 50.5224 97.8347 50.6033 97.6386C50.6841 97.4424 50.722 97.2312 50.7143 97.0192C50.7216 96.8095 50.6835 96.6006 50.6025 96.407C50.5216 96.2133 50.3998 96.0395 50.2455 95.8972C49.9065 95.6178 49.4809 95.465 49.0415 95.465C48.6022 95.465 48.1766 95.6178 47.8376 95.8972C47.6833 96.0395 47.5615 96.2134 47.4806 96.407C47.3997 96.6007 47.3615 96.8095 47.3688 97.0192C47.3611 97.2312 47.399 97.4424 47.4799 97.6385C47.5607 97.8347 47.6827 98.0112 47.8376 98.1562C48.1752 98.4386 48.6014 98.5933 49.0415 98.5933C49.4817 98.5933 49.9079 98.4386 50.2455 98.1562ZM56.1786 94.4367H57.4652V96.669H60.2345V94.4367H61.521V99.9313H60.2345V97.7601H57.4652V99.9313H56.1786V94.4367ZM68.4169 94.4367V99.9313H67.1922V99.2211C66.983 99.4795 66.7121 99.6813 66.4045 99.8076C66.0761 99.9409 65.7245 100.007 65.3701 100.003C64.8696 100.012 64.3754 99.8913 63.935 99.6535C63.518 99.4252 63.1749 99.0826 62.9463 98.6659C62.7027 98.2104 62.5806 97.6998 62.5918 97.1834C62.5802 96.6689 62.7023 96.1602 62.9463 95.707C63.176 95.2924 63.5189 94.9516 63.935 94.7244C64.3754 94.4866 64.8696 94.3662 65.3701 94.3749C65.7069 94.3711 66.0412 94.434 66.3536 94.5599C66.6496 94.682 66.915 94.8681 67.1306 95.1048V94.4367H68.4169ZM66.6875 98.4289C66.9866 98.083 67.1512 97.6411 67.1512 97.1839C67.1512 96.7267 66.9866 96.2848 66.6875 95.9389C66.5355 95.7829 66.3528 95.6602 66.1508 95.5787C65.9488 95.4971 65.7321 95.4584 65.5144 95.465C65.2974 95.4581 65.0814 95.4967 64.8802 95.5783C64.679 95.6599 64.4972 95.7827 64.3464 95.9389C64.0506 96.2863 63.8882 96.7276 63.8882 97.1839C63.8882 97.6401 64.0506 98.0815 64.3464 98.4289C64.4973 98.5849 64.6791 98.7076 64.8803 98.789C65.0815 98.8704 65.2975 98.9088 65.5144 98.9016C65.7321 98.9085 65.9487 98.87 66.1507 98.7886C66.3527 98.7072 66.5355 98.5847 66.6875 98.4289ZM70.9077 99.6434C70.4671 99.4147 70.0996 99.0669 69.8471 98.6397C69.5901 98.1979 69.4586 97.6944 69.4668 97.1834C69.4583 96.6742 69.5899 96.1725 69.8473 95.733C70.0999 95.3089 70.4653 94.9632 70.9028 94.7344C71.3778 94.4886 71.9066 94.365 72.4414 94.3749C72.9364 94.364 73.4262 94.477 73.8664 94.7035C74.2658 94.914 74.5882 95.2455 74.7874 95.6506L73.7996 96.2268C73.6566 95.9873 73.4524 95.7901 73.208 95.6555C72.891 95.493 72.5315 95.4324 72.1787 95.4821C71.8259 95.5318 71.4971 95.6893 71.2373 95.9331C70.9329 96.2782 70.7644 96.7222 70.7633 97.1824C70.7622 97.6426 70.9285 98.0874 71.2313 98.434C71.4922 98.6778 71.822 98.8352 72.1757 98.885C72.5293 98.9347 72.8897 98.8742 73.2078 98.7118C73.4521 98.5774 73.6563 98.3805 73.7994 98.1412L74.7874 98.7168C74.5819 99.1219 74.2569 99.4541 73.8563 99.6685C73.4207 99.8981 72.9338 100.013 72.4414 100.003C71.9083 100.012 71.3813 99.8882 70.9077 99.6434ZM84.3182 94.9764C84.7235 95.3776 84.926 95.9795 84.9257 96.7822V99.9313H83.6394V96.9473C83.6679 96.5586 83.5546 96.1727 83.3203 95.8611C83.2042 95.7363 83.0618 95.6387 82.9035 95.5755C82.7451 95.5123 82.5746 95.4851 82.4044 95.4957C82.2105 95.4876 82.0172 95.5216 81.8376 95.5953C81.6581 95.6691 81.4968 95.7809 81.3646 95.923C81.0842 96.2652 80.9444 96.701 80.9734 97.1424V99.9311H79.6866V96.9473C79.7153 96.5586 79.6021 96.1728 79.3679 95.8611C79.2518 95.7363 79.1094 95.6387 78.951 95.5756C78.7925 95.5124 78.6221 95.4851 78.4518 95.4957C78.2575 95.4864 78.0635 95.5193 77.8831 95.5921C77.7028 95.665 77.5404 95.7761 77.4071 95.9178C77.128 96.2625 76.9901 96.7001 77.021 97.1424V99.9311H75.7342V94.4365H76.9592V95.1355C77.167 94.8875 77.4318 94.6935 77.7309 94.57C78.0575 94.4364 78.4076 94.3699 78.7604 94.3746C79.1387 94.3674 79.5137 94.4465 79.8569 94.6058C80.1702 94.7554 80.433 94.9931 80.613 95.2898C80.8455 94.9973 81.1459 94.766 81.4881 94.6159C81.8609 94.4518 82.2646 94.3695 82.672 94.3746C82.9728 94.3588 83.2737 94.404 83.5565 94.5073C83.8394 94.6107 84.0985 94.7702 84.3182 94.9762M87.2729 99.6434C86.8375 99.4131 86.4755 99.0654 86.2279 98.6397C85.9739 98.1969 85.8442 97.6938 85.8526 97.1834C85.8438 96.6749 85.9735 96.1735 86.2279 95.733C86.4765 95.3094 86.8384 94.9636 87.2729 94.7344C87.7405 94.4981 88.2571 94.3749 88.781 94.3749C89.305 94.3749 89.8216 94.4981 90.2892 94.7344C90.7235 94.9636 91.0851 95.3095 91.3335 95.733C91.5876 96.1736 91.7173 96.6749 91.7088 97.1834C91.7169 97.6938 91.5872 98.1968 91.3335 98.6397C91.0861 99.0653 90.7243 99.413 90.2892 99.6434C89.8216 99.8798 89.305 100.003 88.781 100.003C88.2571 100.003 87.7404 99.8798 87.2729 99.6434ZM89.9486 98.4289C90.2477 98.083 90.4122 97.6411 90.4122 97.1839C90.4122 96.7267 90.2477 96.2848 89.9486 95.9389C89.7966 95.7829 89.6139 95.6603 89.4119 95.5787C89.21 95.4971 88.9933 95.4584 88.7757 95.465C88.5586 95.4581 88.3425 95.4967 88.1413 95.5783C87.94 95.6599 87.7581 95.7827 87.6072 95.9389C87.3116 96.2864 87.1492 96.7277 87.1492 97.1839C87.1492 97.6401 87.3116 98.0814 87.6072 98.4289C87.7581 98.5849 87.9401 98.7076 88.1413 98.789C88.3426 98.8704 88.5587 98.9088 88.7757 98.9016C88.9933 98.9084 89.2099 98.8699 89.4118 98.7886C89.6138 98.7072 89.7966 98.5847 89.9486 98.4289ZM97.2467 94.4367V99.9313H96.0935V98.2747H94.6427L93.5204 99.9313H92.1413L93.438 98.0995C93.0764 97.9879 92.7583 97.7669 92.5275 97.4671C92.2717 97.0758 92.1667 96.605 92.2319 96.1422C92.2972 95.6794 92.5282 95.256 92.8822 94.9506C93.3281 94.6083 93.9422 94.437 94.7243 94.4367H97.2467ZM93.5204 96.4528C93.5204 97.0709 93.9218 97.3798 94.7245 97.3797H96.0935V95.5168H94.7662C93.9355 95.5168 93.5202 95.8288 93.5202 96.4528H93.5204ZM107.838 94.4569V99.9521H106.613V99.2522C106.405 99.5006 106.14 99.6947 105.84 99.8177C105.514 99.9518 105.164 100.018 104.812 100.014C104.435 100.02 104.061 99.9389 103.721 99.7769C103.405 99.6256 103.141 99.386 102.959 99.0873C102.73 99.3828 102.431 99.6164 102.089 99.7668C101.715 99.9342 101.31 100.018 100.9 100.014C100.599 100.029 100.298 99.9837 100.014 99.8793C99.7312 99.775 99.4723 99.6141 99.2532 99.4066C98.8484 99.0018 98.6461 98.4014 98.6466 97.6053V94.4569H99.9329V97.4305C99.9044 97.8192 100.018 98.205 100.252 98.5165C100.368 98.6414 100.51 98.739 100.669 98.8022C100.827 98.8653 100.998 98.8925 101.168 98.8817C101.362 98.891 101.556 98.8586 101.736 98.7867C101.916 98.7148 102.079 98.605 102.213 98.4647C102.492 98.1223 102.63 97.6861 102.599 97.2453V94.4569H103.885V97.4305C103.857 97.8191 103.97 98.2049 104.204 98.5165C104.32 98.6415 104.463 98.7391 104.621 98.8022C104.78 98.8654 104.95 98.8925 105.121 98.8817C105.314 98.891 105.508 98.8586 105.688 98.7867C105.868 98.7147 106.031 98.6049 106.165 98.4647C106.444 98.1223 106.583 97.6861 106.551 97.2453V94.4569H107.838ZM108.733 98.8402V101.063H107.529V99.9313H106.613V98.8402H108.733ZM113.766 98.3155L114.445 99.1082C114.199 99.4071 113.88 99.6373 113.519 99.7767C113.056 99.9464 112.563 100.022 112.07 99.9991C111.577 99.9762 111.093 99.8553 110.648 99.6434C110.203 99.418 109.834 99.0696 109.582 98.6399C109.328 98.1972 109.198 97.694 109.206 97.1837C109.199 96.678 109.325 96.1792 109.572 95.7379C109.808 95.3162 110.158 94.9686 110.581 94.7342C111.027 94.4903 111.528 94.3665 112.037 94.3749C112.525 94.3687 113.008 94.4834 113.442 94.7087C113.859 94.9278 114.207 95.2595 114.445 95.6662C114.699 96.1085 114.828 96.6119 114.816 97.1218L110.606 97.9449C110.727 98.2497 110.949 98.504 111.234 98.6657C111.553 98.8379 111.911 98.9231 112.274 98.9128C112.55 98.9204 112.825 98.8713 113.082 98.7686C113.338 98.6658 113.571 98.5116 113.766 98.3155M110.889 95.8663C110.585 96.2078 110.428 96.6553 110.451 97.112V97.1218L113.56 96.5254C113.479 96.2004 113.288 95.9132 113.02 95.7122C112.736 95.5023 112.389 95.3936 112.036 95.4034C111.823 95.3949 111.611 95.4318 111.413 95.5116C111.215 95.5914 111.037 95.7123 110.889 95.8663H110.889ZM116.122 99.5708C115.903 99.4426 115.721 99.2573 115.598 99.0346C115.475 98.8119 115.414 98.56 115.423 98.3056C115.414 98.1495 115.436 97.9932 115.488 97.8457C115.54 97.6982 115.621 97.5625 115.726 97.4465C115.924 97.2401 116.169 97.0861 116.441 96.9984C116.8 96.8885 117.164 96.7994 117.533 96.7313C117.874 96.6738 118.21 96.5859 118.536 96.4687C118.629 96.4398 118.71 96.3815 118.766 96.3027C118.823 96.2238 118.852 96.1287 118.85 96.0316C118.852 95.9297 118.824 95.8294 118.77 95.7428C118.716 95.6562 118.638 95.5868 118.546 95.543C118.285 95.4166 117.997 95.3581 117.708 95.3727C117.397 95.3746 117.087 95.416 116.787 95.496C116.509 95.5627 116.242 95.6631 115.989 95.7948L115.587 94.8689C115.91 94.6986 116.252 94.5673 116.606 94.4777C116.966 94.3829 117.336 94.3344 117.708 94.3334C118.325 94.3059 118.936 94.4636 119.462 94.7864C119.677 94.9232 119.853 95.1139 119.971 95.3396C120.089 95.5652 120.146 95.8178 120.137 96.0724C120.146 96.2315 120.123 96.3907 120.07 96.5409C120.017 96.6911 119.935 96.8293 119.828 96.9475C119.626 97.1573 119.375 97.3129 119.097 97.3999C118.738 97.5086 118.374 97.5979 118.006 97.6674C117.67 97.7142 117.341 97.7969 117.023 97.9142C116.931 97.9434 116.851 98.0011 116.795 98.0788C116.739 98.1566 116.708 98.2504 116.709 98.3464C116.709 98.4475 116.74 98.5463 116.797 98.6298C116.854 98.7134 116.934 98.778 117.028 98.8151C117.301 98.9333 117.596 98.9879 117.893 98.9746C118.265 98.9731 118.636 98.9211 118.994 98.82C119.313 98.7375 119.621 98.6165 119.91 98.4598L120.312 99.3658C119.582 99.7875 118.755 100.011 117.913 100.014C117.286 100.039 116.665 99.8858 116.122 99.571M122.329 99.6434C121.894 99.4131 121.532 99.0654 121.285 98.6397C121.031 98.1969 120.901 97.6938 120.909 97.1834C120.9 96.6749 121.03 96.1735 121.285 95.733C121.533 95.3094 121.895 94.9636 122.329 94.7344C122.797 94.498 123.313 94.3749 123.837 94.3749C124.361 94.3749 124.878 94.498 125.345 94.7344C125.78 94.9636 126.142 95.3094 126.39 95.733C126.644 96.1737 126.774 96.6749 126.765 97.1834C126.773 97.6937 126.644 98.1968 126.39 98.6397C126.143 99.0653 125.781 99.413 125.345 99.6434C124.878 99.8798 124.361 100.003 123.837 100.003C123.313 100.003 122.797 99.8798 122.329 99.6434ZM125.005 98.4289C125.304 98.0831 125.469 97.6411 125.469 97.1839C125.469 96.7266 125.304 96.2847 125.005 95.9389C124.853 95.7829 124.67 95.6602 124.468 95.5786C124.266 95.4971 124.05 95.4584 123.832 95.465C123.615 95.4581 123.399 95.4967 123.198 95.5783C122.997 95.6599 122.815 95.7827 122.664 95.9389C122.368 96.2863 122.206 96.7277 122.206 97.1839C122.206 97.6401 122.368 98.0814 122.664 98.4289C122.815 98.5849 122.997 98.7076 123.198 98.789C123.399 98.8704 123.615 98.9088 123.832 98.9016C124.05 98.9085 124.266 98.87 124.468 98.7886C124.67 98.7073 124.853 98.5847 125.005 98.4289Z" fill="#42444A"/>
</svg>
