<svg width="148" height="127" viewBox="0 0 148 127" fill="none" xmlns="http://www.w3.org/2000/svg">
<path d="M127.69 73.1846C127.155 73.2267 126.75 73.6896 126.745 74.2012C126.645 75.7282 126.737 77.2653 126.703 78.788C126.721 79.522 126.64 80.2801 126.816 80.9909C127.007 81.506 127.626 81.809 128.165 81.6713C130.411 81.3987 132.647 81.1289 134.895 80.8653C135.21 80.8365 135.549 80.7548 135.78 80.5111C136.166 80.1786 136.095 79.6092 136.134 79.1556C136.139 77.6335 136.123 76.1118 136.139 74.5891C136.123 74.0419 136.17 73.4802 136.007 72.9532C135.83 72.5064 135.324 72.2622 134.853 72.3033C132.465 72.6067 130.078 72.8814 127.69 73.1846ZM45.728 65.3972C45.4276 65.4249 45.1064 65.5121 44.8755 65.7225C44.6378 65.9742 44.517 66.3345 44.5547 66.6805C44.543 68.5053 44.5609 70.3325 44.547 72.1527C43.8509 72.275 43.1516 72.3557 42.447 72.4115C42.4374 70.906 42.447 69.4006 42.447 67.8988C42.4311 67.3876 42.4884 66.831 42.2016 66.3695C41.8879 65.9653 41.3455 65.8865 40.859 65.9891C38.6724 66.2468 36.4817 66.5277 34.2899 66.7751C33.8842 66.8262 33.42 66.8381 33.1239 67.1554C32.7407 67.4878 32.7849 68.0497 32.7647 68.5053C32.7755 74.691 32.7755 80.8773 32.7647 87.0642C32.791 87.5907 32.728 88.1607 33.0365 88.6304C33.2274 88.7878 33.4422 88.9677 33.7042 88.9966C34.2899 89.0194 34.866 88.9121 35.4483 88.8454C37.3211 88.6236 39.2001 88.384 41.0777 88.1745C41.4814 88.1379 41.9301 88.0604 42.1775 87.7209C42.4734 87.3746 42.4229 86.8776 42.447 86.4615C42.447 84.6304 42.4374 82.8021 42.447 80.9795C43.1474 80.8944 43.8509 80.8125 44.5547 80.727C44.5609 82.5444 44.543 84.3477 44.5547 86.1473C44.5672 86.4957 44.5283 86.9127 44.8063 87.1802C45.0619 87.5834 45.61 87.6276 46.048 87.5695C48.2776 87.2958 50.5051 87.0291 52.7265 86.7625C53.1055 86.7186 53.5259 86.6809 53.8241 86.43C54.1091 86.1788 54.1906 85.7811 54.1642 85.4278C54.1599 78.9332 54.1642 72.4408 54.1599 65.9541C54.1767 65.5344 54.144 65.0232 53.7525 64.7622C53.3772 64.4525 52.8561 64.5757 52.4093 64.5977C50.1859 64.8695 47.9489 65.1305 45.728 65.3972ZM69.3155 62.5705C68.8903 62.643 68.6849 63.06 68.4741 63.3925C67.2523 65.5768 66.0232 67.7551 64.7838 69.9343C64.7268 68.101 64.7966 66.2638 64.7532 64.4311C64.7784 63.9548 64.4701 63.4348 63.9793 63.306C63.3073 63.2331 62.6319 63.3694 61.9706 63.4433C60.1548 63.6681 58.3498 63.8774 56.5402 64.0978C56.1947 64.1356 55.7976 64.2495 55.5964 64.56C55.4143 64.7978 55.3859 65.1156 55.3996 65.4037C55.4058 71.2822 55.4058 77.165 55.3996 83.05C55.4058 83.849 55.3638 84.6582 55.4404 85.4565C55.485 85.8528 55.8356 86.1574 56.2191 86.2648C57.0528 86.3096 57.8704 86.1282 58.7027 86.0424C60.3917 85.8391 62.0866 85.6384 63.7759 85.4278C64.2054 85.4278 64.6215 85.1826 64.8249 84.8096C66.0822 82.5743 67.3284 80.3388 68.5972 78.1025C68.6259 79.7916 68.5902 81.4846 68.61 83.1693C68.6259 83.5406 68.5836 83.9726 68.8574 84.2613C69.0608 84.6138 69.5212 84.7441 69.9089 84.6775C71.0175 84.5848 72.1216 84.4203 73.2347 84.2882C74.5292 84.1219 75.838 83.9996 77.1398 83.8044C77.6172 83.7405 77.9744 83.2803 77.9698 82.8119C77.9744 76.2117 77.9698 69.6217 77.9744 63.0339C77.9837 62.6254 77.948 62.1035 77.5361 61.8788C77.1548 61.5832 76.6428 61.6765 76.2025 61.7206C73.911 62.0302 71.6042 62.2599 69.3155 62.5705ZM92.34 59.7807C91.7505 59.7807 91.0566 60.0752 90.9973 60.7171C90.9727 65.0079 91.0234 69.2974 90.9727 73.5958C90.257 73.7024 89.5407 73.7673 88.8264 73.8616C88.8147 69.8528 88.8264 65.8318 88.8264 61.8131C88.8488 61.3651 88.7719 60.7825 88.3198 60.5365C87.9742 60.2901 87.5428 60.3731 87.1456 60.3989C85.161 60.6586 83.173 60.8824 81.1833 61.1274C80.6537 61.2081 80.0776 61.1792 79.5996 61.4669C79.3 61.7474 79.1622 62.1462 79.2053 62.5417C79.2192 69.0372 79.2053 75.5218 79.2053 82.0179C79.2339 82.3335 79.1789 82.7083 79.4098 82.9772C79.5996 83.1772 79.8427 83.3866 80.1425 83.4084C80.7652 83.4154 81.3856 83.3025 82.0026 83.236C83.9912 82.9913 85.9809 82.7583 87.9649 82.5085C88.9708 82.4128 89.9787 82.2411 90.9908 82.1854C91.0013 83.1693 90.9489 84.1585 91.0254 85.1521C91.1068 85.724 91.7684 86.0972 92.3286 85.9921C93.1703 85.912 94.0137 85.7811 94.8519 85.6876C95.7949 85.5588 96.7384 85.5003 97.6671 85.3271C98.134 85.2127 98.3372 84.7127 98.4813 84.3108C99.656 80.9447 100.82 77.577 102.011 74.208C102.164 73.798 102.267 73.2625 101.97 72.8912C101.696 72.4286 101.077 72.3913 100.607 72.3677C100.603 68.4685 100.603 64.56 100.607 60.6514C100.591 60.1345 100.615 59.5141 100.151 59.1597C99.7589 58.8622 99.2597 58.9638 98.7995 59.0075C96.6467 59.2583 94.4953 59.528 92.34 59.7807ZM109.505 57.7173C108.97 57.7097 108.573 58.1304 108.431 58.6063C106.037 65.4833 103.643 72.3557 101.244 79.2341C101.112 79.6424 101.183 80.1444 101.514 80.4443C101.824 80.79 102.337 80.79 102.771 80.7416C105.34 80.4087 107.928 80.1325 110.497 79.7916C110.927 79.7381 111.184 79.3363 111.314 78.9675C111.472 78.3681 111.596 77.77 111.736 77.1728C112.963 76.9782 114.197 76.8373 115.434 76.7104C115.6 77.3231 115.724 77.9519 115.988 78.5418C116.284 78.9675 116.858 79.0966 117.345 78.9816C119.351 78.7225 121.362 78.4996 123.362 78.2528C123.984 78.1734 124.613 78.1375 125.226 78.0089C125.756 77.8358 126.086 77.2079 125.924 76.6803C125.782 76.1637 125.567 75.6639 125.382 75.1597C123.215 69.3284 121.039 63.4862 118.864 57.6527C118.766 57.3861 118.659 57.1046 118.402 56.9532C118.037 56.6718 117.541 56.7275 117.122 56.7998C114.586 57.1102 112.044 57.4092 109.505 57.7173ZM127.171 55.569C126.724 55.5829 126.251 55.7549 126.003 56.139C125.712 56.8246 125.934 57.572 125.975 58.2729C126.362 62.3173 126.762 66.3546 127.122 70.4009C127.155 70.7623 127.21 71.1436 127.407 71.469C127.747 71.9001 128.362 71.923 128.873 71.8561C130.567 71.6348 132.259 71.4402 133.953 71.2459C134.406 71.1814 134.884 71.1283 135.28 70.8977C135.624 70.5881 135.643 70.0935 135.694 69.6586C135.955 66.6878 136.251 63.7088 136.527 60.7394C136.677 59.1369 136.791 57.5372 137 55.9431V55.4381C136.82 55.1072 136.625 54.6955 136.217 54.6106C135.39 54.5377 134.564 54.6813 133.744 54.7815C131.551 55.0434 129.362 55.3145 127.171 55.569ZM12.146 46.0281C11.7994 46.064 11.4057 46.1795 11.199 46.4907C10.9916 46.7427 11.0244 47.09 11.0084 47.3926C11.0042 53.7869 11.0158 60.1701 11 66.5592C11.0347 66.9697 10.9293 67.4231 11.1949 67.7765C11.3204 68.0143 11.5824 68.1163 11.8256 68.1884C12.6598 68.2313 13.4793 68.057 14.3028 67.9709C15.9681 67.7833 17.6333 67.5606 19.2871 67.3876C19.5955 67.3358 19.9379 67.3296 20.1758 67.0994C20.6516 66.8091 20.6094 66.1912 20.6275 65.7068C20.6138 61.6615 20.6138 57.6079 20.618 53.5573C21.3237 53.4777 22.0253 53.392 22.7234 53.3046C22.7412 57.3941 22.7067 61.4947 22.7412 65.5853C22.6886 66.146 23.0783 66.7167 23.6609 66.7881C24.2148 66.8091 24.7605 66.7085 25.2977 66.643C27.1743 66.428 29.0563 66.1912 30.9312 65.9742C31.1986 65.9378 31.466 65.9302 31.7158 65.822C32.0876 65.6853 32.3426 65.3101 32.3391 64.9201C32.3352 58.2292 32.3426 51.5301 32.3352 44.8379C32.4016 44.203 31.742 43.6206 31.0978 43.7634C30.081 43.8353 29.0766 44.0106 28.0601 44.1103C22.758 44.7599 17.4533 45.3918 12.146 46.0281ZM43.9607 42.1999C41.4527 42.4468 38.9007 43.2315 37.001 44.9186C35.363 46.4384 34.4489 48.6608 34.4994 50.8662C34.4489 52.2156 34.7143 53.6219 35.497 54.7617C35.9961 55.5617 36.7933 56.139 37.6759 56.4964C36.1846 58.9156 34.6881 61.3303 33.1809 63.7458C32.9206 64.1785 32.8744 64.7556 33.2156 65.152C33.4547 65.5402 33.9875 65.6141 34.4162 65.5562C37.005 65.2379 39.5989 64.9201 42.1934 64.6189C42.6178 64.5814 43.0969 64.4661 43.2972 64.0562C43.7879 63.2053 44.1839 62.3056 44.6642 61.4309C44.6744 62.0161 44.6506 62.5975 44.7135 63.1767C44.7314 63.6822 45.1895 64.113 45.6868 64.1571C45.987 64.1636 46.2797 64.128 46.5716 64.0905C48.641 63.8252 50.7201 63.5957 52.7991 63.3413C53.1665 63.291 53.5764 63.249 53.8683 62.9865C54.1052 62.7234 54.1945 62.3485 54.1642 62.0001C54.1599 56.1173 54.1599 50.2318 54.1642 44.3547C54.1548 43.5558 54.203 42.7488 54.1242 41.9405C54.0609 41.4709 53.5858 41.1185 53.1055 41.1336C52.3957 41.1402 51.6931 41.2766 50.9856 41.3562C48.6368 41.6377 46.3061 41.9196 43.9607 42.1999ZM71.7401 38.8174H72.1846C72.6912 38.9348 73.1358 39.3788 73.1358 39.9082C73.1621 41.5294 73.1094 43.153 73.14 44.7811C73.1335 45.4667 73.1866 46.1667 73.0612 46.8434C72.9914 47.3626 72.4215 47.5721 71.9574 47.6353C70.9892 47.7868 70.0162 47.8602 69.0418 47.9955C69.0418 51.3294 69.0418 54.6535 69.0418 57.9842C69.0333 58.8931 69.0886 59.8013 69.0018 60.7021C68.9144 61.2371 68.3448 61.5314 67.8305 61.5454C66.2876 61.7206 64.7416 61.9207 63.1975 62.1035C62.2033 62.2001 61.2135 62.4321 60.2158 62.3258C59.9381 62.2808 59.7347 62.0581 59.5966 61.8336C59.4039 61.3888 59.4471 60.8902 59.423 60.4226C59.4366 56.6718 59.4366 52.9146 59.4281 49.1571C58.5972 49.2456 57.7734 49.367 56.9434 49.453C56.5139 49.4548 55.9755 49.5109 55.6957 49.122C55.3406 48.8058 55.3953 48.3003 55.3953 47.882C55.4143 45.9571 55.386 44.0257 55.4058 42.1075C55.4302 41.7601 55.3712 41.3345 55.6577 41.0757C56.0413 40.6336 56.6781 40.6665 57.1972 40.578C62.0518 40.0021 66.8997 39.4401 71.7401 38.8174Z" fill="#42444A"/>
</svg>
