<svg width="148" height="127" viewBox="0 0 148 127" fill="none" xmlns="http://www.w3.org/2000/svg">
<mask id="mask0_1465_1929" style="mask-type:luminance" maskUnits="userSpaceOnUse" x="13" y="45" width="122" height="38">
<path d="M13.2451 45.3228H134.356V82.2523H13.2451V45.3228Z" fill="white"/>
</mask>
<g mask="url(#mask0_1465_1929)">
<path d="M26.6909 82.1524C15.3367 82.1524 13.7432 76.9623 13.7432 73.469V72.7703C13.7432 69.277 15.2371 64.1867 26.6909 64.1867H27.5873C38.5431 64.1867 40.0371 68.9776 40.1367 71.373V71.4728L39.9375 71.6724H32.1688L32.0692 71.5726C31.87 70.9738 31.0732 69.277 27.0893 69.277C23.0058 69.277 21.9102 71.2732 21.9102 72.97V73.1696C21.9102 74.8663 22.8066 76.9623 27.0893 76.9623C31.2724 76.9623 31.87 75.2656 32.0692 74.5669L32.2684 74.4671H39.9375C39.9375 74.4671 40.1367 74.4671 40.1367 74.6667V74.9661C40.1367 77.3616 38.6427 82.1524 27.5873 82.1524H26.6909ZM58.4627 75.565H49.0009C48.8017 75.565 48.8017 75.565 48.8017 75.7646V81.7532L48.6025 81.853H41.1327C41.1327 81.853 40.9335 81.853 40.9335 81.6534V64.7856L41.1327 64.586H48.6025L48.8017 64.7856V70.3749C48.8017 70.3749 48.8017 70.5745 49.0009 70.5745H58.4627L58.6619 70.3749V64.7856C58.6619 64.7856 58.6619 64.586 58.8611 64.586H66.2314L66.4306 64.7856V81.7532C66.4306 81.853 66.4306 81.9528 66.2314 81.9528H58.8611C58.7615 81.9528 58.6619 81.9528 58.6619 81.7532V75.7646L58.4627 75.6648V75.565ZM86.3502 79.4576H76.6892L76.49 79.5574L75.494 81.7532L75.2948 81.853H67.327C67.1278 81.853 67.0282 81.7532 67.1278 81.6534L75.7928 64.6858L75.992 64.4861H87.3462L87.5454 64.6858L96.808 81.6534C96.808 81.6534 96.808 81.9528 96.6088 81.9528H87.7446L87.5454 81.7532L86.5494 79.6572L86.3502 79.5574V79.4576ZM83.9599 74.4671L81.6691 69.7761C81.5695 69.5764 81.2707 69.5764 81.2707 69.7761L78.9799 74.3673C78.9799 74.5669 78.9799 74.6667 79.1791 74.6667H83.7607C83.8603 74.6667 84.0594 74.5669 83.9599 74.3673V74.4671ZM117.823 64.4861L117.923 64.6858V69.4766C117.923 69.4766 117.923 69.6762 117.724 69.6762H109.059C109.059 69.6762 108.859 69.6762 108.859 69.8759V81.6534C108.859 81.7532 108.859 81.853 108.66 81.853H101.19C101.19 81.853 100.991 81.853 100.991 81.6534V69.8759C100.991 69.7761 100.991 69.6762 100.792 69.6762H92.1269L91.9277 69.4766V64.6858C91.9277 64.6858 91.9277 64.4861 92.1269 64.4861H117.724H117.823ZM26.9897 50.9121C31.0732 50.9121 31.87 52.6088 31.9696 53.2077L32.2684 53.3075H39.9375C39.9375 53.3075 40.1367 53.3075 40.1367 53.1079C40.1367 50.5128 38.6427 45.8218 27.5873 45.8218H26.6909C15.2371 45.8218 13.7432 50.8123 13.7432 54.4054V55.1041C13.7432 58.5974 15.4363 63.7875 26.6909 63.7875H27.5873C30.0773 63.7875 32.1688 63.1886 33.7624 62.2903C35.4556 61.3921 34.0612 62.2903 34.0612 62.49V63.2884L34.2604 63.4881H39.8379L40.0371 63.2884V53.8065H28.6829L28.4837 54.0062V56.8008L28.6829 57.0004H31.2724C31.4716 57.0004 31.5712 57.2001 31.4716 57.2999C30.874 57.9985 29.5793 58.5974 27.0893 58.5974C22.8066 58.5974 21.9102 56.5014 21.9102 54.8046V54.5052C21.9102 52.8084 22.707 50.9121 26.9897 50.9121ZM118.222 63.1886L109.955 46.221L109.756 46.1212H99.5968L99.4972 46.221L92.2265 61.8911V53.8065H81.2707L81.0715 54.0062V56.8008L81.2707 57.0004H83.7607C83.9599 57.0004 84.0594 57.2001 83.9599 57.2999C83.3623 57.9985 82.1671 58.5974 79.6771 58.5974C75.5936 58.5974 74.6972 56.5014 74.6972 54.8046V54.605C74.6972 52.8084 75.494 50.9121 79.6771 50.9121C83.7607 50.9121 84.3582 52.6088 84.4578 53.2077L84.657 53.3075H92.1269C92.1269 53.3075 92.3261 53.3075 92.3261 53.1079C92.3261 50.6126 90.8321 45.8218 80.1751 45.8218H79.3783C68.3229 45.8218 66.829 50.8123 66.829 54.4054V55.1041C66.829 58.5974 68.4225 63.7875 79.3783 63.7875H80.1751C82.2634 63.8202 84.3238 63.3041 86.151 62.2903C86.2506 62.2903 86.4498 62.2903 86.4498 62.49V63.2884C86.4498 63.3882 86.4498 63.4881 86.649 63.4881H98.8996L98.9992 63.3882L99.9951 61.1924L100.095 61.0926H109.059L110.055 63.3882H118.022C118.222 63.3882 118.321 63.3882 118.222 63.1886ZM106.569 56.3018H102.585C102.386 56.3018 102.286 56.1022 102.386 56.0023L104.377 51.3113H104.676L106.768 56.0023C106.768 56.1022 106.768 56.3018 106.569 56.3018ZM66.4306 51.0119V46.3208C66.4306 46.221 66.4306 46.1212 66.2314 46.1212H41.1327L40.9335 46.3208V51.0119L41.1327 51.2115H49.5985L49.7977 51.4111V58.1982C49.7977 58.298 49.7977 58.3978 49.5985 58.3978H41.1327L40.9335 58.5974V63.2884L41.1327 63.4881H66.2314C66.331 63.4881 66.4306 63.4881 66.4306 63.2884V58.5974C66.4306 58.4976 66.4306 58.3978 66.2314 58.3978H57.8651C57.7655 58.3978 57.6659 58.3978 57.6659 58.1982V51.4111C57.6659 51.4111 57.6659 51.2115 57.8651 51.2115H66.2314C66.331 51.2115 66.4306 51.2115 66.4306 51.0119ZM123.002 49.4149V51.4111H115.532V50.8123C115.532 50.1136 115.532 48.8161 118.72 48.0176L119.616 47.9178C120.214 47.7182 120.313 47.7182 120.313 47.5185C120.313 47.3189 120.114 47.2191 119.317 47.2191C118.122 47.2191 118.122 47.7182 118.122 47.9178H115.632C115.632 47.1193 115.831 45.8218 119.018 45.8218H119.417C122.405 45.8218 122.903 46.6203 122.903 47.5185C122.903 48.5166 122.206 48.9159 119.915 49.3151H119.118C117.923 49.6145 117.624 49.8142 117.624 49.914H120.811V49.4149H123.002ZM125.891 49.8142V51.4111H123.5V49.8142H125.891ZM134.257 48.5166V48.8161C134.257 49.8142 133.759 51.5109 130.273 51.5109H129.875C126.289 51.5109 125.891 49.8142 125.891 48.8161V48.5166C125.891 47.5185 126.289 45.8218 129.875 45.8218H130.173C133.759 45.8218 134.157 47.5185 134.157 48.5166H134.257ZM131.667 48.7163V48.6164C131.667 48.1174 131.269 47.4187 130.074 47.4187C128.679 47.4187 128.381 48.1174 128.381 48.6164C128.381 49.2153 128.779 49.914 130.074 49.914C131.269 49.914 131.667 49.2153 131.667 48.7163Z" fill="#42444A"/>
</g>
</svg>
