<svg width="148" height="127" viewBox="0 0 148 127" fill="none" xmlns="http://www.w3.org/2000/svg">
<g clip-path="url(#clip0_1465_2020)">
<mask id="mask0_1465_2020" style="mask-type:luminance" maskUnits="userSpaceOnUse" x="0" y="52" width="148" height="24">
<path d="M147.871 52H0.128662V76H147.871V52Z" fill="white"/>
</mask>
<g mask="url(#mask0_1465_2020)">
<path d="M44.8694 66.8902C44.8694 68.7122 43.0502 70.0316 40.4896 70.0316H34.4929V58.7227H40.2876C42.7807 58.7227 44.5325 59.9792 44.5325 61.7384C44.5325 62.9321 43.8586 63.686 42.8481 64.1258C43.9261 64.5028 44.8694 65.508 44.8694 66.8902ZM37.1206 60.796V63.2462H40.2201C41.1635 63.2462 41.7699 62.7436 41.7699 62.0525C41.7699 61.3614 41.096 60.796 40.2201 60.796H37.1206ZM40.4896 67.9583C41.5004 67.9583 42.2417 67.3928 42.2417 66.5761C42.2417 65.7593 41.5678 65.1939 40.4896 65.1939H37.1206V67.9583H40.4896Z" fill="#42444A"/>
<path d="M54.7738 69.9687L50.5963 65.508H49.9225V69.9687H47.2271V58.7227H49.9225V63.0577H50.5963L54.6389 58.7227H57.8058L52.7522 64.1258L58.2774 69.9687H54.7738Z" fill="#42444A"/>
<path d="M58.2781 64.3771C58.2781 60.9845 60.9732 58.5342 64.7463 58.5342C68.5197 58.5342 71.2148 60.9845 71.2148 64.3771C71.2148 67.7698 68.5197 70.22 64.7463 70.22C60.9732 70.22 58.2781 67.7698 58.2781 64.3771ZM68.3851 64.3771C68.3851 62.241 66.9025 60.796 64.7463 60.796C62.5901 60.796 61.1078 62.241 61.1078 64.3771C61.1078 66.5132 62.5901 67.9583 64.7463 67.9583C66.9025 67.9583 68.3851 66.5132 68.3851 64.3771Z" fill="#42444A"/>
<path d="M81.5237 58.7227H84.2188V69.9687H81.5237V65.4452H76.1331V69.9687H73.438V58.7227H76.1331V63.1834H81.5237V58.7227Z" fill="#42444A"/>
<path d="M90.0137 69.9687V60.9844H85.8359V58.7227H96.8191V60.9844H92.6414V69.9687H90.0137Z" fill="#42444A"/>
<path d="M108.409 63.686V69.9687H106.454L105.915 68.2096C105.309 69.152 104.029 70.22 102.075 70.22C99.649 70.22 97.8972 68.7122 97.8972 66.6389C97.8972 64.5656 99.649 63.1206 103.22 63.1206H105.848C105.713 61.6755 104.905 60.6703 103.422 60.6703C102.21 60.6703 101.401 61.2986 100.997 61.9897L98.5711 61.6127C99.1775 59.6651 101.266 58.5342 103.557 58.5342C106.522 58.5342 108.409 60.419 108.409 63.686ZM105.781 65.0682H103.288C101.266 65.0682 100.592 65.6965 100.592 66.5132C100.592 67.4557 101.401 68.0839 102.749 68.0839C104.501 68.0839 105.781 66.8902 105.781 65.0682Z" fill="#42444A"/>
<path d="M118.784 69.9687L114.607 65.508H113.933V69.9687H111.238V58.7227H113.933V63.0577H114.607L118.65 58.7227H121.817L116.763 64.1258L122.288 69.9687H118.784Z" fill="#42444A"/>
<path d="M127.14 69.9687V60.9844H122.963V58.7227H133.946V60.9844H129.768V69.9687H127.14Z" fill="#42444A"/>
<path d="M147.421 65.0682H137.718C137.988 66.8274 139.336 67.9583 141.357 67.9583C142.772 67.9583 143.85 67.3928 144.456 66.5761L146.95 66.953C146.074 69.0892 143.715 70.22 141.155 70.22C137.516 70.22 134.888 67.7698 134.888 64.3771C134.888 60.9845 137.516 58.5342 141.155 58.5342C144.793 58.5342 147.421 60.9845 147.421 64.2515C147.488 64.5656 147.421 64.8169 147.421 65.0682ZM137.921 63.1206H144.591C144.12 61.7384 142.907 60.7331 141.222 60.7331C139.605 60.6703 138.325 61.6755 137.921 63.1206Z" fill="#42444A"/>
<path d="M0.128662 63.52C0.128662 58.0894 0.128662 55.3741 1.93798 53.6871C3.7473 52 6.65935 52 12.4834 52H13.513C19.3371 52 22.2492 52 24.0585 53.6871C25.8678 55.3741 25.8678 58.0894 25.8678 63.52V64.48C25.8678 69.9106 25.8678 72.6259 24.0585 74.3129C22.2492 76 19.3371 76 13.513 76H12.4834C6.65935 76 3.7473 76 1.93798 74.3129C0.128662 72.6259 0.128662 69.9106 0.128662 64.48V63.52Z" fill="#42444A"/>
<path d="M13.824 69.2898C7.95763 69.2898 4.61157 65.5398 4.47217 59.2998H7.4107C7.50722 63.8798 9.67356 65.8198 11.3895 66.2198V59.2998H14.1565V63.2498C15.851 63.0798 17.6311 61.2798 18.2317 59.2998H20.9987C20.5376 61.7398 18.6071 63.5398 17.2344 64.2798C18.6071 64.8798 20.8058 66.4498 21.6423 69.2898H18.5964C17.9422 67.3898 16.3122 65.9198 14.1565 65.7198V69.2898H13.824Z" fill="white"/>
</g>
</g>
<defs>
<clipPath id="clip0_1465_2020">
<rect width="148" height="24" fill="white" transform="translate(0 52)"/>
</clipPath>
</defs>
</svg>
