<svg width="148" height="127" viewBox="0 0 148 127" fill="none" xmlns="http://www.w3.org/2000/svg">
<path d="M9.15456 77.4436H26.1334V70.3638H12.8899V55.867L22.7376 49.1243L32.5853 55.867V62.2726H39.7165V54.1814C39.7165 52.8328 39.135 51.5489 38.0186 50.81L24.7751 42.0445C23.4168 41.1455 22.0585 41.1595 20.7001 42.0445C17.078 44.4044 9.42622 49.5626 7.79625 50.6414C6.16628 51.7202 5.75879 52.9925 5.75879 54.1814V74.0723C5.75879 75.6905 7.45667 77.4436 9.15456 77.4436Z" fill="#42444A"/>
<path d="M26.1338 77.4435V65.9603C26.1338 63.9221 27.7554 62.2725 29.7591 62.2725H39.7169L26.1338 77.4435Z" fill="#42444A"/>
<path d="M47.5136 63.772H49.3066C49.9993 62.9696 50.8822 61.1221 51.1675 55.3235L51.2014 52.1948H61.253V63.7788H63.5281V68.7279H60.7777V66.5635H50.2642V68.7279H47.5068V63.772H47.5136ZM52.5394 63.772H58.3324V54.7436L54.0742 54.7908L53.9588 57.4339C53.6464 61.4593 53.1438 63.0843 52.5394 63.772Z" fill="#42444A"/>
<path d="M70.1287 55.3843C73.7556 55.3843 76.0919 57.7442 76.0919 60.9065C76.0919 64.0621 73.7556 66.4288 70.1287 66.4288C66.5023 66.4288 64.166 64.0689 64.166 60.9065C64.166 57.7442 66.5023 55.3843 70.1287 55.3843ZM70.1287 63.9205C71.8537 63.9205 73.124 62.727 73.124 60.9065C73.124 59.1265 71.8334 57.9128 70.1287 57.9128C68.4717 57.9128 67.1608 59.0792 67.1608 60.9065C67.1608 62.6596 68.424 63.9205 70.1287 63.9205Z" fill="#42444A"/>
<path d="M77.6064 55.6401H80.1399L83.8618 59.4565L87.3932 55.6401H89.8515V66.1655H87.0533V59.733L83.8141 63.0773H83.7393L80.4046 59.733V66.1655H77.6064V55.6401Z" fill="#42444A"/>
<path d="M131.312 55.6401H134.111V66.1655H131.312V55.6401ZM136.868 60.6432L142.186 66.1655H138.532L133.004 60.859L138.24 55.6401H141.772L136.868 60.6432Z" fill="#42444A"/>
<path d="M92.6201 55.6401H95.4183V66.1655H92.6201V55.6401ZM98.1754 60.6432L103.493 66.1655H99.8397L94.3114 60.859L99.5475 55.6401H103.079L98.1754 60.6432Z" fill="#42444A"/>
<path d="M112.372 58.3305H109.553L109.513 59.47C109.377 65.4643 107.489 66.5229 104.467 66.2329V63.6303C106.09 63.7381 106.749 62.983 106.823 58.9373L106.878 55.6401H115.177V66.1655H112.379V58.3305H112.372Z" fill="#42444A"/>
<path d="M117.946 66.1655V55.6401H120.744V62.3087L125.858 55.6401H128.656V66.1655H125.858V59.497L120.744 66.1655H117.946Z" fill="#42444A"/>
<path d="M131.389 76.0117L133.331 74.5957H126.838V83.1185H133.331V81.6958H128.692V79.5178H132.645V78.0951H128.692V76.0117H131.389Z" fill="#42444A"/>
<path d="M121.942 77.9198H119.687V76.0184H123.286L125.229 74.5957H117.84V83.1185H121.704C123.877 83.1185 125.113 82.1407 125.113 80.4349C125.113 78.8099 123.986 77.9198 121.942 77.9198ZM121.616 81.6958H119.687V79.3358H121.616C122.791 79.3358 123.341 79.7336 123.341 80.5158C123.341 81.3249 122.757 81.6958 121.616 81.6958Z" fill="#42444A"/>
<path d="M138.589 74.5894H135.057V83.1189H136.911V80.705H138.589C140.843 80.705 142.242 79.525 142.242 77.6438C142.242 75.7626 140.843 74.5894 138.589 74.5894ZM138.548 79.2823H136.904V76.0121H138.548C139.736 76.0121 140.388 76.5919 140.388 77.6438C140.388 78.7024 139.736 79.2823 138.548 79.2823Z" fill="#42444A"/>
<path d="M114.655 81.2708C114.179 81.5338 113.629 81.6687 113.051 81.6687C111.381 81.6687 110.172 80.482 110.172 78.857C110.172 77.232 111.381 76.0452 113.051 76.0452C113.683 76.0452 114.253 76.2206 114.736 76.5645L116.06 75.5935L115.972 75.5126C115.198 74.8316 114.158 74.481 112.97 74.481C111.687 74.481 110.519 74.9125 109.683 75.6946C108.841 76.4835 108.379 77.5893 108.379 78.8098C108.379 80.037 108.841 81.1562 109.676 81.9654C110.511 82.7812 111.679 83.2262 112.957 83.2262C114.294 83.2262 115.456 82.761 116.25 81.9182C115.639 81.4731 115.048 81.0416 115.048 81.0416L114.655 81.2708Z" fill="#42444A"/>
<path d="M102.65 74.4951C102.988 74.9279 103.269 75.4027 103.508 75.9054L97.0099 80.6671L94.2812 78.9635V76.9248L96.9959 78.6144L102.65 74.4951Z" fill="#42444A"/>
<path d="M91.5098 78.824C91.5098 78.7262 91.5098 78.6424 91.5238 78.5447L89.8783 78.4609C89.8783 78.5726 89.8643 78.6983 89.8643 78.81C89.8643 80.7649 90.666 82.5383 91.9603 83.823L93.1274 82.664C92.1289 81.6865 91.5098 80.332 91.5098 78.824Z" fill="#42444A"/>
<path d="M96.9953 73.3779C97.0939 73.3779 97.178 73.3779 97.2766 73.3918L97.3611 71.7581C97.2485 71.7581 97.1219 71.7441 97.0093 71.7441C95.0404 71.7441 93.2542 72.54 91.96 73.8247L93.1276 74.9837C94.112 73.9923 95.4903 73.3779 96.9953 73.3779Z" fill="#42444A"/>
<path d="M96.9957 84.2694C96.8971 84.2694 96.8131 84.2694 96.7145 84.2554L96.6299 85.8892C96.7425 85.8892 96.8691 85.9031 96.9817 85.9031C98.9506 85.9031 100.737 85.1072 102.031 83.8225L100.863 82.6636C99.879 83.669 98.5147 84.2694 96.9957 84.2694Z" fill="#42444A"/>
<path d="M100.091 74.3277L101.483 73.3084C100.259 72.3309 98.6982 71.7305 96.9961 71.7305V73.3642C98.1497 73.3782 99.2187 73.7272 100.091 74.3277Z" fill="#42444A"/>
<path d="M104.141 78.8239C104.141 78.3911 104.099 77.9721 104.029 77.5532L102.496 78.6843C102.496 78.7262 102.496 78.7821 102.496 78.8239C102.496 80.4298 101.793 81.868 100.682 82.8594L101.793 84.0743C103.228 82.7896 104.141 80.9045 104.141 78.8239Z" fill="#42444A"/>
<path d="M96.9966 84.2696C95.379 84.2696 93.9301 83.5714 92.9317 82.4683L91.708 83.5714C93.0163 85.0097 94.9006 85.9033 96.9966 85.9033V84.2696Z" fill="#42444A"/>
<path d="M93.3246 74.7881L92.213 73.5732C90.7646 74.8718 89.8643 76.743 89.8643 78.8236H91.5098C91.5098 77.2317 92.213 75.7795 93.3246 74.7881Z" fill="#42444A"/>
</svg>
