<svg width="148" height="127" viewBox="0 0 148 127" fill="none" xmlns="http://www.w3.org/2000/svg">
<path d="M62.5512 87.8386C62.3133 87.2 61.8822 86.7647 61.57 86.1987C60.8118 85.2263 59.9198 84.3846 59.0278 83.5428C58.7156 83.4412 58.5818 83.151 58.2845 83.0349C58.0912 82.7881 57.779 82.6575 57.5263 82.4689C57.0208 82.0915 56.4707 81.7722 55.9058 81.453C54.8354 80.7854 53.5123 80.3645 52.204 79.9291C50.7917 79.5953 49.305 79.3486 47.7589 79.1454C46.2277 78.9277 44.6964 78.7246 43.5368 78.1295C42.8678 77.9409 42.3772 77.578 41.7974 77.2878C41.2622 76.9395 40.6824 76.6492 40.2364 76.2138C39.6864 75.8946 39.3444 75.3576 38.9133 74.9222C38.7647 74.6319 38.5119 74.4578 38.393 74.1385C38.2443 74.0805 38.1997 73.9063 38.1105 73.8047C38.0065 73.6886 38.0065 73.4564 37.8281 73.4129C37.7389 74.0079 37.7686 74.719 37.8281 75.3286C37.9024 75.5898 37.9321 75.9091 38.0065 76.1703C38.0511 76.4025 38.2741 76.7798 38.1849 76.954C33.5465 76.7218 30.1569 75.285 27.2133 73.3983C25.7564 72.455 24.5076 71.3085 23.348 70.0749C22.8426 69.3928 22.2925 68.7397 21.8465 67.9851C21.3856 67.2449 20.9991 66.4032 20.5828 65.6195C19.899 63.9215 19.2597 62.1799 19.0218 60.0466C18.7096 58.0583 18.784 55.5186 19.2448 53.6754C19.4084 52.6595 19.7503 51.8033 20.0476 50.918C20.2409 50.5116 20.449 50.1053 20.6274 49.6844C20.8802 49.3361 21.014 48.8572 21.3262 48.5524C22.1736 46.9995 23.4372 45.8385 24.7306 44.721C26.1281 43.7196 27.7188 42.9069 29.6366 42.4135C31.48 42.0071 33.9925 41.9346 35.9846 42.3554C40.0283 43.1682 43.076 44.9387 45.633 47.2027C48.2198 49.4232 50.2119 52.2387 51.5796 55.6637C52.992 58.9146 53.4826 63.9795 52.2189 67.6658C51.6986 67.3755 51.1782 67.0998 50.6579 66.824C50.0335 66.6499 49.424 66.4467 48.6955 66.3741C47.8184 66.3596 46.9561 66.3741 46.3912 66.6499C47.5359 66.5338 48.4577 66.8386 49.1713 67.0998C49.5875 67.2594 49.8254 67.361 50.1524 67.5497C50.7917 67.9125 51.3566 68.2463 51.8324 68.7397C53.1852 69.9008 54.1516 71.4391 54.6124 73.4709C54.6124 73.529 54.6868 73.5145 54.6719 73.4129C54.7313 73.3984 54.7611 73.3548 54.7908 73.2968C54.8651 73.2097 54.9543 73.1226 55.0287 73.021C55.1773 72.8469 55.326 72.6727 55.4301 72.455C55.7423 72.0922 55.995 71.6858 56.2329 71.265C56.7829 70.4813 57.1992 69.5815 57.6749 68.7252C58.4926 66.8966 59.1616 64.9229 59.5779 62.6879C60.4104 57.7245 59.4143 53.0224 57.6749 49.5538C55.8909 46.0562 53.3934 43.2552 50.1673 41.1509C46.9115 39.061 43.1057 37.5227 37.8727 37.3775C37.8429 37.276 37.7983 37.3921 37.6943 37.3775C34.9291 37.2905 32.6991 37.6678 30.484 38.2193C29.4582 38.5531 28.3878 38.8433 27.4809 39.2932C26.4403 39.627 25.6077 40.1785 24.6563 40.5849C24.3143 40.9042 23.794 41.0638 23.4372 41.3686C22.9764 41.5863 22.6344 41.9346 22.1736 42.1523C21.4302 42.7908 20.6423 43.3568 19.9138 44.0099C19.2002 44.6485 18.5758 45.3741 17.892 46.0417C17.7879 46.2739 17.6095 46.4335 17.4311 46.6077C17.3122 46.8254 17.1635 47.0141 16.9703 47.1737C16.8959 47.4349 16.6581 47.5365 16.5689 47.7977C16.3756 47.9429 16.331 48.2331 16.108 48.3637C15.9147 48.8282 15.5728 49.162 15.3498 49.5973C15.0822 50.0182 14.8741 50.4826 14.6065 50.889C14.1902 51.8323 13.7442 52.7466 13.4023 53.7625C13.0455 54.7494 12.7481 55.7943 12.54 56.9263C12.317 57.9857 12.1089 59.3645 12.1386 60.4819C11.99 60.8883 12.1089 61.643 12.1386 62.1219C12.1386 62.209 12.0792 62.238 12.0792 62.296C12.0792 62.833 12.2278 63.4861 12.2576 63.8199C12.3765 65.0535 12.5995 66.2 12.9563 67.2014C13.1793 68.3189 13.655 69.1896 13.9969 70.191C14.5173 71.0328 14.8741 72.0341 15.4985 72.7888C15.9593 73.6741 16.6135 74.3707 17.2379 75.0964C17.9069 75.793 18.5758 76.5041 19.3786 77.0701C20.8504 78.3182 22.575 79.3196 24.463 80.1758C27.9864 81.8448 33.2492 82.9333 37.9767 82.6575C39.1809 82.4979 40.4 82.3528 41.5001 82.0915C42.511 81.7287 43.6855 81.511 44.9045 81.3659C47.6846 81.1917 50.093 81.4385 52.2338 82.048C54.4043 82.614 56.2775 83.4702 57.8979 84.5877C58.7602 85.0812 59.4738 85.7197 60.2023 86.3293C60.9456 86.9533 61.5402 87.7225 62.2241 88.4191C62.3133 88.6803 62.4917 88.869 62.6255 89.1012C62.8039 89.2899 62.7147 89.7253 63.1458 89.6672C63.4134 89.406 63.1012 89.0287 63.0864 88.7094C62.8188 88.4336 62.7593 88.0708 62.5512 87.8386Z" fill="#42444A"/>
<path d="M51.758 72.3967C51.6986 72.3967 51.6837 72.4403 51.6391 72.4548C51.535 72.6725 51.5796 73.0208 51.6391 73.2385C51.9513 73.8625 52.0554 74.6752 52.7392 74.9365C53.0663 74.8349 53.0366 74.3705 53.0217 73.9206C52.873 73.3691 52.6649 72.8756 52.323 72.5128C52.0851 72.4258 51.9216 72.2806 51.758 72.3967ZM47.7143 73.9786C47.7143 73.9496 47.6697 73.9206 47.6549 73.9786C47.0899 73.9061 46.8967 74.2108 46.6142 74.4285C46.1236 75.6911 46.9115 76.9247 48.2941 76.9102C48.8442 76.7796 49.1861 76.4313 49.2753 75.8363C49.201 74.7768 48.7401 74.0947 47.7143 73.9786Z" fill="#42444A"/>
<path d="M81.0462 69.9586C81.2692 70.8729 81.745 71.526 82.2802 72.1355C82.8153 72.7451 83.4397 73.253 84.1979 73.6304C84.9115 74.0657 85.6846 74.4286 86.5766 74.6753C87.0077 74.8204 87.424 74.9946 87.9592 75.0526C88.3308 75.2558 88.7768 75.3574 88.8066 75.8799C88.7917 76.5039 88.3606 76.7361 87.8105 76.8522C87.2605 76.7361 86.5766 76.7506 86.1157 76.5474C84.9561 76.4168 84.0195 76.054 83.0383 75.7202C81.1652 75.0091 79.5893 73.9787 78.281 72.7161C78.0134 72.2807 77.6418 71.9324 77.3593 71.5115C77.0769 71.0906 76.8836 70.5827 76.5863 70.1618C74.2968 69.8715 72.7358 68.8556 71.3681 67.6801C70.1044 66.2724 69.0935 64.5889 68.6772 62.3539C68.1866 60.206 68.3353 57.5211 68.9151 55.4458C70.1788 51.4258 72.825 48.7554 77.8202 48.3926C79.2028 48.4361 80.407 48.5958 81.5071 49.0021C82.6221 49.394 83.6776 50.1196 84.5101 50.8743C84.5845 50.9323 84.6142 50.9468 84.6588 51.0194C84.8372 51.2661 85.2683 51.6144 85.5062 51.9192C85.5508 51.9772 85.5359 52.0788 85.5805 52.1514C85.6697 52.282 85.8035 52.3401 85.8927 52.4562C85.9373 52.5287 85.9225 52.6158 85.9671 52.6739C86.0265 52.7609 86.1009 52.8916 86.1901 53.0512C86.2198 53.1092 86.3239 53.1528 86.3387 53.1963C86.4725 53.443 86.532 53.7478 86.6509 54.0236C86.7699 54.3138 86.9334 54.5605 87.0375 54.8508C87.3348 55.707 87.528 56.7229 87.647 57.7679C87.9443 60.7865 87.3348 63.4859 86.1901 65.4887C85.6549 66.5336 84.9115 67.3899 84.0344 68.1155C83.2316 68.9427 82.1315 69.4362 81.0462 69.9586ZM77.3593 51.0629C76.6903 51.1065 76.2889 51.4112 75.7389 51.5854C75.3821 51.9047 74.9361 52.1514 74.6685 52.5578C74.2225 52.8045 74.1035 53.356 73.7467 53.6752C73.4494 54.4009 73.1669 55.2136 72.9737 56.1569C72.7953 57.0858 72.6763 58.1307 72.6615 59.1611C72.6466 61.7444 73.2115 64.3131 74.2671 65.837C74.8915 66.5771 75.6497 67.1867 76.5714 67.6366C77.1066 67.6801 77.5228 67.8543 78.1026 67.8688C78.4297 67.7527 78.9649 67.8688 79.173 67.6366C79.6488 67.6656 79.7528 67.3608 80.1691 67.3318C80.3921 67.1141 80.63 66.94 80.9422 66.8093C81.2246 66.5046 81.4922 66.1998 81.7896 65.9095C81.9382 65.6919 82.0274 65.3871 82.2504 65.2274C83.5884 62.7312 83.7371 58.1597 82.8599 55.2571C82.5329 54.1977 82.072 53.3414 81.5517 52.6303C80.9868 52.0643 80.3178 51.5854 79.5596 51.2081C78.95 51.0774 78.3702 50.9178 77.5674 50.9904C77.5228 50.9904 77.4782 51.0049 77.4931 51.0629C77.4634 51.0629 77.4188 51.0629 77.3593 51.0629ZM93.5787 48.9586C94.7829 49.0021 96.1953 48.857 97.2657 49.0311C97.5035 49.394 97.4143 49.8293 97.4143 50.2357C97.5035 55.7361 97.4143 61.6428 97.4143 67.2592C97.4143 67.7091 97.4292 68.1735 97.4143 68.6089C97.3995 68.9863 97.5035 69.3926 97.2657 69.7409C96.7305 69.8715 95.9574 69.8135 95.2735 69.8135C94.5451 69.8135 93.8315 69.9151 93.3557 69.6684C93.222 63.0215 93.222 55.8522 93.3557 49.1908C93.3855 49.0747 93.4598 49.0021 93.5787 48.9586ZM102.796 48.9586H106.409C106.736 49.394 106.84 50.047 106.944 50.6856C108.029 54.7202 109.099 58.7692 110.096 62.9054C110.333 62.9344 110.259 62.6587 110.333 62.5281C110.437 62.4265 110.378 62.1798 110.482 62.0782C110.527 61.7444 110.735 61.5702 110.72 61.1784C110.988 60.6704 111.077 59.9738 111.329 59.4513C111.642 58.2323 112.058 57.1003 112.415 55.9247C112.757 54.7057 113.217 53.6027 113.485 52.3256C113.991 51.2951 114.109 49.8874 114.719 48.9586H116.25C116.8 49.9745 117.008 51.3242 117.484 52.4126C117.796 53.6317 118.228 54.7347 118.555 55.9392C119.313 58.2758 120.101 60.5833 120.785 62.9925C121.097 62.5426 121.097 61.7879 121.32 61.2654C121.454 60.6704 121.573 60.0609 121.781 59.5384C122.375 57.1583 122.94 54.7637 123.624 52.4852C123.877 51.2951 124.13 50.0761 124.546 49.0311C125.438 48.9005 126.806 48.9005 127.698 49.0311C127.772 49.9164 127.356 50.8743 127.088 51.658C126.939 52.6158 126.583 53.356 126.389 54.2848C125.839 55.9828 125.423 57.7824 124.858 59.4659C124.427 61.2654 123.847 62.9199 123.401 64.7195C123.104 65.5467 122.896 66.461 122.628 67.3463C122.331 68.159 122.227 69.1604 121.781 69.828H119.625C119.075 68.8847 118.882 67.6075 118.391 66.6062C117.321 63.2972 116.131 60.1189 115.091 56.781C114.734 57.1438 114.734 57.884 114.481 58.3484C114.318 58.9144 114.154 59.4804 113.946 60.0028C113.649 61.1493 113.203 62.1217 112.95 63.2972C112.519 64.3277 112.207 65.4742 111.879 66.6062C111.433 67.593 111.27 68.8556 110.72 69.7554C110.155 69.9296 109.263 69.7845 108.564 69.828C108.029 69.233 107.97 68.159 107.643 67.3463C107.39 66.5046 107.211 65.5758 106.884 64.7921C106.468 62.9634 105.844 61.3525 105.427 59.5384C104.877 57.8549 104.402 56.0989 103.896 54.3573C103.614 53.5301 103.406 52.6448 103.123 51.8031C102.989 50.9033 102.365 50.0906 102.588 49.1037C102.618 49.0311 102.707 48.9876 102.796 48.9586ZM133.139 48.9586C134.343 49.0021 135.74 48.857 136.826 49.0311C137.093 49.8148 136.974 50.6566 136.974 51.4983V67.2447C136.974 68.101 137.078 68.9282 136.826 69.7264C135.993 69.8135 134.774 69.857 133.748 69.799C133.451 69.7845 133.094 69.8715 132.901 69.6539C132.633 68.8702 132.752 68.0429 132.752 67.1722V51.5854C132.752 50.6421 132.663 49.7278 132.901 49.1037C132.96 49.0311 133.049 48.9876 133.139 48.9586Z" fill="#42444A"/>
</svg>
