<svg width="148" height="127" viewBox="0 0 148 127" fill="none" xmlns="http://www.w3.org/2000/svg">
<mask id="mask0_1465_2037" style="mask-type:luminance" maskUnits="userSpaceOnUse" x="2" y="30" width="144" height="48">
<path d="M146 30H2V78H146V30Z" fill="white"/>
</mask>
<g mask="url(#mask0_1465_2037)">
<path d="M25.9101 38.1655C24.9928 33.9681 22.6948 30.5543 22.3798 30C21.875 30.781 20.0455 33.794 19.1126 37.1336C18.0981 40.8629 17.9438 44.1716 18.296 47.4284C18.6458 50.6836 19.9631 54.0207 19.9631 54.0207C20.6609 55.7767 21.7108 57.656 22.3921 58.5802C23.3926 57.2224 25.6923 53.1733 26.4074 47.8802C26.8066 44.9362 26.8256 42.3621 25.9101 38.1655ZM22.3798 57.5362C21.9302 56.6483 21.23 54.9638 21.1615 52.3509C21.1442 49.8302 22.1117 47.6707 22.3921 47.219C22.6479 47.6707 23.4792 49.5474 23.5766 52.1267C23.6418 54.6526 22.8458 56.6302 22.3798 57.5362ZM25.6436 45.2862C25.6065 46.8897 25.4234 48.575 25.1875 49.5853C25.2708 47.8448 25.0762 45.3862 24.6918 43.4759C24.3074 41.5586 23.2236 38.3595 22.3575 36.8741C21.5591 38.2853 20.5759 41.0526 20.062 43.4509C19.544 45.8603 19.5283 48.7612 19.5283 49.6388C19.3889 48.9009 19.0466 46.2836 19.1456 43.65C19.2256 41.4733 19.7107 39.2405 19.9812 38.2164C20.9948 34.7828 22.1447 32.5965 22.3583 32.2457C22.5778 32.5965 24.0278 35.2905 24.7759 38.131C25.524 40.9655 25.6783 43.6793 25.6436 45.2862Z" fill="#42444A"/>
<path d="M23.928 59.5582H16.9607V64.4461C16.9681 64.4392 16.9715 64.4349 16.9789 64.4323C18.6195 62.7116 21.2845 62.7116 22.9242 64.4323C24.5714 66.1461 24.5714 68.9306 22.9242 70.6427C22.9201 70.6539 22.9143 70.6625 22.9069 70.6677V70.6702C22.897 70.6789 22.8896 70.6789 22.8813 70.6883C21.244 72.3952 19.1036 73.2435 16.9607 73.2435C14.8178 73.2435 12.6585 72.3892 11.0211 70.6711C8.12434 67.6487 7.78451 62.9754 9.98845 59.5599C10.2829 59.0996 10.6244 58.6582 11.0211 58.2539C12.6585 56.5383 14.8087 55.6832 16.9607 55.6832V43.9297C8.69512 43.928 2 50.9297 2 59.5582C2 68.1866 8.69512 75.1952 16.9615 75.1952C21.2712 75.1952 25.1496 73.2918 27.8839 70.2444V59.5582H23.928Z" fill="#42444A"/>
<path d="M29.709 59.6064H35.3978V61.3211H32.6923V75.1944H29.7098L29.709 59.6064Z" fill="#42444A"/>
<path d="M37.9346 59.6064H42.6221L44.1777 75.1944H41.2586L40.9815 71.0521H39.5751L39.2981 75.1944H36.3789L37.9346 59.6064ZM40.8751 69.3375L40.3637 61.522H40.1929L39.6815 69.3375H40.8751Z" fill="#42444A"/>
<path d="M48.5253 69.7383V72.9668C48.5253 73.3676 48.8239 73.4788 48.9938 73.4788C49.2709 73.4788 49.4623 73.234 49.4623 72.9668V69.0478C49.4623 68.5582 49.3773 68.0237 48.2688 68.0237H47.0546V66.309H48.3117C49.1636 66.309 49.4623 66.109 49.4623 65.1513V61.8332C49.4623 61.5659 49.2701 61.3211 48.9938 61.3211C48.8231 61.3211 48.5253 61.4323 48.5253 61.8332V64.5944H45.5427V62.3901C45.5427 61.2987 45.6706 59.6064 47.759 59.6064H50.231C52.3186 59.6064 52.4465 61.2987 52.4465 62.3901V64.884C52.4465 66.5763 51.3173 67.0444 50.4224 66.9995V67.1556C52.425 67.1107 52.4465 68.7142 52.4465 69.2711V72.4107C52.4465 73.5021 52.3186 75.1944 50.231 75.1944H47.759C45.6713 75.1944 45.5427 73.5021 45.5427 72.4107V69.7383H48.5253Z" fill="#42444A"/>
<path d="M54.1953 59.6074H61.0983V75.1954H58.1158V61.3221H57.1779V75.1954H54.1953V59.6074Z" fill="#42444A"/>
<path d="M62.8477 59.6074H67.5351C69.6228 59.6074 69.7506 61.2997 69.7506 62.3911V67.1117C69.7506 68.2031 69.6228 69.8954 67.5351 69.8954H65.8302V75.1954H62.8477V59.6074ZM66.2138 68.1807C66.5338 68.1807 66.768 67.8911 66.768 67.4014V62.1014C66.768 61.6117 66.5338 61.3221 66.2138 61.3221H65.8302V68.1807H66.2138Z" fill="#42444A"/>
<path d="M71.3711 62.3911C71.3711 61.2997 71.4989 59.6074 73.5874 59.6074H76.0594C78.147 59.6074 78.2749 61.2997 78.2749 62.3911V72.4117C78.2749 73.5031 78.147 75.1954 76.0594 75.1954H73.5874C71.4997 75.1954 71.3711 73.5031 71.3711 72.4117V62.3911ZM75.2914 61.8342C75.2914 61.5669 75.0993 61.3221 74.823 61.3221C74.6522 61.3221 74.3545 61.4333 74.3545 61.8342V72.9678C74.3545 73.3686 74.653 73.4798 74.823 73.4798C75.1001 73.4798 75.2914 73.235 75.2914 72.9678V61.8342Z" fill="#42444A"/>
<path d="M87.7786 59.6074H91.6562V75.1954H88.6736V65.4195H88.5672L87.033 75.1954H84.6467L83.1134 65.4195H83.007V75.1954H80.0244V59.6074H83.902L85.8411 70.5635L87.7786 59.6074Z" fill="#42444A"/>
<path d="M106.873 59.6064H110.751V75.1944H107.768V65.4185H107.661L106.128 75.1944H103.741L102.208 65.4185H102.102V75.1944H99.1189V59.6064H102.996L104.935 70.5625L106.873 59.6064Z" fill="#42444A"/>
<path d="M112.501 59.6063H118.552V61.321H115.484V66.1529H118.552V67.8675H115.484V73.4788H118.68V75.1934H112.501V59.6063Z" fill="#42444A"/>
<path d="M127.566 73.4798H128.163V78.0005H125.478V75.1945H122.346V78.0005H119.662V73.4798H119.811C120.621 73.4798 120.663 72.4996 120.663 71.9212V59.6074H127.567V73.4807L127.566 73.4798ZM123.645 72.2324C123.645 72.8565 123.518 73.2126 123.241 73.4798H124.583V61.3212H123.645V72.2324Z" fill="#42444A"/>
<path d="M129.528 59.6074H132.512V67.379H132.618L133.853 59.6074H136.836V75.1954H133.853V67.4238H133.747L132.512 75.1954H129.528V59.6074Z" fill="#42444A"/>
<path d="M139.758 59.6064H144.447L146.001 75.1944H143.083L142.804 71.0521H141.399L141.122 75.1944H138.203L139.758 59.6064ZM142.698 69.3375L142.187 61.522H142.017L141.505 69.3375H142.698Z" fill="#42444A"/>
</g>
</svg>
