<svg width="148" height="127" viewBox="0 0 148 127" fill="none" xmlns="http://www.w3.org/2000/svg">
<path fill-rule="evenodd" clip-rule="evenodd" d="M20.7314 49.4209V75.702L47.2473 49.4209H20.7314Z" fill="#42444A"/>
<path fill-rule="evenodd" clip-rule="evenodd" d="M22.625 77.5795H49.1409V51.2983L22.625 77.5795Z" fill="#42444A"/>
<path fill-rule="evenodd" clip-rule="evenodd" d="M64.0357 62.8897C67.1187 62.8897 68.7577 61.3933 68.7577 58.5973V58.4393C68.7577 55.4465 67.0404 54.2651 64.0357 54.2651H60.8355V62.8897H64.0357ZM54.5527 49.4209H64.1917C70.9819 49.4209 74.8455 52.4531 74.8455 58.4004V58.5575C74.8455 64.5043 70.748 67.3401 64.3866 67.3401H60.8355V77.5793H54.5527V49.4209Z" fill="#42444A"/>
<path fill-rule="evenodd" clip-rule="evenodd" d="M87.3526 72.7351C90.3775 72.7351 91.9092 71.3962 91.9092 68.836V68.679C91.9092 66.1582 90.3775 64.7799 87.1995 64.7799H83.6768V72.7351H87.3526ZM87.5825 77.5793H77.5508V49.4209H95.3933V54.3832H83.7154L83.6768 60.2902H87.7737C94.0914 60.2902 97.8435 63.0866 97.8435 68.7179V68.8759C97.8435 74.3891 94.3594 77.5793 87.5825 77.5793Z" fill="#42444A"/>
<path fill-rule="evenodd" clip-rule="evenodd" d="M102.41 49.4602H109.007V61.5732L119.187 49.4209H126.191L114.667 62.7529L126.761 77.5793H119.065L109.007 64.9551V77.5793H102.41V49.4602Z" fill="#42444A"/>
</svg>
