<svg width="148" height="127" viewBox="0 0 148 127" fill="none" xmlns="http://www.w3.org/2000/svg">
<path d="M38.774 54.4351C31.3696 54.4351 25.3389 60.3592 25.3389 67.7477C25.3389 75.1029 31.3696 81.027 38.774 81.027C46.2119 81.027 52.2426 75.1029 52.2426 67.7477C52.2426 60.3592 46.2119 54.4351 38.774 54.4351ZM38.774 75.469C34.653 75.469 31.2691 71.8413 31.2691 67.7477C31.2691 63.6208 34.653 59.9931 38.774 59.9931C42.9285 59.9931 46.3124 63.6208 46.3124 67.7477C46.3124 71.8413 42.9285 75.469 38.774 75.469Z" fill="#42444A"/>
<path d="M31.0678 52.4382C32.676 52.4382 34.0162 51.1069 34.0162 49.4761C34.0162 47.8786 32.676 46.5474 31.0678 46.5474C29.4261 46.5474 28.0859 47.8786 28.0859 49.4761C28.0859 51.1069 29.4261 52.4382 31.0678 52.4382Z" fill="#42444A"/>
<path d="M46.4799 52.4382C48.0881 52.4382 49.4283 51.1069 49.4283 49.4761C49.4283 47.8786 48.0881 46.5474 46.4799 46.5474C44.8382 46.5474 43.498 47.8786 43.498 49.4761C43.498 51.1069 44.8382 52.4382 46.4799 52.4382Z" fill="#42444A"/>
<path d="M38.7741 52.4382C40.3823 52.4382 41.7225 51.1069 41.7225 49.4761C41.7225 47.8786 40.3823 46.5474 38.7741 46.5474C37.1324 46.5474 35.7922 47.8786 35.7922 49.4761C35.7922 51.1069 37.1324 52.4382 38.7741 52.4382Z" fill="#42444A"/>
<path d="M98.1431 54.901H91.6098L83.8704 65.5843V46.98H77.9402V80.561H83.8704V69.8777L92.2129 80.561H99.2153L88.9295 67.5812L98.1431 54.901Z" fill="#42444A"/>
<path d="M75.159 54.901H68.6257L60.8863 65.5843V46.98H54.9561V80.561H60.8863V69.8777L69.2288 80.561H76.2311L65.9454 67.5812L75.159 54.901Z" fill="#42444A"/>
<path d="M109.769 54.4351C102.365 54.4351 96.334 60.3592 96.334 67.7477C96.334 75.1029 102.365 81.027 109.769 81.027C117.207 81.027 123.238 75.1029 123.238 67.7477C123.238 60.3592 117.207 54.4351 109.769 54.4351ZM109.736 75.469C105.615 75.469 102.231 71.8413 102.231 67.7477C102.231 63.6208 105.615 59.9931 109.736 59.9931C113.89 59.9931 117.274 63.6208 117.274 67.7477C117.274 71.8413 113.89 75.469 109.736 75.469Z" fill="#42444A"/>
</svg>
