<svg width="148" height="127" viewBox="0 0 148 127" fill="none" xmlns="http://www.w3.org/2000/svg">
<path d="M83.5023 72.5374H74.2852V54.4473H82.3803C86.0482 54.4473 88.0318 56.792 88.0318 59.5716C88.0318 60.8139 87.4209 62.0963 86.4838 63.0561C87.8687 63.7985 89.054 65.4908 89.054 67.2581C89.054 70.3477 86.7077 72.5374 83.5023 72.5374ZM78.637 68.9004H82.9036C83.9647 68.9004 84.6511 68.093 84.6511 67.1206V67.0831C84.6511 66.0957 83.9526 65.3033 82.9036 65.3033H78.637V68.9004ZM78.637 61.6613H81.818C82.9522 61.6613 83.6386 60.8539 83.6386 59.8816C83.6386 58.8942 83.0034 58.1018 81.818 58.1018H78.637C78.637 58.0993 78.637 61.6613 78.637 61.6613Z" fill="#42444A"/>
<path d="M34.5182 72.5374L28.1804 63.2886L34.3186 54.4473H29.205L24.3153 61.6988V54.4473H19.8613V72.5374H24.3153V65.1209L29.2172 72.5374H34.5182Z" fill="#42444A"/>
<path d="M114.54 54.4473V67.823C114.54 68.4254 114.277 68.8854 113.73 68.8854C112.956 68.8854 112.919 67.9755 112.919 67.3731H108.74C108.74 70.2677 110.361 72.9848 113.854 72.9848C116.899 72.9848 118.98 70.4477 118.98 67.3231V58.5217H125.003V72.5374H129.458V54.4473H114.54Z" fill="#42444A"/>
<path d="M54.5274 54.4473L48.3648 67.7955C47.2306 70.3327 44.8722 72.9848 40.8684 72.9848C37.4634 72.9848 34.258 70.8576 33.6836 66.1832H37.9989C38.3226 68.053 39.6199 68.8854 41.068 68.8854C42.302 68.8854 43.1393 68.1305 43.3753 67.693L36.0274 54.4473H41.1532L45.819 63.1961L49.6621 54.4473H54.5274Z" fill="#42444A"/>
<path d="M11.94 72.5374H0.0917969V54.4473H10.8326C14.5004 54.4473 16.484 56.792 16.484 59.5716C16.484 60.8139 15.8731 62.0963 14.9361 63.0561C16.321 63.7985 17.5063 65.4908 17.5063 67.2581C17.5038 70.3477 15.1478 72.5374 11.94 72.5374ZM4.44359 68.9004H11.3534C12.4146 68.9004 13.1009 68.093 13.1009 67.1206V67.0831C13.1009 66.0957 12.4024 65.3033 11.3534 65.3033H4.44359V68.9004ZM4.44359 61.6613H10.2679C11.4021 61.6613 12.0884 60.8539 12.0884 59.8816C12.0884 58.8942 11.4532 58.1018 10.2679 58.1018H4.44359V61.6613Z" fill="#42444A"/>
<path d="M67.3012 65.7485C66.6149 67.4007 65.1424 68.5681 63.0857 68.5681C60.1918 68.5681 58.4443 66.2484 58.4443 63.4938C58.4443 60.7391 60.1918 58.4194 63.0857 58.4194C65.1448 58.4194 66.6149 59.5993 67.3012 61.264H72.0911C71.193 57.1271 67.8123 54 63.0857 54C57.534 54 53.8418 58.3044 53.8418 63.4938V63.5062C53.8418 68.7081 57.534 73 63.0857 73C67.8123 73 71.193 69.8879 72.0911 65.7485H67.3012Z" fill="#42444A"/>
<path d="M103.5 54.4473L96.0766 64.9034V54.4473H91.625V72.5374H95.6774L103.113 62.0963V72.5374H107.567V54.4473H103.5Z" fill="#42444A"/>
<path d="M134.499 54.4473V66.6682C134.499 67.7955 133.876 68.4754 132.739 68.4754H131.43V72.5249H133.788C136.894 72.5249 138.953 70.5127 138.953 66.8356V58.5092H143.456V72.5249H147.91V54.4473H134.499Z" fill="#42444A"/>
</svg>
